<svg width="1200" height="400" viewBox="0 0 1200 400" fill="none" xmlns="http://www.w3.org/2000/svg">
<g clip-path="url(#clip0_983_1476)">
<path fill-rule="evenodd" clip-rule="evenodd" d="M399.984 46V400.07H0V46C13.423 46.0103 21.7779 48.5242 32.3158 51.8415C40.0894 54.2888 48.723 56.63 57.7945 56.2635C65.8894 55.9362 72.7052 53.5467 79.5245 51.156C86.2846 48.7862 93.0481 46.415 101.065 46.0502C111.707 45.5657 120.943 48.6759 130.246 51.8084C138.891 54.7193 147.593 57.6494 157.533 57.7324C167.694 57.8172 176.641 54.9084 185.509 52.0256C195.229 48.8657 204.853 45.737 215.873 46.6164C223.445 47.2205 229.923 49.6607 236.327 52.0728C243.847 54.9057 251.265 57.6997 260.23 57.4348C268.07 57.2031 274.522 54.6419 280.931 52.098C287.788 49.3758 294.596 46.6735 303 46.8665C311.306 47.0572 317.652 49.9908 324.064 52.9553C329.811 55.6123 335.612 58.2942 342.926 59.0484C353.682 60.1576 363.303 56.4434 373.005 52.6977C381.646 49.3613 390.353 46 399.984 46ZM799.984 400.07V46C790.353 46 781.646 49.3613 773.005 52.6977C763.303 56.4434 753.682 60.1576 742.926 59.0484C735.612 58.2942 729.811 55.6123 724.064 52.9553C717.652 49.9908 711.306 47.0572 703 46.8665C694.596 46.6735 687.788 49.3758 680.931 52.098C674.522 54.6419 668.07 57.2031 660.23 57.4348C651.265 57.6997 643.847 54.9057 636.327 52.0728C629.924 49.6607 623.445 47.2205 615.873 46.6164C604.853 45.737 595.229 48.8657 585.509 52.0256C576.641 54.9084 567.694 57.8172 557.533 57.7324C547.593 57.6494 538.891 54.7193 530.246 51.8084C520.943 48.6759 511.707 45.5657 501.065 46.0502C493.048 46.415 486.285 48.7862 479.525 51.156C472.705 53.5467 465.889 55.9362 457.795 56.2635C448.723 56.63 440.089 54.2888 432.316 51.8415C421.778 48.5242 413.423 46.0103 400 46V400.07H799.984ZM1199.98 400.07V46C1190.35 46 1181.65 49.3613 1173 52.6977C1163.3 56.4434 1153.68 60.1576 1142.93 59.0484C1135.61 58.2942 1129.81 55.6123 1124.06 52.9553C1117.65 49.9908 1111.31 47.0572 1103 46.8665C1094.6 46.6735 1087.79 49.3758 1080.93 52.098C1074.52 54.6419 1068.07 57.2031 1060.23 57.4348C1051.26 57.6997 1043.85 54.9057 1036.33 52.0728C1029.92 49.6607 1023.45 47.2205 1015.87 46.6164C1004.85 45.737 995.229 48.8657 985.509 52.0256C976.641 54.9084 967.694 57.8172 957.533 57.7324C947.593 57.6494 938.891 54.7193 930.246 51.8084C920.943 48.6759 911.707 45.5657 901.065 46.0502C893.048 46.415 886.285 48.7862 879.525 51.156C872.705 53.5467 865.889 55.9362 857.795 56.2635C848.723 56.63 840.089 54.2888 832.316 51.8415C821.778 48.5242 813.423 46.0103 800 46V400.07H1199.98Z" fill="black"/>
</g>
<defs>
<clipPath id="clip0_983_1476">
<rect width="1200" height="400" fill="white"/>
</clipPath>
</defs>
</svg>
