<svg width="200" height="200" viewBox="0 0 200 200" fill="none" xmlns="http://www.w3.org/2000/svg">
<g clip-path="url(#clip0_364_1906)">
<path d="M11.1084 60.3167C4.03335 46.0167 -9.99998 10.575 10 1.25C12.9735 0.0121904 16.2479 -0.313585 19.407 0.314079C22.5661 0.941743 25.4672 2.4945 27.7417 4.775L69.075 48.9417C69.8558 49.7088 70.4779 50.6222 70.9057 51.6298C71.3335 52.6373 71.5587 53.7193 71.5684 54.8138C71.578 55.9084 71.372 56.9942 70.9621 58.0091C70.5522 59.0241 69.9463 59.9483 69.1792 60.7292C68.412 61.51 67.4986 62.1321 66.4911 62.5599C65.4835 62.9877 64.4016 63.2128 63.307 63.2225C62.2124 63.2322 61.1267 63.0262 60.1117 62.6162C59.0968 62.2063 58.1725 61.6005 57.3917 60.8333L16.6667 17.3333C17.6584 48.8083 36.1917 72.3333 57.0084 95.9917C58.6063 97.5277 59.5286 99.6356 59.5723 101.852C59.6161 104.068 58.7777 106.21 57.2417 107.808C55.7056 109.406 53.5977 110.329 51.3817 110.372C49.1656 110.416 47.0229 109.578 45.425 108.042C31.7459 93.8703 20.1875 77.7957 11.1084 60.3167ZM150.042 135C148.906 133.756 147.488 132.804 145.907 132.224C144.326 131.644 142.629 131.452 140.958 131.667C131.291 132.964 121.458 132.14 112.142 129.25C110.715 128.829 109.201 128.804 107.761 129.176C106.321 129.549 105.01 130.306 103.967 131.367C91.5167 150.167 131.25 148.975 139.9 148.7L185.592 197.358C186.342 198.156 187.242 198.798 188.24 199.248C189.239 199.698 190.316 199.947 191.41 199.981C192.505 200.014 193.595 199.832 194.62 199.444C195.644 199.057 196.581 198.471 197.379 197.721C198.177 196.971 198.819 196.071 199.269 195.072C199.719 194.074 199.968 192.997 200.002 191.902C200.035 190.808 199.853 189.717 199.465 188.693C199.078 187.669 198.492 186.731 197.742 185.933L150.042 135ZM125 116.667C130.472 116.674 135.891 115.602 140.948 113.512C146.004 111.421 150.598 108.353 154.467 104.483L197.558 61.3833C198.333 60.6096 198.948 59.6909 199.368 58.6796C199.787 57.6683 200.004 56.5842 200.005 55.4892C200.005 54.3943 199.791 53.3099 199.372 52.298C198.954 51.2861 198.34 50.3665 197.567 49.5917C196.793 48.8169 195.874 48.202 194.863 47.7823C193.852 47.3626 192.768 47.1461 191.673 47.1454C190.578 47.1446 189.493 47.3595 188.481 47.7778C187.469 48.1961 186.55 48.8096 185.775 49.5833L142.683 92.6833C139.024 96.311 134.333 98.7192 129.252 99.5784C124.171 100.438 118.949 99.7059 114.3 97.4833L172.558 39.225C173.354 38.4563 173.989 37.5367 174.426 36.52C174.863 35.5033 175.092 34.4098 175.102 33.3033C175.112 32.1968 174.901 31.0995 174.482 30.0754C174.063 29.0512 173.444 28.1208 172.662 27.3384C171.879 26.5559 170.949 25.9372 169.925 25.5182C168.9 25.0991 167.803 24.8883 166.697 24.8979C165.59 24.9075 164.497 25.1374 163.48 25.5742C162.463 26.0109 161.544 26.6457 160.775 27.4417L102.5 85.7C100.277 81.0511 99.5457 75.8289 100.405 70.7481C101.264 65.6674 103.672 60.9762 107.3 57.3167L150.417 14.225C151.935 12.6533 152.775 10.5483 152.756 8.36332C152.737 6.17835 151.86 4.08824 150.315 2.54318C148.77 0.998109 146.68 0.121701 144.495 0.102714C142.31 0.0837276 140.205 0.923681 138.633 2.44166L95.5333 45.5333C88.7562 52.3334 84.5297 61.2615 83.5659 70.8136C82.602 80.3656 84.9597 89.958 90.2417 97.975L2.44169 185.775C0.923703 187.347 0.0837501 189.452 0.102737 191.637C0.121724 193.822 0.998131 195.912 2.5432 197.457C4.08827 199.002 6.17837 199.878 8.36334 199.897C10.5483 199.916 12.6533 199.076 14.225 197.558L102.025 109.758C108.84 114.264 116.83 116.666 125 116.667Z" fill="black"/>
</g>
<defs>
<clipPath id="clip0_364_1906">
<rect width="200" height="200" fill="white"/>
</clipPath>
</defs>
</svg>
