<svg width="200" height="200" viewBox="0 0 200 200" fill="none" xmlns="http://www.w3.org/2000/svg">
<path d="M162.5 75H158.333V58.3333C158.333 56.1232 157.455 54.0036 155.893 52.4408C154.33 50.878 152.21 50 150 50C150.106 44.089 148.598 38.2611 145.637 33.1437C142.677 28.0263 138.377 23.8133 133.2 20.9583C127.214 17.6269 120.364 16.175 113.542 16.7917C112.695 16.8967 111.836 16.7808 111.047 16.4551C110.258 16.1295 109.568 15.6052 109.042 14.9333C105.415 10.1818 100.706 6.36409 95.3076 3.79742C89.9089 1.23076 83.9758 -0.0108244 78.001 0.175787C72.0262 0.362398 66.1821 1.97182 60.9541 4.87038C55.7262 7.76895 51.2652 11.873 47.9417 16.8417C39.4879 17.3507 31.5463 21.0641 25.7353 27.225C19.9242 33.386 16.6811 41.5309 16.6667 50C14.4566 50 12.337 50.878 10.7742 52.4408C9.21135 54.0036 8.33337 56.1232 8.33337 58.3333V158.333C8.34661 169.38 12.7407 179.97 20.5519 187.782C28.363 195.593 38.9534 199.987 50 200H116.667C127.713 199.987 138.304 195.593 146.115 187.782C153.926 179.97 158.32 169.38 158.333 158.333H162.5C170.236 158.333 177.654 155.26 183.124 149.791C188.594 144.321 191.667 136.902 191.667 129.167V104.167C191.667 96.4312 188.594 89.0126 183.124 83.5427C177.654 78.0729 170.236 75 162.5 75ZM50 33.3333C50.4793 33.349 50.9562 33.4076 51.425 33.5083C53.2209 33.8004 55.0631 33.4966 56.6701 32.6434C58.2771 31.7902 59.5608 30.4345 60.325 28.7833C61.8486 25.5488 64.1791 22.7608 67.092 20.6877C70.005 18.6145 73.4025 17.3259 76.9577 16.9458C80.5128 16.5658 84.106 17.1071 87.3913 18.5177C90.6767 19.9283 93.5438 22.1606 95.7167 25C97.95 27.9664 100.914 30.3027 104.321 31.7808C107.727 33.259 111.458 33.8284 115.15 33.4333C118.71 33.153 122.272 33.9392 125.383 35.6917C127.863 37.152 129.908 39.2484 131.305 41.764C132.703 44.2796 133.403 47.123 133.333 50H100C93.3696 50 87.0108 52.6339 82.3224 57.3223C77.634 62.0108 75 68.3696 75 75V100C75 102.21 74.1221 104.33 72.5593 105.893C70.9965 107.455 68.8769 108.333 66.6667 108.333C64.4566 108.333 62.337 107.455 60.7742 105.893C59.2114 104.33 58.3334 102.21 58.3334 100V75C58.3334 68.3696 55.6995 62.0108 51.011 57.3223C46.3226 52.6339 39.9638 50 33.3334 50C33.3334 45.5797 35.0893 41.3405 38.2149 38.2149C41.3405 35.0893 45.5798 33.3333 50 33.3333ZM141.667 158.333C141.667 164.964 139.033 171.323 134.344 176.011C129.656 180.699 123.297 183.333 116.667 183.333H50C43.3696 183.333 37.0108 180.699 32.3224 176.011C27.634 171.323 25 164.964 25 158.333V66.6667H33.3334C35.5435 66.6667 37.6631 67.5447 39.2259 69.1075C40.7887 70.6703 41.6667 72.7899 41.6667 75V100C41.6667 106.63 44.3006 112.989 48.989 117.678C53.6775 122.366 60.0363 125 66.6667 125C73.2971 125 79.656 122.366 84.3444 117.678C89.0328 112.989 91.6667 106.63 91.6667 100V75C91.6667 72.7899 92.5447 70.6703 94.1075 69.1075C95.6703 67.5447 97.7899 66.6667 100 66.6667H141.667V158.333ZM175 129.167C175 132.482 173.683 135.661 171.339 138.006C168.995 140.35 165.815 141.667 162.5 141.667H158.333V91.6667H162.5C165.815 91.6667 168.995 92.9836 171.339 95.3278C173.683 97.6721 175 100.851 175 104.167V129.167Z" fill="black"/>
</svg>
