<svg width="200" height="200" viewBox="0 0 200 200" fill="none" xmlns="http://www.w3.org/2000/svg">
<g clip-path="url(#clip0_367_4484)">
<path d="M191.667 41.6667C191.667 35.0363 189.033 28.6774 184.344 23.989C179.656 19.3006 173.297 16.6667 166.667 16.6667H165.242C163.512 11.7958 160.318 7.57926 156.097 4.59536C151.876 1.61147 146.836 0.00630623 141.667 0L58.3333 0C53.1644 0.00630623 48.124 1.61147 43.9032 4.59536C39.6825 7.57926 36.4882 11.7958 34.7583 16.6667H33.3333C28.2822 16.6999 23.3597 18.2625 19.2141 21.1486C15.0686 24.0346 11.8945 28.1087 10.1101 32.8342C8.3256 37.5597 8.01444 42.715 9.21757 47.6208C10.4207 52.5266 13.0817 56.9529 16.85 60.3167L29.75 163.5C31.0213 173.572 35.9208 182.835 43.531 189.554C51.1412 196.273 60.9399 199.987 71.0917 200H128.908C139.06 199.985 148.857 196.27 156.467 189.552C164.077 182.833 168.977 173.571 170.25 163.5L183.15 60.3167C185.815 57.9931 187.953 55.1275 189.422 51.9113C190.891 48.695 191.656 45.2024 191.667 41.6667ZM159.308 116.667H132.642C125.208 72.6083 74.75 72.6333 67.325 116.667H40.6583L34.4083 66.6667H165.558L159.308 116.667ZM116.667 125C115.792 157.95 84.2084 157.942 83.3334 125C84.2084 92.05 115.833 92.0583 116.667 125ZM33.3333 33.3333H41.6667C43.8768 33.3333 45.9964 32.4554 47.5592 30.8926C49.122 29.3298 50 27.2101 50 25C50 22.7899 50.878 20.6702 52.4408 19.1074C54.0036 17.5446 56.1232 16.6667 58.3333 16.6667H141.667C143.877 16.6667 145.996 17.5446 147.559 19.1074C149.122 20.6702 150 22.7899 150 25C150 27.2101 150.878 29.3298 152.441 30.8926C154.004 32.4554 156.123 33.3333 158.333 33.3333H166.667C168.877 33.3333 170.996 34.2113 172.559 35.7741C174.122 37.3369 175 39.4565 175 41.6667C175 43.8768 174.122 45.9964 172.559 47.5592C170.996 49.122 168.877 50 166.667 50H33.3333C31.1232 50 29.0036 49.122 27.4408 47.5592C25.878 45.9964 25 43.8768 25 41.6667C25 39.4565 25.878 37.3369 27.4408 35.7741C29.0036 34.2113 31.1232 33.3333 33.3333 33.3333ZM153.708 161.433C152.953 167.479 150.016 173.04 145.449 177.073C140.883 181.105 135.001 183.332 128.908 183.333H71.0917C64.9979 183.334 59.1139 181.108 54.5455 177.075C49.9771 173.043 47.039 167.48 46.2833 161.433L42.775 133.333H67.3417C74.775 177.392 125.242 177.367 132.658 133.333H157.225L153.708 161.433Z" fill="black"/>
</g>
<defs>
<clipPath id="clip0_367_4484">
<rect width="200" height="200" fill="white"/>
</clipPath>
</defs>
</svg>
