<svg width="200" height="200" viewBox="0 0 200 200" fill="none" xmlns="http://www.w3.org/2000/svg">
<path d="M100 133.333C106.9 133.333 112.5 138.933 112.5 145.833C112.5 152.733 106.9 158.333 100 158.333C93.1001 158.333 87.5001 152.733 87.5001 145.833C87.5001 138.933 93.1001 133.333 100 133.333ZM108.333 116.667C108.333 111.992 111.733 106.458 116.067 104.067C128.567 97.175 135.292 83.0416 132.808 68.8833C130.45 55.4333 119.408 44.4 105.967 42.05C96.1501 40.3416 86.1417 42.9666 78.5751 49.325C71.0084 55.6833 66.6667 64.9833 66.6667 74.8583C66.6667 79.4583 70.4001 83.1916 75.0001 83.1916C79.6001 83.1916 83.3334 79.4583 83.3334 74.8583C83.3334 69.925 85.5084 65.2666 89.2917 62.0833C93.1334 58.85 98.0334 57.5666 103.092 58.4583C109.65 59.6083 115.242 65.2 116.392 71.7583C117.667 79.0083 114.383 85.9583 108.025 89.4666C98.3918 94.775 91.6667 105.958 91.6667 116.667C91.6667 121.275 95.4001 125 100 125C104.6 125 108.333 121.275 108.333 116.667Z" fill="black"/>
</svg>
