<svg width="200" height="200" viewBox="0 0 200 200" fill="none" xmlns="http://www.w3.org/2000/svg">
<g clip-path="url(#clip0_364_1902)">
<path d="M122.067 45.775C129.342 39.9333 136.833 32.0833 140.633 22.5333C142.617 17.55 141.975 11.8917 138.925 7.4C135.783 2.76667 130.575 0 125 0H74.9999C69.4249 0 64.2166 2.76667 61.0749 7.4C58.0249 11.8917 57.3916 17.55 59.3666 22.5333C63.1666 32.075 70.6583 39.9333 77.9333 45.775C39.1333 60.175 8.33325 109.658 8.33325 150C8.33325 177.575 30.7583 200 58.3333 200H141.667C169.242 200 191.667 177.575 191.667 150C191.667 109.658 160.867 60.175 122.067 45.775ZM125.142 16.375C120.842 27.1833 107.692 36.3167 99.9833 40.625C92.2916 36.35 79.1916 27.2917 74.9916 16.6667L125.142 16.375ZM141.658 183.333H58.3333C39.9499 183.333 24.9999 168.383 24.9999 150C24.9999 106.308 64.2499 58.3333 99.9999 58.3333C135.75 58.3333 175 106.308 175 150C175 168.383 160.042 183.333 141.658 183.333Z" fill="black"/>
<rect x="46.5" y="137" width="17" height="106" rx="8.5" transform="rotate(-90 46.5 137)" fill="black"/>
<rect width="17" height="83.3904" rx="8.5" transform="matrix(-0.965926 -0.258819 -0.258819 0.965926 144.004 94.3999)" fill="black"/>
<rect width="17" height="83.3904" rx="8.5" transform="matrix(-0.965926 -0.258819 -0.258819 0.965926 110.004 94.3999)" fill="black"/>
<rect x="55" y="94.3999" width="17" height="83.3904" rx="8.5" transform="rotate(-15 55 94.3999)" fill="black"/>
<rect x="89" y="94.3999" width="17" height="83.3904" rx="8.5" transform="rotate(-15 89 94.3999)" fill="black"/>
</g>
<defs>
<clipPath id="clip0_364_1902">
<rect width="200" height="200" fill="white"/>
</clipPath>
</defs>
</svg>
