<svg width="200" height="200" viewBox="0 0 200 200" fill="none" xmlns="http://www.w3.org/2000/svg">
<g clip-path="url(#clip0_364_1876)">
<path d="M191.667 91.6667C193.877 91.6667 195.996 90.7887 197.559 89.2259C199.122 87.6631 200 85.5435 200 83.3333C200 81.1232 199.122 79.0036 197.559 77.4408C195.996 75.878 193.877 75 191.667 75H180L173.583 54.325C171.24 46.705 166.746 39.9242 160.64 34.7985C154.534 29.6729 147.077 26.4207 139.167 25.4333C136.005 17.9096 130.696 11.4845 123.904 6.96103C117.111 2.43756 109.136 0.0163477 100.975 0L99.0249 0C90.8639 0.0163477 82.8888 2.43756 76.0961 6.96103C69.3035 11.4845 63.9947 17.9096 60.8332 25.4333C52.9265 26.4231 45.474 29.6754 39.3715 34.7993C33.2689 39.9231 28.7762 46.7005 26.4332 54.3167L19.9999 75H8.33322C6.12308 75 4.00346 75.878 2.44066 77.4408C0.877856 79.0036 -0.000117312 81.1232 -0.000117312 83.3333C-0.000117312 85.5435 0.877856 87.6631 2.44066 89.2259C4.00346 90.7887 6.12308 91.6667 8.33322 91.6667H14.8416L8.88322 110.833C5.4788 114.474 2.94362 118.838 1.46816 123.599C-0.00730782 128.359 -0.384683 133.392 0.364383 138.32C1.11345 143.247 2.96948 147.941 5.79302 152.048C8.61655 156.155 12.3342 159.569 16.6666 162.033V175C16.6666 181.63 19.3005 187.989 23.9889 192.678C28.6773 197.366 35.0361 200 41.6666 200C48.297 200 54.6558 197.366 59.3442 192.678C64.0326 187.989 66.6665 181.63 66.6665 175V166.667H133.333V175C133.333 181.63 135.967 187.989 140.656 192.678C145.344 197.366 151.703 200 158.333 200C164.964 200 171.322 197.366 176.011 192.678C180.699 187.989 183.333 181.63 183.333 175V162.033C187.663 159.569 191.378 156.156 194.199 152.05C197.021 147.944 198.876 143.253 199.625 138.327C200.374 133.402 199.998 128.371 198.524 123.612C197.05 118.853 194.518 114.49 191.117 110.85L185.158 91.6667H191.667ZM99.0249 16.6667H100.975C104.479 16.6737 107.942 17.4196 111.138 18.8555C114.335 20.2914 117.192 22.3851 119.525 25H80.4749C82.8064 22.3839 85.6638 20.2893 88.8604 18.8533C92.0569 17.4173 95.5206 16.6722 99.0249 16.6667ZM42.3582 59.25C43.9242 54.1468 47.0897 49.6825 51.3874 46.5163C55.685 43.3501 60.8869 41.6499 66.2249 41.6667H133.775C139.115 41.6486 144.32 43.3493 148.619 46.5172C152.919 49.6851 156.085 54.1523 157.65 59.2583L170.417 100.375C169.175 100.178 167.923 100.053 166.667 100H33.3332C32.0771 100.053 30.825 100.178 29.5832 100.375L42.3582 59.25ZM49.9999 175C49.9999 177.21 49.1219 179.33 47.5591 180.893C45.9963 182.455 43.8767 183.333 41.6666 183.333C39.4564 183.333 37.3368 182.455 35.774 180.893C34.2112 179.33 33.3332 177.21 33.3332 175V166.667H49.9999V175ZM166.667 175C166.667 177.21 165.789 179.33 164.226 180.893C162.663 182.455 160.543 183.333 158.333 183.333C156.123 183.333 154.003 182.455 152.441 180.893C150.878 179.33 150 177.21 150 175V166.667H166.667V175ZM166.667 150H33.3332C28.9129 150 24.6737 148.244 21.5481 145.118C18.4225 141.993 16.6666 137.754 16.6666 133.333C16.6666 128.913 18.4225 124.674 21.5481 121.548C24.6737 118.423 28.9129 116.667 33.3332 116.667V125C33.3332 127.21 34.2112 129.33 35.774 130.893C37.3368 132.455 39.4564 133.333 41.6666 133.333C43.8767 133.333 45.9963 132.455 47.5591 130.893C49.1219 129.33 49.9999 127.21 49.9999 125V116.667H150V125C150 127.21 150.878 129.33 152.441 130.893C154.003 132.455 156.123 133.333 158.333 133.333C160.543 133.333 162.663 132.455 164.226 130.893C165.789 129.33 166.667 127.21 166.667 125V116.667C171.087 116.667 175.326 118.423 178.452 121.548C181.577 124.674 183.333 128.913 183.333 133.333C183.333 137.754 181.577 141.993 178.452 145.118C175.326 148.244 171.087 150 166.667 150Z" fill="black"/>
</g>
<defs>
<clipPath id="clip0_364_1876">
<rect width="200" height="200" fill="white"/>
</clipPath>
</defs>
</svg>
