<svg width="200" height="200" viewBox="0 0 200 200" fill="none" xmlns="http://www.w3.org/2000/svg">
<g clip-path="url(#clip0_444_1459)">
<path d="M68.0333 66.6667C63.2061 66.5912 58.555 64.8415 54.8749 61.7167C47.1988 54.6769 42.5484 44.937 41.8999 34.5417C39.8749 13.7667 51.2083 1.50837 63.4499 0.141706C66.3995 -0.185322 69.3848 0.0843838 72.228 0.934773C75.0712 1.78516 77.7143 3.19885 79.9999 5.09171C83.4097 8.16532 86.1782 11.8828 88.1461 16.0302C90.114 20.1776 91.2424 24.6732 91.4666 29.2584C93.3333 48.625 84.3999 66.6667 68.0333 66.6667ZM65.2999 16.6667C60.4916 17.2 57.6249 24.025 58.4916 32.8834C58.733 38.8345 61.1878 44.481 65.3749 48.7167C66.1682 49.4959 67.2223 49.9532 68.3333 50C71.2583 49.675 75.9666 42.1584 74.8583 30.8334C72.0083 15.2834 65.5083 16.6667 65.2999 16.7084V16.6667ZM26.3666 116.667C21.5394 116.591 16.8884 114.841 13.2083 111.717C5.53212 104.677 0.881713 94.937 0.233273 84.5417C-1.79173 63.7667 9.54161 51.5084 21.7833 50.1417C24.7327 49.8185 27.717 50.09 30.5597 50.9403C33.4024 51.7905 36.0457 53.2021 38.3333 55.0917C41.7431 58.1653 44.5115 61.8828 46.4794 66.0302C48.4473 70.1776 49.5758 74.6732 49.7999 79.2584C51.6666 98.625 42.3083 116.667 26.3666 116.667ZM23.6333 66.6667C18.8249 67.2 15.9583 74.025 16.8249 82.8834C17.0664 88.8345 19.5211 94.481 23.7083 98.7167C24.5093 99.4843 25.5588 99.9396 26.6666 100C29.5916 99.675 34.2999 92.1584 33.1916 80.8334C30.9833 65.6 23.8416 66.6667 23.6333 66.7084V66.6667ZM131.967 66.6667C117.733 66.7667 106.683 48.6167 108.575 29.2334C108.799 24.6482 109.928 20.1526 111.895 16.0052C113.863 11.8578 116.632 8.14032 120.042 5.06671C122.325 3.1852 124.962 1.78007 127.798 0.934203C130.633 0.0883387 133.609 -0.181126 136.55 0.141706C148.792 1.50837 160.125 13.7667 158.1 34.5417C157.454 44.9399 152.803 54.6832 145.125 61.725C141.444 64.8468 136.793 66.5935 131.967 66.6667ZM125.167 30.8334C124.058 42.125 128.767 49.6417 131.692 50C132.782 49.9571 133.821 49.529 134.625 48.7917C138.812 44.556 141.267 38.9095 141.508 32.9584C143.258 11.1167 126.667 12.5417 125.167 30.8334ZM173.633 116.667C158.117 116.667 148.35 98.6167 150.242 79.2334C150.466 74.6482 151.594 70.1526 153.562 66.0052C155.53 61.8578 158.298 58.1403 161.708 55.0667C163.988 53.1783 166.624 51.7672 169.46 50.9169C172.296 50.0665 175.274 49.7945 178.217 50.1167C190.458 51.4834 201.792 63.7417 199.767 84.5167C199.12 94.9149 194.47 104.658 186.792 111.7C183.114 114.831 178.462 116.586 173.633 116.667ZM166.833 80.8334C165.725 92.125 170.433 99.6417 173.358 100C174.445 99.9427 175.48 99.5164 176.292 98.7917C180.479 94.556 182.934 88.9095 183.175 82.9584C184.008 74.1 181.175 67.275 176.367 66.7417C176.158 66.6667 167.625 65.925 166.833 80.8334ZM133.333 200C126.21 200.142 119.175 198.4 112.942 194.95C108.952 192.848 104.51 191.75 99.9999 191.75C95.4902 191.75 91.0482 192.848 87.0583 194.95C61.9499 209.025 32.6833 193.558 33.3333 158.333C33.3333 119.708 70.8916 83.3334 99.9999 83.3334C129.108 83.3334 166.667 119.7 166.667 158.333C166.667 182.867 152.958 200 133.333 200ZM99.9999 175C107.122 174.86 114.155 176.599 120.392 180.042C139.033 190.192 150.292 176.433 150 158.333C150 130.167 120.658 100 99.9999 100C79.3416 100 49.9999 130.167 49.9999 158.333C49.7333 176.408 60.8999 190.192 79.6083 180.042C85.8445 176.599 92.8778 174.86 99.9999 175Z" fill="black"/>
</g>
<defs>
<clipPath id="clip0_444_1459">
<rect width="200" height="200" fill="white"/>
</clipPath>
</defs>
</svg>
