<svg width="200" height="200" viewBox="0 0 200 200" fill="none" xmlns="http://www.w3.org/2000/svg">
<g clip-path="url(#clip0_444_1465)">
<path d="M91.6667 116.667C91.6667 121.275 87.9333 125 83.3333 125H75C70.4 125 66.6667 121.275 66.6667 116.667C66.6667 112.058 70.4 108.333 75 108.333H83.3333C87.9333 108.333 91.6667 112.058 91.6667 116.667ZM125 108.333H116.667C112.067 108.333 108.333 112.058 108.333 116.667C108.333 121.275 112.067 125 116.667 125H125C129.6 125 133.333 121.275 133.333 116.667C133.333 112.058 129.6 108.333 125 108.333ZM83.3333 141.667H75C70.4 141.667 66.6667 145.392 66.6667 150C66.6667 154.608 70.4 158.333 75 158.333H83.3333C87.9333 158.333 91.6667 154.608 91.6667 150C91.6667 145.392 87.9333 141.667 83.3333 141.667ZM125 141.667H116.667C112.067 141.667 108.333 145.392 108.333 150C108.333 154.608 112.067 158.333 116.667 158.333H125C129.6 158.333 133.333 154.608 133.333 150C133.333 145.392 129.6 141.667 125 141.667ZM83.3333 41.6667H75C70.4 41.6667 66.6667 45.3917 66.6667 50C66.6667 54.6083 70.4 58.3333 75 58.3333H83.3333C87.9333 58.3333 91.6667 54.6083 91.6667 50C91.6667 45.3917 87.9333 41.6667 83.3333 41.6667ZM125 41.6667H116.667C112.067 41.6667 108.333 45.3917 108.333 50C108.333 54.6083 112.067 58.3333 116.667 58.3333H125C129.6 58.3333 133.333 54.6083 133.333 50C133.333 45.3917 129.6 41.6667 125 41.6667ZM83.3333 75H75C70.4 75 66.6667 78.725 66.6667 83.3333C66.6667 87.9417 70.4 91.6667 75 91.6667H83.3333C87.9333 91.6667 91.6667 87.9417 91.6667 83.3333C91.6667 78.725 87.9333 75 83.3333 75ZM125 75H116.667C112.067 75 108.333 78.725 108.333 83.3333C108.333 87.9417 112.067 91.6667 116.667 91.6667H125C129.6 91.6667 133.333 87.9417 133.333 83.3333C133.333 78.725 129.6 75 125 75ZM200 83.3333V158.333C200 181.308 181.308 200 158.333 200H41.6667C18.6917 200 0 181.308 0 158.333V116.667C0 96.5417 14.3417 79.7083 33.3333 75.8417V41.6667C33.3333 18.6917 52.025 0 75 0H125C147.975 0 166.667 18.6917 166.667 41.6667V42.5083C185.658 46.3833 200 63.2083 200 83.3333ZM183.333 83.3333C183.333 69.55 172.117 58.3333 158.333 58.3333C153.733 58.3333 150 54.6083 150 50V41.6667C150 27.8833 138.783 16.6667 125 16.6667H75C61.2167 16.6667 50 27.8833 50 41.6667V83.3333C50 87.9417 46.2667 91.6667 41.6667 91.6667C27.8833 91.6667 16.6667 102.883 16.6667 116.667V158.333C16.6667 172.117 27.8833 183.333 41.6667 183.333H158.333C172.117 183.333 183.333 172.117 183.333 158.333V83.3333ZM158.333 108.333H150C145.4 108.333 141.667 112.058 141.667 116.667C141.667 121.275 145.4 125 150 125H158.333C162.933 125 166.667 121.275 166.667 116.667C166.667 112.058 162.933 108.333 158.333 108.333ZM158.333 141.667H150C145.4 141.667 141.667 145.392 141.667 150C141.667 154.608 145.4 158.333 150 158.333H158.333C162.933 158.333 166.667 154.608 166.667 150C166.667 145.392 162.933 141.667 158.333 141.667ZM50 108.333H41.6667C37.0667 108.333 33.3333 112.058 33.3333 116.667C33.3333 121.275 37.0667 125 41.6667 125H50C54.6 125 58.3333 121.275 58.3333 116.667C58.3333 112.058 54.6 108.333 50 108.333ZM50 141.667H41.6667C37.0667 141.667 33.3333 145.392 33.3333 150C33.3333 154.608 37.0667 158.333 41.6667 158.333H50C54.6 158.333 58.3333 154.608 58.3333 150C58.3333 145.392 54.6 141.667 50 141.667ZM158.333 75H150C145.4 75 141.667 78.725 141.667 83.3333C141.667 87.9417 145.4 91.6667 150 91.6667H158.333C162.933 91.6667 166.667 87.9417 166.667 83.3333C166.667 78.725 162.933 75 158.333 75Z" fill="black"/>
</g>
<defs>
<clipPath id="clip0_444_1465">
<rect width="200" height="200" fill="white"/>
</clipPath>
</defs>
</svg>
