<svg width="200" height="200" viewBox="0 0 200 200" fill="none" xmlns="http://www.w3.org/2000/svg">
<path d="M141.667 109.867V83.3333C141.667 81.1232 140.789 79.0036 139.226 77.4408C137.663 75.878 135.544 75 133.333 75V20.1167C133.334 16.6893 132.458 13.3186 130.789 10.3251C129.119 7.33164 126.712 4.81471 123.796 3.01351C120.88 1.21231 117.552 0.186685 114.128 0.0340931C110.704 -0.118499 107.298 0.607012 104.233 2.14168L82.3834 13.0584C77.6518 15.4115 73.6725 19.041 70.8952 23.5368C68.1179 28.0326 66.6532 33.2155 66.6667 38.5V75C64.4566 75 62.337 75.878 60.7742 77.4408C59.2114 79.0036 58.3334 81.1232 58.3334 83.3333V109.867C53.4758 111.584 49.2675 114.76 46.2841 118.961C43.3008 123.161 41.6881 128.181 41.6667 133.333V158.333C41.68 169.38 46.0741 179.97 53.8852 187.782C61.6964 195.593 72.2868 199.987 83.3334 200H116.667C127.713 199.987 138.304 195.593 146.115 187.782C153.926 179.97 158.32 169.38 158.333 158.333V133.333C158.312 128.181 156.699 123.161 153.716 118.961C150.733 114.76 146.524 111.584 141.667 109.867ZM75.0001 108.333V91.6667H125V108.333H75.0001ZM83.3334 38.5C83.3273 36.3119 83.9336 34.1657 85.0838 32.3042C86.234 30.4427 87.8821 28.9402 89.8418 27.9667L111.667 17.05C112.191 16.7786 112.776 16.6473 113.366 16.6686C113.955 16.6899 114.53 16.8632 115.033 17.1717C115.536 17.4803 115.95 17.9135 116.237 18.4295C116.523 18.9454 116.671 19.5266 116.667 20.1167V75H83.3334V38.5ZM141.667 158.333C141.667 164.964 139.033 171.323 134.344 176.011C129.656 180.699 123.297 183.333 116.667 183.333H83.3334C76.703 183.333 70.3442 180.699 65.6557 176.011C60.9673 171.323 58.3334 164.964 58.3334 158.333V133.333C58.3334 131.123 59.2114 129.004 60.7742 127.441C62.337 125.878 64.4566 125 66.6667 125H133.333C135.544 125 137.663 125.878 139.226 127.441C140.789 129.004 141.667 131.123 141.667 133.333V158.333Z" fill="black"/>
</svg>
