<svg width="200" height="200" viewBox="0 0 200 200" fill="none" xmlns="http://www.w3.org/2000/svg">
<g clip-path="url(#clip0_444_1477)">
<path d="M166.667 58.3333H152.183C156.895 54.18 160.635 49.0407 163.138 43.28C165.641 37.5193 166.846 31.2784 166.667 25C166.667 22.7899 165.789 20.6702 164.226 19.1074C162.663 17.5446 160.543 16.6667 158.333 16.6667C156.123 16.6667 154.004 17.5446 152.441 19.1074C150.878 20.6702 150 22.7899 150 25C150 46.85 130.242 54.4167 115.217 57.0083C120.762 47.1755 124.101 36.2531 125 25C125 18.3696 122.366 12.0107 117.678 7.32233C112.989 2.63392 106.63 0 100 0C93.3696 0 87.0107 2.63392 82.3223 7.32233C77.6339 12.0107 75 18.3696 75 25C75.8992 36.2531 79.2376 47.1755 84.7833 57.0083C69.7583 54.4167 50 46.85 50 25C50 22.7899 49.122 20.6702 47.5592 19.1074C45.9964 17.5446 43.8768 16.6667 41.6667 16.6667C39.4565 16.6667 37.3369 17.5446 35.7741 19.1074C34.2113 20.6702 33.3333 22.7899 33.3333 25C33.1543 31.2784 34.359 37.5193 36.862 43.28C39.365 49.0407 43.105 54.18 47.8167 58.3333H33.3333C24.4928 58.3333 16.0143 61.8452 9.76311 68.0964C3.5119 74.3476 0 82.8261 0 91.6667L0 100C0 104.42 1.75595 108.659 4.88155 111.785C8.00716 114.911 12.2464 116.667 16.6667 116.667V158.333C16.6799 169.38 21.074 179.97 28.8852 187.782C36.6963 195.593 47.2867 199.987 58.3333 200H141.667C152.713 199.987 163.304 195.593 171.115 187.782C178.926 179.97 183.32 169.38 183.333 158.333V116.667C187.754 116.667 191.993 114.911 195.118 111.785C198.244 108.659 200 104.42 200 100V91.6667C200 82.8261 196.488 74.3476 190.237 68.0964C183.986 61.8452 175.507 58.3333 166.667 58.3333ZM100 16.6667C102.21 16.6667 104.33 17.5446 105.893 19.1074C107.455 20.6702 108.333 22.7899 108.333 25C107.327 33.8569 104.489 42.4076 100 50.1083C95.5106 42.4076 92.6726 33.8569 91.6667 25C91.6667 22.7899 92.5446 20.6702 94.1074 19.1074C95.6702 17.5446 97.7899 16.6667 100 16.6667ZM16.6667 91.6667C16.6667 87.2464 18.4226 83.0072 21.5482 79.8816C24.6738 76.7559 28.9131 75 33.3333 75H91.6667V100H16.6667V91.6667ZM33.3333 158.333V116.667H91.6667V183.333H58.3333C51.7029 183.333 45.3441 180.699 40.6557 176.011C35.9673 171.323 33.3333 164.964 33.3333 158.333ZM166.667 158.333C166.667 164.964 164.033 171.323 159.344 176.011C154.656 180.699 148.297 183.333 141.667 183.333H108.333V116.667H166.667V158.333ZM108.333 100V75H166.667C171.087 75 175.326 76.7559 178.452 79.8816C181.577 83.0072 183.333 87.2464 183.333 91.6667V100H108.333Z" fill="black"/>
</g>
<defs>
<clipPath id="clip0_444_1477">
<rect width="200" height="200" fill="white"/>
</clipPath>
</defs>
</svg>
