<svg width="200" height="200" viewBox="0 0 200 200" fill="none" xmlns="http://www.w3.org/2000/svg">
<g clip-path="url(#clip0_364_1985)">
<path d="M130.958 0.3C66.3999 -5.95 25.4082 72.3417 66.4582 121.758L2.44156 185.775C0.923576 187.347 0.0836231 189.452 0.10261 191.637C0.121597 193.822 0.998004 195.912 2.54307 197.457C4.08814 199.002 6.17824 199.878 8.36322 199.897C10.5482 199.916 12.6532 199.076 14.2249 197.558L78.2416 133.542C125.567 172.85 200.892 137.05 200 75C199.972 56.1544 192.856 38.0089 180.065 24.1692C167.273 10.3295 149.743 1.80872 130.958 0.3ZM125 133.333C109.535 133.313 94.7092 127.161 83.7739 116.226C72.8386 105.291 66.6864 90.4649 66.6666 75C64.8832 14.5167 160.275 -10.8917 166.667 58.3333C166.653 69.38 162.259 79.9704 154.448 87.7815C146.637 95.5927 136.047 99.9868 125 100C118.369 100 112.011 97.3661 107.322 92.6777C102.634 87.9893 99.9999 81.6304 99.9999 75C99.9999 68.3696 102.634 62.0107 107.322 57.3223C112.011 52.6339 118.369 50 125 50C127.166 50.1358 129.207 51.0574 130.742 52.5917C132.276 54.1261 133.197 56.1677 133.333 58.3333C133.333 60.5435 132.455 62.6631 130.892 64.2259C129.33 65.7887 127.21 66.6667 125 66.6667C122.79 66.6667 120.67 67.5446 119.107 69.1075C117.545 70.6703 116.667 72.7899 116.667 75C116.667 77.2101 117.545 79.3298 119.107 80.8926C120.67 82.4554 122.79 83.3333 125 83.3333C131.63 83.3333 137.989 80.6994 142.678 76.011C147.366 71.3226 150 64.9638 150 58.3333C150 51.7029 147.366 45.3441 142.678 40.6557C137.989 35.9673 131.63 33.3333 125 33.3333C113.953 33.3466 103.363 37.7407 95.5517 45.5518C87.7406 53.363 83.3465 63.9534 83.3332 75C88.3832 139.9 176.667 121.9 182.667 66.6667C183.848 74.9378 183.241 83.3662 180.887 91.3827C178.533 99.3993 174.486 106.817 169.02 113.137C163.554 119.456 156.796 124.528 149.202 128.013C141.608 131.497 133.355 133.311 125 133.333Z" fill="black"/>
</g>
<defs>
<clipPath id="clip0_364_1985">
<rect width="200" height="200" fill="white"/>
</clipPath>
</defs>
</svg>
