<svg width="200" height="200" viewBox="0 0 200 200" fill="none" xmlns="http://www.w3.org/2000/svg">
<g clip-path="url(#clip0_444_1457)">
<path d="M133.333 58.3333L133.142 48.525C138.734 46.6125 143.465 42.7758 146.491 37.6992C149.517 32.6225 150.641 26.6361 149.663 20.8075C148.685 14.9789 145.668 9.68722 141.151 5.87619C136.634 2.06517 130.91 -0.0173778 125 -1.43642e-05H75C69.1098 -0.0111754 63.4057 2.06265 58.898 5.85414C54.3903 9.64564 51.3699 14.9101 50.3718 20.7152C49.3737 26.5202 50.4622 32.4912 53.4447 37.5705C56.4271 42.6499 61.111 46.5098 66.6667 48.4667V58.3333C55.62 58.3466 45.0296 62.7407 37.2185 70.5518C29.4073 78.363 25.0132 88.9534 25 100V158.333C25.0132 169.38 29.4073 179.97 37.2185 187.782C45.0296 195.593 55.62 199.987 66.6667 200H133.333C144.38 199.987 154.97 195.593 162.782 187.782C170.593 179.97 174.987 169.38 175 158.333V100C174.987 88.9534 170.593 78.363 162.782 70.5518C154.97 62.7407 144.38 58.3466 133.333 58.3333ZM75 16.6667H125C127.21 16.6667 129.33 17.5446 130.893 19.1074C132.455 20.6702 133.333 22.7898 133.333 25C133.333 27.2101 132.455 29.3297 130.893 30.8925C129.33 32.4553 127.21 33.3333 125 33.3333H75C72.7899 33.3333 70.6702 32.4553 69.1074 30.8925C67.5446 29.3297 66.6667 27.2101 66.6667 25C66.6667 22.7898 67.5446 20.6702 69.1074 19.1074C70.6702 17.5446 72.7899 16.6667 75 16.6667ZM158.333 158.333C158.333 164.964 155.699 171.323 151.011 176.011C146.323 180.699 139.964 183.333 133.333 183.333H66.6667C60.0363 183.333 53.6774 180.699 48.989 176.011C44.3006 171.323 41.6667 164.964 41.6667 158.333V100C41.6667 93.3696 44.3006 87.0107 48.989 82.3223C53.6774 77.6339 60.0363 75 66.6667 75H75C77.2101 75 79.3297 74.122 80.8926 72.5592C82.4554 70.9964 83.3333 68.8768 83.3333 66.6667V50H116.442L116.667 66.7833C116.697 68.9732 117.589 71.0629 119.148 72.6006C120.708 74.1383 122.81 75.0002 125 75H133.333C139.964 75 146.323 77.6339 151.011 82.3223C155.699 87.0107 158.333 93.3696 158.333 100V158.333ZM133.333 125C133.333 127.21 132.455 129.33 130.893 130.893C129.33 132.455 127.21 133.333 125 133.333H108.333V150C108.333 152.21 107.455 154.33 105.893 155.893C104.33 157.455 102.21 158.333 100 158.333C97.7899 158.333 95.6702 157.455 94.1074 155.893C92.5446 154.33 91.6667 152.21 91.6667 150V133.333H75C72.7899 133.333 70.6702 132.455 69.1074 130.893C67.5446 129.33 66.6667 127.21 66.6667 125C66.6667 122.79 67.5446 120.67 69.1074 119.107C70.6702 117.545 72.7899 116.667 75 116.667H91.6667V100C91.6667 97.7899 92.5446 95.6702 94.1074 94.1074C95.6702 92.5446 97.7899 91.6667 100 91.6667C102.21 91.6667 104.33 92.5446 105.893 94.1074C107.455 95.6702 108.333 97.7899 108.333 100V116.667H125C127.21 116.667 129.33 117.545 130.893 119.107C132.455 120.67 133.333 122.79 133.333 125Z" fill="black"/>
</g>
<defs>
<clipPath id="clip0_444_1457">
<rect width="200" height="200" fill="white"/>
</clipPath>
</defs>
</svg>
