<svg width="200" height="200" viewBox="0 0 200 200" fill="none" xmlns="http://www.w3.org/2000/svg">
<g clip-path="url(#clip0_364_1981)">
<path d="M125 41.6667C125 43.8768 124.122 45.9964 122.559 47.5592C120.996 49.122 118.877 50 116.667 50H83.3333C81.1231 50 79.0035 49.122 77.4407 47.5592C75.8779 45.9964 74.9999 43.8768 74.9999 41.6667C74.9999 39.4565 75.8779 37.3369 77.4407 35.7741C79.0035 34.2113 81.1231 33.3333 83.3333 33.3333H116.667C118.877 33.3333 120.996 34.2113 122.559 35.7741C124.122 37.3369 125 39.4565 125 41.6667ZM175 47.6667V134.808C174.997 145.279 171.052 155.365 163.95 163.058L174.367 188.508C174.781 189.522 174.991 190.607 174.986 191.701C174.981 192.796 174.76 193.879 174.337 194.889C173.913 195.898 173.295 196.814 172.517 197.585C171.739 198.355 170.817 198.965 169.804 199.379C168.791 199.793 167.706 200.004 166.611 199.999C165.516 199.994 164.433 199.773 163.424 199.349C162.414 198.926 161.498 198.307 160.728 197.53C159.957 196.752 159.347 195.83 158.933 194.817L150 172.875C134.349 180.128 117.246 183.706 99.9999 183.333C82.7541 183.703 65.652 180.125 49.9999 172.875L41.0583 194.817C40.6544 195.844 40.0504 196.781 39.2814 197.573C38.5124 198.365 37.5937 198.996 36.5786 199.43C35.5636 199.864 34.4724 200.092 33.3685 200.101C32.2646 200.11 31.1699 199.899 30.1481 199.481C29.1263 199.063 28.1977 198.447 27.4163 197.667C26.6348 196.887 26.0161 195.96 25.5961 194.939C25.176 193.918 24.963 192.824 24.9694 191.72C24.9758 190.616 25.2014 189.524 25.6333 188.508L36.0416 163.058C28.9426 155.363 25.0006 145.278 24.9999 134.808V47.6667C24.9726 38.8287 27.7665 30.2126 32.9748 23.0723C38.1832 15.9319 45.5342 10.64 53.9583 7.96667C68.8073 2.97035 84.3354 0.283489 99.9999 0C115.665 0.281168 131.194 2.97097 146.042 7.975C154.466 10.6445 161.819 15.9343 167.027 23.0737C172.236 30.2131 175.029 38.8291 175 47.6667ZM158.333 97.8083C145.392 117.208 125.417 133.333 99.9999 133.333C74.5833 133.333 54.6083 117.208 41.6666 97.8083V134.808C41.6271 139.226 42.7757 143.574 44.9924 147.396C47.209 151.218 50.4122 154.374 54.2666 156.533C68.4179 163.699 84.1463 167.184 99.9999 166.667C115.851 167.186 131.577 163.701 145.725 156.533C149.582 154.375 152.787 151.22 155.005 147.398C157.223 143.576 158.373 139.227 158.333 134.808V97.8083ZM158.333 50V47.6667C158.352 42.3661 156.678 37.1981 153.556 32.9145C150.434 28.6309 146.027 25.4554 140.975 23.85C127.764 19.3741 113.945 16.9515 99.9999 16.6667C86.0555 16.9535 72.2371 19.3732 59.0249 23.8417C53.9734 25.4498 49.5664 28.6271 46.4446 32.9119C43.3229 37.1966 41.6491 42.3653 41.6666 47.6667V50C41.6666 70.3583 63.7083 116.667 99.9999 116.667C136.292 116.667 158.333 70.3583 158.333 50ZM99.9999 141.667C98.3518 141.667 96.7406 142.155 95.3702 143.071C93.9998 143.987 92.9317 145.288 92.3009 146.811C91.6702 148.334 91.5052 150.009 91.8267 151.626C92.1483 153.242 92.9419 154.727 94.1074 155.893C95.2728 157.058 96.7577 157.852 98.3742 158.173C99.9907 158.495 101.666 158.33 103.189 157.699C104.712 157.068 106.013 156 106.929 154.63C107.845 153.259 108.333 151.648 108.333 150C108.333 147.79 107.455 145.67 105.892 144.107C104.33 142.545 102.21 141.667 99.9999 141.667Z" fill="black"/>
</g>
<defs>
<clipPath id="clip0_364_1981">
<rect width="200" height="200" fill="white"/>
</clipPath>
</defs>
</svg>
