<svg width="200" height="200" viewBox="0 0 200 200" fill="none" xmlns="http://www.w3.org/2000/svg">
<g clip-path="url(#clip0_444_1473)">
<path d="M200 95.8334C199.996 90.0865 198.293 84.469 195.107 79.6862C191.921 74.9033 187.393 71.1683 182.092 68.95C178.708 49.6364 168.623 32.1343 153.609 19.5223C138.596 6.91028 119.616 -0.00378418 100.008 -0.00378418C80.4006 -0.00378418 61.4208 6.91028 46.4073 19.5223C31.3939 32.1343 21.3085 49.6364 17.9251 68.95C11.8751 71.4953 6.86048 76.0068 3.69211 81.7551C0.523744 87.5033 -0.613148 94.1522 0.465274 100.627C1.5437 107.101 4.77438 113.022 9.63492 117.433C14.4955 121.844 20.7017 124.487 27.2501 124.933C31.5541 134.067 37.3914 142.396 44.5084 149.558C34.0799 160.945 27.4617 175.3 25.5751 190.625C25.4385 191.711 25.5173 192.814 25.8069 193.869C26.0966 194.925 26.5914 195.913 27.2631 196.778C27.9349 197.642 28.7703 198.366 29.7218 198.907C30.6733 199.449 31.7221 199.797 32.8084 199.933C33.1513 199.975 33.4963 199.997 33.8417 200C35.8698 199.998 37.8274 199.256 39.3477 197.914C40.868 196.571 41.8466 194.721 42.1001 192.708C43.6109 180.626 48.9052 169.332 57.2251 160.442C69.6345 169.602 84.5792 174.688 100 175C115.375 174.685 130.276 169.62 142.658 160.5C150.942 169.375 156.215 180.637 157.725 192.683C157.977 194.697 158.954 196.55 160.475 197.894C161.995 199.238 163.954 199.981 165.983 199.983C166.332 199.982 166.679 199.959 167.025 199.917C169.217 199.642 171.211 198.508 172.567 196.764C173.923 195.02 174.532 192.809 174.258 190.617C172.385 175.331 165.8 161.007 155.417 149.633C162.573 142.449 168.442 134.089 172.767 124.917C180.148 124.426 187.067 121.15 192.123 115.75C197.18 110.35 199.995 103.231 200 95.8334ZM168.733 108.108C166.79 107.752 164.783 108.103 163.075 109.098C161.368 110.094 160.073 111.667 159.425 113.533C151.792 135.183 126.083 158.333 100 158.333C73.9167 158.333 48.2084 135.167 40.5751 113.517C39.9254 111.651 38.6303 110.079 36.9234 109.084C35.2165 108.089 33.2103 107.737 31.2667 108.092C30.5742 108.227 29.872 108.308 29.1667 108.333C26.0733 108.296 23.1035 107.114 20.8316 105.014C18.5597 102.914 17.1473 100.046 16.8674 96.9652C16.5875 93.8842 17.46 90.8089 19.3163 88.334C21.1725 85.8591 23.8806 84.1605 26.9167 83.5667C28.6885 83.2455 30.3086 82.3591 31.5344 81.0401C32.7603 79.7211 33.5259 78.0406 33.7167 76.25C34.8297 65.5943 38.5068 55.3666 44.4336 46.4415C50.3604 37.5165 58.3606 30.1596 67.7501 25C66.3856 30.3009 66.3227 35.853 67.5667 41.1834C69.261 48.2325 73.2072 54.5371 78.8073 59.1414C84.4073 63.7458 91.3558 66.3988 98.5995 66.6985C105.843 66.9981 112.987 64.9279 118.948 60.8018C124.909 56.6756 129.363 50.7185 131.633 43.8334C132.004 42.6103 132.081 41.3172 131.859 40.0588C131.636 38.8004 131.121 37.6119 130.354 36.5896C129.587 35.5673 128.591 34.7398 127.445 34.1741C126.299 33.6084 125.036 33.3204 123.758 33.3334H122.5C120.967 33.3836 119.49 33.9202 118.283 34.8655C117.075 35.8108 116.2 37.1158 115.783 38.5917C114.815 41.5051 113.06 44.0944 110.713 46.0738C108.366 48.0532 105.518 49.3458 102.483 49.8091C99.4479 50.2724 96.3438 49.8884 93.5132 48.6993C90.6826 47.5103 88.2354 45.5624 86.4416 43.0707C84.6479 40.5789 83.5773 37.6401 83.3479 34.5784C83.1185 31.5168 83.7393 28.4513 85.1418 25.7201C86.5443 22.9889 88.6739 20.6981 91.2958 19.1006C93.9176 17.5031 96.9298 16.6608 100 16.6667C116.465 16.6273 132.359 22.6992 144.605 33.7066C156.85 44.714 164.575 59.8736 166.283 76.25C166.474 78.0406 167.24 79.7211 168.466 81.0401C169.692 82.3591 171.312 83.2455 173.083 83.5667C176.12 84.1605 178.828 85.8591 180.684 88.334C182.54 90.8089 183.413 93.8842 183.133 96.9652C182.853 100.046 181.44 102.914 179.169 105.014C176.897 107.114 173.927 108.296 170.833 108.333C170.129 108.314 169.426 108.239 168.733 108.108Z" fill="black"/>
<path d="M79.1667 108.333C86.0703 108.333 91.6667 102.737 91.6667 95.8334C91.6667 88.9298 86.0703 83.3334 79.1667 83.3334C72.2632 83.3334 66.6667 88.9298 66.6667 95.8334C66.6667 102.737 72.2632 108.333 79.1667 108.333Z" fill="black"/>
<path d="M120.833 108.333C127.737 108.333 133.333 102.737 133.333 95.8334C133.333 88.9298 127.737 83.3334 120.833 83.3334C113.93 83.3334 108.333 88.9298 108.333 95.8334C108.333 102.737 113.93 108.333 120.833 108.333Z" fill="black"/>
</g>
<defs>
<clipPath id="clip0_444_1473">
<rect width="200" height="200" fill="white"/>
</clipPath>
</defs>
</svg>
