<svg width="200" height="200" viewBox="0 0 200 200" fill="none" xmlns="http://www.w3.org/2000/svg">
<g clip-path="url(#clip0_364_1987)">
<path d="M186.458 31.5417C173.993 24.4459 160.281 19.8093 146.067 17.8834C143.915 13.7423 140.92 10.0975 137.275 7.18337C133.35 4.06194 128.765 1.87479 123.869 0.787608C118.973 -0.299575 113.894 -0.258279 109.017 0.908367C98.5915 3.53898 88.4804 7.28562 78.8583 12.0834C72.0276 8.83572 64.3981 7.6507 56.9041 8.67348C49.4102 9.69626 42.3772 12.8824 36.6666 17.8417C33.6083 20.4667 30.5333 23.2084 27.5 26.0334C24.3166 29.025 21.075 32.425 17.8416 36.1167C13.7903 40.7485 10.899 46.2776 9.40655 52.2475C7.91408 58.2174 7.86327 64.4567 9.2583 70.45C9.90231 73.2792 10.8553 76.029 12.1 78.65C7.26966 88.3404 3.49251 98.5208 0.833299 109.017C-0.338349 113.894 -0.382156 118.974 0.705212 123.871C1.79258 128.768 3.98247 133.352 7.1083 137.275C10.0528 140.958 13.7452 143.975 17.9416 146.125C19.8726 160.318 24.5062 174.01 31.5916 186.458C34.3407 191.397 38.6021 195.323 43.7489 197.658C48.8958 199.994 54.6564 200.616 60.1833 199.433C65.9004 198.301 71.1016 195.36 75.0183 191.044C78.935 186.728 81.3594 181.267 81.9333 175.467C83.4888 164.739 86.3084 154.232 90.3333 144.167C90.3333 144.167 94.875 141.367 96.95 139.675C101.946 135.484 105.492 129.824 107.083 123.5C110.936 122.225 114.439 120.071 117.317 117.208C120.119 114.356 122.239 110.906 123.517 107.117C129.819 105.518 135.458 101.975 139.633 96.9917C141.3 94.9167 144.133 90.3667 144.133 90.3667C154.177 86.2337 164.706 83.397 175.467 81.925C181.266 81.3512 186.728 78.9267 191.044 75.01C195.36 71.0933 198.301 65.8921 199.433 60.175C200.635 54.6417 200.022 48.8683 197.685 43.7107C195.348 38.5531 191.411 34.2859 186.458 31.5417ZM65.325 173.608C65.1244 175.907 64.1806 178.077 62.6364 179.791C61.0922 181.505 59.0317 182.67 56.7666 183.108C54.6824 183.583 52.5 183.358 50.5558 182.47C48.6117 181.581 47.0137 180.078 46.0083 178.192C40.9966 169.414 37.405 159.9 35.3666 150H67.8666C68.775 150 69.6583 149.817 70.5583 149.767C68.175 157.125 65.325 173.575 65.325 173.608ZM86.4083 126.725C81.1761 130.991 74.6342 133.325 67.8833 133.333H33.3333C30.7984 133.339 28.2956 132.766 26.0154 131.658C23.7352 130.551 21.7378 128.938 20.175 126.942C18.6161 124.989 17.523 122.706 16.9786 120.267C16.4342 117.828 16.4529 115.297 17.0333 112.867C18.7016 106.139 20.9317 99.5631 23.7 93.2084C26.2726 95.2216 29.0894 96.9016 32.0833 98.2084L87.725 122.575C88.2416 122.817 88.7916 122.908 89.3166 123.108C88.5709 124.478 87.5859 125.703 86.4083 126.725ZM105.45 105.458C104.058 106.87 102.262 107.816 100.31 108.165C98.3578 108.514 96.3455 108.25 94.55 107.408L38.775 82.9834C35.4495 81.5263 32.5177 79.3 30.2213 76.4878C27.9249 73.6756 26.3295 70.358 25.5666 66.8084C24.7578 63.3676 24.7789 59.7837 25.6279 56.3526C26.477 52.9216 28.1298 49.7415 30.45 47.075C33.3333 43.7917 36.1833 40.7917 38.975 38.1667C41.7666 35.5417 44.6583 32.9584 47.5333 30.5C50.1865 28.1909 53.3468 26.5398 56.7576 25.6807C60.1685 24.8216 63.7338 24.7788 67.1643 25.5556C70.5948 26.3325 73.7939 27.9072 76.5018 30.1519C79.2098 32.3966 81.3504 35.2481 82.75 38.475L107.45 94.225C108.276 96.0831 108.527 98.1461 108.171 100.148C107.815 102.15 106.867 104 105.45 105.458ZM133.333 67.8834C133.328 74.6334 130.997 81.1754 126.733 86.4084C125.759 87.5365 124.601 88.4917 123.308 89.2334C123.092 88.65 122.933 88.05 122.683 87.475L97.9916 31.7334C96.7434 28.9033 95.1718 26.2271 93.3083 23.7584C99.6314 20.9971 106.173 18.7672 112.867 17.0917C115.297 16.5101 117.828 16.4908 120.267 17.0352C122.706 17.5796 124.989 18.6734 126.942 20.2334C128.942 21.7996 130.558 23.8024 131.666 26.0888C132.773 28.3751 133.344 30.8845 133.333 33.425V67.8834ZM183.108 56.7667C182.67 59.0317 181.505 61.0922 179.791 62.6364C178.077 64.1806 175.907 65.1244 173.608 65.325C173.608 65.325 157.125 68.175 149.767 70.575C149.825 69.675 150 68.7917 150 67.8834V35.3834C159.9 37.4217 169.414 41.0134 178.192 46.025C180.072 47.0328 181.57 48.6285 182.458 50.5682C183.346 52.5079 183.574 54.685 183.108 56.7667Z" fill="black"/>
</g>
<defs>
<clipPath id="clip0_364_1987">
<rect width="200" height="200" fill="white"/>
</clipPath>
</defs>
</svg>
