<svg width="200" height="200" viewBox="0 0 200 200" fill="none" xmlns="http://www.w3.org/2000/svg">
<g clip-path="url(#clip0_364_1882)">
<path d="M91.6666 50C91.6666 52.2102 90.7887 54.3298 89.2258 55.8926C87.663 57.4554 85.5434 58.3334 83.3333 58.3334C81.1232 58.3334 79.0035 59.2113 77.4407 60.7741C75.8779 62.337 75 64.4566 75 66.6667C75 68.8768 74.122 70.9965 72.5592 72.5593C70.9964 74.1221 68.8768 75 66.6666 75C64.4565 75 62.3369 74.1221 60.7741 72.5593C59.2113 70.9965 58.3333 68.8768 58.3333 66.6667C58.3333 60.0363 60.9672 53.6774 65.6556 48.989C70.344 44.3006 76.7029 41.6667 83.3333 41.6667C85.5434 41.6667 87.663 42.5447 89.2258 44.1075C90.7887 45.6703 91.6666 47.7899 91.6666 50ZM116.667 58.3334C114.456 58.3334 112.337 59.2113 110.774 60.7741C109.211 62.337 108.333 64.4566 108.333 66.6667C108.333 68.8768 109.211 70.9965 110.774 72.5593C112.337 74.1221 114.456 75 116.667 75C118.877 75 120.996 75.878 122.559 77.4408C124.122 79.0036 125 81.1232 125 83.3334C125 85.5435 125.878 87.6631 127.441 89.2259C129.004 90.7887 131.123 91.6667 133.333 91.6667C135.543 91.6667 137.663 90.7887 139.226 89.2259C140.789 87.6631 141.667 85.5435 141.667 83.3334C141.667 76.703 139.033 70.3441 134.344 65.6557C129.656 60.9673 123.297 58.3334 116.667 58.3334ZM182.692 112.383L171.858 166.55C169.941 175.976 164.83 184.452 157.388 190.547C149.945 196.641 140.628 199.98 131.008 200H68.9916C59.3694 199.974 50.0511 196.627 42.6112 190.525C35.1714 184.423 30.0662 175.94 28.1583 166.508L17.325 112.342C12.2027 109.455 7.93346 105.267 4.94893 100.201C1.96441 95.1352 0.370415 89.3711 0.328134 83.4916C0.285854 77.6121 1.79678 71.8256 4.70815 66.7174C7.61951 61.6091 11.8281 57.3601 16.9083 54.4C17.7631 47.286 20.8835 40.6356 25.8086 35.4314C30.7337 30.2272 37.2021 26.7453 44.2583 25.5C46.8265 19.6922 51.2423 14.896 56.8186 11.8577C62.3949 8.81931 68.8191 7.7092 75.0916 8.70003C78.3989 5.40034 82.447 2.93907 86.8986 1.52143C91.3501 0.103797 96.0761 -0.229126 100.682 0.550419C105.289 1.32996 109.642 3.19939 113.379 6.00284C117.116 8.80628 120.129 12.4625 122.167 16.6667C129.774 17.0257 136.934 20.3634 142.1 25.9584C146.682 24.8544 151.446 24.732 156.079 25.5992C160.712 26.4665 165.109 28.3038 168.982 30.9905C172.854 33.6772 176.115 37.1526 178.55 41.1885C180.984 45.2244 182.538 49.7296 183.108 54.4084C188.196 57.3662 192.412 61.6162 195.329 66.7279C198.246 71.8397 199.76 77.6315 199.718 83.5167C199.675 89.402 198.078 95.1714 195.088 100.241C192.098 105.31 187.822 109.499 182.692 112.383ZM70.7 183.333L66.6666 133.85C66.7141 131.624 66.3193 129.41 65.505 127.338C64.6906 125.265 63.473 123.375 61.9227 121.777C60.3724 120.179 58.5203 118.904 56.4736 118.027C54.427 117.149 52.2266 116.687 50 116.667H35.1666L44.475 163.233C45.7002 169.176 49.0255 174.479 53.8417 178.171C58.6579 181.862 64.6426 183.695 70.7 183.333ZM112.133 183.333L116.667 133.15C116.642 128.73 114.863 124.5 111.72 121.392C108.577 118.283 104.329 116.551 99.9083 116.575C95.488 116.599 91.2584 118.379 88.15 121.521C85.0416 124.664 83.309 128.913 83.3333 133.333L87.3916 183.333H112.133ZM164.833 116.667H150C145.58 116.667 141.34 118.423 138.215 121.548C135.089 124.674 133.333 128.913 133.333 133.333L128.858 183.333C134.985 183.789 141.069 182.002 145.975 178.303C150.882 174.605 154.276 169.249 155.525 163.233L164.833 116.667ZM183.333 83.3334C183.312 79.9017 182.233 76.5601 180.241 73.765C178.25 70.97 175.445 68.8577 172.208 67.7167C170.587 67.1404 169.184 66.0764 168.192 64.6709C167.2 63.2653 166.667 61.5872 166.667 59.8667C166.895 56.9339 166.347 53.9926 165.079 51.3384C163.81 48.6842 161.866 46.4103 159.441 44.7452C157.016 43.0801 154.195 42.0823 151.263 41.852C148.33 41.6218 145.389 42.1671 142.733 43.4334C140.804 44.3778 138.585 44.5409 136.539 43.8888C134.492 43.2367 132.777 41.8197 131.75 39.9334C130.691 37.9544 129.118 36.2973 127.197 35.136C125.276 33.9746 123.078 33.352 120.833 33.3334C119.587 33.8526 118.243 34.0977 116.894 34.052C115.544 34.0064 114.22 33.671 113.012 33.0688C111.804 32.4665 110.739 31.6114 109.89 30.5614C109.041 29.5114 108.428 28.2912 108.092 26.9834C107.625 24.5221 106.429 22.2579 104.659 20.4845C102.89 18.7112 100.628 17.5104 98.1682 17.0379C95.7079 16.5654 93.1625 16.8431 90.862 17.8349C88.5615 18.8267 86.6121 20.4868 85.2666 22.6C81.5666 28.5834 76.0166 25.8334 70.8333 25C67.9517 24.9994 65.1583 25.9945 62.926 27.8168C60.6938 29.639 59.1596 32.1766 58.5833 35C58.1803 37.0182 57.0447 38.8159 55.3953 40.0468C53.7459 41.2777 51.6994 41.8547 49.65 41.6667C45.2906 41.7583 41.1408 43.5546 38.0905 46.6703C35.0402 49.786 33.3323 53.9731 33.3333 58.3334C33.6117 60.2942 33.2147 62.2913 32.2076 63.9966C31.2005 65.7019 29.6432 67.0138 27.7916 67.7167C24.1516 69.0722 21.0993 71.6564 19.162 75.023C17.2248 78.3896 16.5242 82.3271 17.1813 86.1553C17.8385 89.9836 19.812 93.462 22.7611 95.9899C25.7102 98.5177 29.4496 99.9361 33.3333 100H50C54.7491 100.015 59.4394 101.052 63.7528 103.039C68.0663 105.026 71.902 107.917 75 111.517C78.1193 107.967 81.9586 105.123 86.2626 103.172C90.5666 101.222 95.2365 100.21 99.9618 100.205C104.687 100.199 109.359 101.2 113.668 103.14C117.976 105.081 121.822 107.916 124.95 111.458C128.07 107.877 131.919 105.002 136.239 103.027C140.558 101.051 145.25 100.019 150 100H166.667C171.087 100 175.326 98.2441 178.452 95.1185C181.577 91.9929 183.333 87.7536 183.333 83.3334Z" fill="black"/>
</g>
<defs>
<clipPath id="clip0_364_1882">
<rect width="200" height="200" fill="white"/>
</clipPath>
</defs>
</svg>
