<svg width="200" height="200" viewBox="0 0 200 200" fill="none" xmlns="http://www.w3.org/2000/svg">
<g clip-path="url(#clip0_364_1880)">
<path d="M166.667 83.3333H158.333V66.6667C158.333 48.2833 143.383 33.3333 125 33.3333H116.433C114.35 14.6083 98.4333 0 79.1667 0C59.9 0 43.975 14.6083 41.9 33.3333H33.3333C14.95 33.3333 0 48.2833 0 66.6667V116.667C0 139.642 18.6917 158.333 41.6667 158.333H50C50 181.308 68.6917 200 91.6667 200H158.333C181.308 200 200 181.308 200 158.333V116.667C200 98.2833 185.05 83.3333 166.667 83.3333ZM79.1667 16.6667C89.225 16.6667 97.6417 23.8333 99.5833 33.3333H58.75C60.6833 23.8333 69.1 16.6667 79.1667 16.6667ZM41.6667 141.667C27.8833 141.667 16.6667 130.45 16.6667 116.667V66.6667C16.6667 57.475 24.1417 50 33.3333 50H41.6667V66.6667C41.6667 71.275 45.4 75 50 75C54.6 75 58.3333 71.275 58.3333 66.6667V50H100V66.6667C100 71.275 103.733 75 108.333 75C112.933 75 116.667 71.275 116.667 66.6667V50H125C134.192 50 141.667 57.475 141.667 66.6667V83.3333H83.3333C64.95 83.3333 50 98.2833 50 116.667V141.667H41.6667ZM183.333 158.333C183.333 172.117 172.117 183.333 158.333 183.333H91.6667C77.8833 183.333 66.6667 172.117 66.6667 158.333V116.667C66.6667 107.475 74.1417 100 83.3333 100H166.667C175.858 100 183.333 107.475 183.333 116.667V158.333ZM158.333 125V133.333C158.333 151.717 143.383 166.667 125 166.667C106.617 166.667 91.6667 151.717 91.6667 133.333V125C91.6667 120.392 95.4 116.667 100 116.667C104.6 116.667 108.333 120.392 108.333 125V133.333C108.333 142.525 115.808 150 125 150C134.192 150 141.667 142.525 141.667 133.333V125C141.667 120.392 145.4 116.667 150 116.667C154.6 116.667 158.333 120.392 158.333 125Z" fill="black"/>
</g>
<defs>
<clipPath id="clip0_364_1880">
<rect width="200" height="200" fill="white"/>
</clipPath>
</defs>
</svg>
