<svg width="200" height="200" viewBox="0 0 200 200" fill="none" xmlns="http://www.w3.org/2000/svg">
<g clip-path="url(#clip0_444_1469)">
<path d="M174.167 35.7584C171.232 27.7269 165.902 20.79 158.897 15.8853C151.892 10.9806 143.551 8.34457 135 8.33337H65C56.449 8.34457 48.1076 10.9806 41.103 15.8853C34.0985 20.79 28.7685 27.7269 25.8334 35.7584L3.33337 97.6501C1.12045 103.746 -0.0077061 110.182 3.96155e-05 116.667V125C0.014909 131.44 1.52864 137.788 4.42141 143.542C7.31419 149.296 11.5066 154.297 16.6667 158.15C16.6667 158.217 16.6667 158.267 16.6667 158.333V175C16.6667 181.63 19.3006 187.989 23.989 192.678C28.6774 197.366 35.0363 200 41.6667 200C48.2971 200 54.656 197.366 59.3444 192.678C64.0328 187.989 66.6667 181.63 66.6667 175V166.667H133.333V175C133.333 181.63 135.967 187.989 140.656 192.678C145.344 197.366 151.703 200 158.333 200C164.964 200 171.323 197.366 176.011 192.678C180.699 187.989 183.333 181.63 183.333 175V158.333C183.333 158.267 183.333 158.217 183.333 158.15C188.494 154.297 192.686 149.296 195.579 143.542C198.471 137.788 199.985 131.44 200 125V116.667C200.009 110.184 198.88 103.751 196.667 97.6584L174.167 35.7584ZM41.5167 41.4584C43.2787 36.6431 46.4745 32.4838 50.6734 29.5409C54.8724 26.5981 59.8726 25.0133 65 25H135C140.13 25.0099 145.134 26.5931 149.336 29.5362C153.539 32.4792 156.737 36.6405 158.5 41.4584L176.733 91.6667H23.2584L41.5167 41.4584ZM50 175C50 177.21 49.1221 179.33 47.5593 180.893C45.9965 182.455 43.8768 183.333 41.6667 183.333C39.4566 183.333 37.337 182.455 35.7742 180.893C34.2114 179.33 33.3334 177.21 33.3334 175V165.833C36.0761 166.39 38.868 166.67 41.6667 166.667H50V175ZM166.667 175C166.667 177.21 165.789 179.33 164.226 180.893C162.663 182.455 160.544 183.333 158.333 183.333C156.123 183.333 154.004 182.455 152.441 180.893C150.878 179.33 150 177.21 150 175V166.667H158.333C161.132 166.67 163.924 166.39 166.667 165.833V175ZM183.333 125C183.333 131.63 180.699 137.989 176.011 142.678C171.323 147.366 164.964 150 158.333 150H41.6667C35.0363 150 28.6774 147.366 23.989 142.678C19.3006 137.989 16.6667 131.63 16.6667 125V116.667C16.7007 113.861 17.0388 111.067 17.675 108.333H33.3334V116.667C33.3334 118.877 34.2114 120.996 35.7742 122.559C37.337 124.122 39.4566 125 41.6667 125C43.8768 125 45.9965 124.122 47.5593 122.559C49.1221 120.996 50 118.877 50 116.667V108.333H150V116.667C150 118.877 150.878 120.996 152.441 122.559C154.004 124.122 156.123 125 158.333 125C160.544 125 162.663 124.122 164.226 122.559C165.789 120.996 166.667 118.877 166.667 116.667V108.333H182.325C182.962 111.066 183.3 113.861 183.333 116.667V125Z" fill="black"/>
</g>
<defs>
<clipPath id="clip0_444_1469">
<rect width="200" height="200" fill="white"/>
</clipPath>
</defs>
</svg>
