<svg width="200" height="200" viewBox="0 0 200 200" fill="none" xmlns="http://www.w3.org/2000/svg">
<g clip-path="url(#clip0_444_1467)">
<path d="M185 18.025C180.315 14.1077 174.826 11.2699 168.921 9.71299C163.016 8.15611 156.84 7.91836 150.833 9.01662L118.983 14.8C111.63 16.1503 104.944 19.9335 100 25.5416C95.043 19.9238 88.338 16.1398 80.9667 14.8L49.1667 9.01662C43.1596 7.9174 36.9844 8.15204 31.0781 9.70392C25.1718 11.2558 19.6789 14.087 14.988 17.9971C10.2972 21.9071 6.52322 26.8005 3.93318 32.3308C1.34315 37.8612 0.00040677 43.8932 0 50L0 139.942C0.000478799 149.698 3.42481 159.145 9.67611 166.636C15.9274 174.127 24.6092 179.187 34.2083 180.933L86.5917 190.458C95.458 192.069 104.542 192.069 113.408 190.458L165.833 180.933C175.425 179.178 184.097 174.115 190.34 166.625C196.583 159.135 200.001 149.692 200 139.942V50C200.004 43.8953 198.662 37.8649 196.069 32.3382C193.476 26.8115 189.697 21.9244 185 18.025ZM91.6667 174.4C90.9667 174.3 90.2667 174.183 89.5667 174.058L37.1917 164.542C31.4314 163.494 26.2216 160.457 22.4707 155.962C18.7198 151.466 16.6658 145.796 16.6667 139.942V50C16.6667 43.3695 19.3006 37.0107 23.989 32.3223C28.6774 27.6339 35.0363 25 41.6667 25C43.1758 25.0036 44.6816 25.1402 46.1667 25.4083L78 31.2416C81.8301 31.9425 85.2939 33.9622 87.7904 36.9503C90.2868 39.9384 91.6582 43.7063 91.6667 47.6V174.4ZM183.333 139.942C183.334 145.796 181.28 151.466 177.529 155.962C173.778 160.457 168.569 163.494 162.808 164.542L110.433 174.058C109.733 174.183 109.033 174.3 108.333 174.4V47.6C108.333 43.6967 109.702 39.9171 112.203 36.92C114.703 33.923 118.176 31.8986 122.017 31.1999L153.858 25.3666C157.464 24.7105 161.17 24.8554 164.714 25.7909C168.258 26.7264 171.553 28.4296 174.365 30.78C177.178 33.1304 179.439 36.0704 180.988 39.3918C182.538 42.7132 183.339 46.3348 183.333 50V139.942Z" fill="black"/>
</g>
<defs>
<clipPath id="clip0_444_1467">
<rect width="200" height="200" fill="white"/>
</clipPath>
</defs>
</svg>
