<svg width="200" height="200" viewBox="0 0 200 200" fill="none" xmlns="http://www.w3.org/2000/svg">
<g clip-path="url(#clip0_444_1461)">
<path d="M161.517 78.975C152.508 78.975 144.567 72.5917 142.625 63.8083L140.708 55.125C133.533 22.6667 105.308 0 72.0667 0C32.325 0 0 32.325 0 72.0667V158.333C0 181.308 18.6917 200 41.6667 200H158.333C181.308 200 200 181.308 200 158.333V117.458C200 96.2417 182.733 78.975 161.517 78.975ZM72.0667 16.6667C97.025 16.6667 119.042 34.3583 124.433 58.7167L126.35 67.4C130.025 84.0333 144.492 95.6417 161.517 95.6417C173.55 95.6417 183.333 105.425 183.333 117.458V125H16.6667V72.0667C16.6667 41.5167 41.5167 16.6667 72.0667 16.6667ZM158.333 183.333H41.6667C27.8833 183.333 16.6667 172.117 16.6667 158.333V141.667H41.6667V158.333C41.6667 162.933 45.4 166.667 50 166.667C54.6 166.667 58.3333 162.933 58.3333 158.333V141.667H75V158.333C75 162.933 78.7333 166.667 83.3333 166.667C87.9333 166.667 91.6667 162.933 91.6667 158.333V141.667H108.333V158.333C108.333 162.933 112.067 166.667 116.667 166.667C121.267 166.667 125 162.933 125 158.333V141.667H141.667V158.333C141.667 162.933 145.4 166.667 150 166.667C154.6 166.667 158.333 162.933 158.333 158.333V141.667H183.333V158.333C183.333 172.117 172.117 183.333 158.333 183.333Z" fill="black"/>
</g>
<defs>
<clipPath id="clip0_444_1461">
<rect width="200" height="200" fill="white"/>
</clipPath>
</defs>
</svg>
