<svg width="200" height="200" viewBox="0 0 200 200" fill="none" xmlns="http://www.w3.org/2000/svg">
<g clip-path="url(#clip0_364_1983)">
<path d="M98.5667 137.183C87.3122 121.812 77.055 105.734 67.8584 89.05C80.5417 64.2417 91.6667 34.9083 91.6667 8.33333C91.6667 6.1232 90.7887 4.00358 89.2259 2.44078C87.6631 0.877974 85.5435 0 83.3334 0C81.1233 0 79.0036 0.877974 77.4408 2.44078C75.878 4.00358 75.0001 6.1232 75.0001 8.33333C73.8148 29.9049 68.1531 50.9937 58.3751 70.2583C48.5706 50.9991 42.8806 29.9105 41.6667 8.33333C41.6667 6.1232 40.7887 4.00358 39.2259 2.44078C37.6631 0.877974 35.5435 0 33.3334 0C31.1232 0 29.0036 0.877974 27.4408 2.44078C25.878 4.00358 25 6.1232 25 8.33333C25 34.7833 36.1834 64.1667 48.9001 89.0417C39.7358 105.766 29.4484 121.85 18.1084 137.183C13.7385 139.41 9.9159 142.576 6.91499 146.455C3.91409 150.334 1.80938 154.83 0.752016 159.619C-0.305351 164.408 -0.289142 169.371 0.799481 174.153C1.8881 178.935 4.02213 183.417 7.0483 187.276C10.0745 191.136 13.9177 194.277 18.302 196.475C22.6863 198.672 27.5029 199.872 32.4058 199.988C37.3088 200.103 42.1765 199.131 46.6593 197.142C51.1422 195.153 55.129 192.196 58.3334 188.483C61.5398 192.186 65.5257 195.134 70.0054 197.116C74.4851 199.097 79.3477 200.063 84.2446 199.944C89.1415 199.825 93.9515 198.625 98.3298 196.428C102.708 194.231 106.546 191.094 109.569 187.239C112.592 183.385 114.725 178.909 115.815 174.134C116.904 169.358 116.924 164.401 115.873 159.617C114.821 154.832 112.724 150.34 109.732 146.462C106.74 142.583 102.927 139.415 98.5667 137.183ZM33.3334 183.333C30.037 183.333 26.8147 182.356 24.0739 180.524C21.3331 178.693 19.1968 176.09 17.9354 173.045C16.6739 169.999 16.3439 166.648 16.987 163.415C17.63 160.182 19.2174 157.212 21.5483 154.882C23.8791 152.551 26.8489 150.963 30.0819 150.32C33.3149 149.677 36.666 150.007 39.7114 151.269C42.7569 152.53 45.3599 154.666 47.1912 157.407C49.0226 160.148 50 163.37 50 166.667C50 171.087 48.2441 175.326 45.1185 178.452C41.9929 181.577 37.7537 183.333 33.3334 183.333ZM40.6917 134.208C45.5667 127.175 51.8334 117.617 58.3751 106.358C64.9084 117.608 71.1584 127.192 76.0167 134.2C69.1403 135.781 62.9464 139.511 58.3334 144.85C53.7282 139.524 47.5509 135.798 40.6917 134.208ZM83.3334 183.333C80.037 183.333 76.8147 182.356 74.0739 180.524C71.3331 178.693 69.1969 176.09 67.9354 173.045C66.6739 169.999 66.3439 166.648 66.987 163.415C67.6301 160.182 69.2174 157.212 71.5483 154.882C73.8792 152.551 76.8489 150.963 80.0819 150.32C83.3149 149.677 86.666 150.007 89.7114 151.269C92.7569 152.53 95.3599 154.666 97.1912 157.407C99.0226 160.148 100 163.37 100 166.667C100 171.087 98.2441 175.326 95.1185 178.452C91.9929 181.577 87.7537 183.333 83.3334 183.333ZM150 50V66.6667H191.667C193.877 66.6667 195.996 67.5446 197.559 69.1074C199.122 70.6702 200 72.7899 200 75C200 77.2101 199.122 79.3298 197.559 80.8926C195.996 82.4554 193.877 83.3333 191.667 83.3333H150V100H191.667C193.877 100 195.996 100.878 197.559 102.441C199.122 104.004 200 106.123 200 108.333C200 110.543 199.122 112.663 197.559 114.226C195.996 115.789 193.877 116.667 191.667 116.667H150V133.333H191.667C193.877 133.333 195.996 134.211 197.559 135.774C199.122 137.337 200 139.457 200 141.667C200 143.877 199.122 145.996 197.559 147.559C195.996 149.122 193.877 150 191.667 150H150V191.667C150 193.877 149.122 195.996 147.559 197.559C145.996 199.122 143.877 200 141.667 200C139.457 200 137.337 199.122 135.774 197.559C134.211 195.996 133.333 193.877 133.333 191.667V41.6667C133.347 30.62 137.741 20.0296 145.552 12.2185C153.363 4.40735 163.953 0.0132321 175 0L191.667 0C193.877 0 195.996 0.877974 197.559 2.44078C199.122 4.00358 200 6.1232 200 8.33333C200 10.5435 199.122 12.6631 197.559 14.2259C195.996 15.7887 193.877 16.6667 191.667 16.6667H175C169.848 16.688 164.828 18.3007 160.628 21.2841C156.427 24.2674 153.251 28.4758 151.533 33.3333H191.667C193.877 33.3333 195.996 34.2113 197.559 35.7741C199.122 37.3369 200 39.4565 200 41.6667C200 43.8768 199.122 45.9964 197.559 47.5592C195.996 49.122 193.877 50 191.667 50H150Z" fill="black"/>
</g>
<defs>
<clipPath id="clip0_364_1983">
<rect width="200" height="200" fill="white"/>
</clipPath>
</defs>
</svg>
