<svg width="200" height="200" viewBox="0 0 200 200" fill="none" xmlns="http://www.w3.org/2000/svg">
<g clip-path="url(#clip0_367_4481)">
<path d="M158.333 100H136.55L141.05 63.9083C141.836 60.2575 141.799 56.4774 140.942 52.8427C140.084 49.208 138.428 45.81 136.092 42.8956C133.757 39.9812 130.802 37.6235 127.442 35.994C124.082 34.3644 120.401 33.5039 116.667 33.475H96.925C97.8333 27.05 97.2833 16.75 106.375 16.7083H133.333C135.543 16.7083 137.663 15.8303 139.226 14.2675C140.789 12.7047 141.667 10.5851 141.667 8.37496C141.667 6.16482 140.789 4.04521 139.226 2.4824C137.663 0.9196 135.543 0.041626 133.333 0.041626H106.375C100.284 0.0453754 94.4041 2.2726 89.8392 6.30505C85.2743 10.3375 82.3386 15.8977 81.5833 21.9416L80.1416 33.475H25C21.34 33.5142 17.7325 34.3511 14.4291 35.9272C11.1256 37.5034 8.20556 39.781 5.87243 42.6012C3.53929 45.4214 1.84919 48.7165 0.91989 52.2568C-0.00940963 55.7971 -0.155551 59.4974 0.491649 63.1L13.1 163.583C14.3749 173.648 19.2744 182.902 26.881 189.615C34.4877 196.327 44.2801 200.037 54.425 200.05L158.333 199.95C163.805 199.95 169.223 198.872 174.278 196.778C179.334 194.684 183.927 191.615 187.796 187.746C191.665 183.877 194.734 179.284 196.828 174.228C198.922 169.173 200 163.755 200 158.283V141.667C200 136.195 198.922 130.777 196.828 125.721C194.734 120.666 191.665 116.073 187.796 112.204C183.927 108.335 179.334 105.266 174.278 103.172C169.223 101.078 163.805 100 158.333 100ZM183.333 141.667H83.3333C83.3333 135.036 85.9672 128.677 90.6556 123.989C95.344 119.301 101.703 116.667 108.333 116.667H158.333C164.964 116.667 171.323 119.301 176.011 123.989C180.699 128.677 183.333 135.036 183.333 141.667ZM116.667 50.1333C117.983 50.1404 119.28 50.4559 120.452 51.0546C121.625 51.6533 122.641 52.5184 123.419 53.5807C124.196 54.6429 124.714 55.8726 124.931 57.1712C125.148 58.4697 125.057 59.801 124.667 61.0583L123.942 66.6666H92.775L94.8416 50.1166L116.667 50.1333ZM18.5333 53.25C19.3108 52.2814 20.295 51.4989 21.4139 50.9596C22.5327 50.4204 23.758 50.138 25 50.1333H78.0583L75.9833 66.6666H17.7L16.8666 60.25C16.5995 59.033 16.6107 57.7714 16.8993 56.5593C17.1879 55.3472 17.7464 54.216 18.5333 53.25ZM29.6333 161.517L19.8 83.3333H121.858L119.767 100H108.333C97.2826 100 86.6845 104.39 78.8705 112.204C71.0565 120.018 66.6666 130.616 66.6666 141.667C66.3166 155.283 65.8333 172.833 75.3 183.417H54.425C48.3341 183.413 42.4541 181.186 37.8892 177.153C33.3243 173.121 30.3886 167.561 29.6333 161.517ZM158.333 183.333H108.333C101.703 183.333 95.344 180.699 90.6556 176.011C85.9672 171.323 83.3333 164.964 83.3333 158.333H114.167C117.392 159.883 138.125 175.925 141.667 175C145.133 175.983 166.083 159.808 169.167 158.333H183.333C183.333 164.964 180.699 171.323 176.011 176.011C171.323 180.699 164.964 183.333 158.333 183.333Z" fill="black"/>
</g>
<defs>
<clipPath id="clip0_367_4481">
<rect width="200" height="200" fill="white"/>
</clipPath>
</defs>
</svg>
