<svg width="200" height="200" viewBox="0 0 200 200" fill="none" xmlns="http://www.w3.org/2000/svg">
<g clip-path="url(#clip0_367_1869)">
<path d="M41.7083 199.933C24.8667 199.1 9.44165 182.625 2.20832 168.592C0.454609 164.502 -0.194381 160.024 0.326284 155.605C0.846949 151.186 2.51901 146.981 5.17516 143.411C7.83132 139.841 11.3784 137.031 15.4616 135.262C19.5447 133.494 24.0207 132.829 28.4417 133.333C7.00832 75.2083 75.25 7.04165 133.333 28.4417C132.829 24.0207 133.494 19.5447 135.262 15.4616C137.031 11.3784 139.841 7.83132 143.411 5.17517C146.981 2.51901 151.186 0.846949 155.605 0.326284C160.024 -0.194381 164.502 0.454609 168.592 2.20832C181.125 8.60665 191.303 18.8196 197.658 31.375C199.42 35.4546 200.08 39.9252 199.572 44.3398C199.064 48.7543 197.406 52.9582 194.763 56.531C192.121 60.1038 188.587 62.9204 184.515 64.6991C180.443 66.4777 175.975 67.1562 171.558 66.6667C192.983 124.775 124.758 192.983 66.6666 171.558C67.0475 175.091 66.6895 178.665 65.6156 182.052C64.5416 185.44 62.7751 188.567 60.4282 191.235C58.0812 193.903 55.2051 196.054 51.9825 197.552C48.7599 199.049 45.2611 199.86 41.7083 199.933ZM25.0417 149.933C3.84998 154.167 28.4167 178.392 38.425 182.508C39.6904 183.078 41.0795 183.317 42.4626 183.204C43.8456 183.091 45.1774 182.63 46.3336 181.862C47.4897 181.095 48.4324 180.047 49.0736 178.816C49.7148 177.585 50.0335 176.212 50 174.825C50.6917 166.592 47.5 154.167 54.3416 151C55.6521 150.284 57.1309 149.933 58.6232 149.985C60.1156 150.036 61.5668 150.487 62.825 151.292C111.875 182.5 182.5 111.842 151.292 62.8417C150.498 61.5772 150.056 60.1236 150.011 58.6312C149.967 57.1387 150.322 55.6616 151.04 54.3524C151.758 53.0432 152.813 51.9495 154.095 51.1843C155.377 50.4191 156.84 50.0103 158.333 50H174.858C176.252 50.0436 177.635 49.731 178.874 49.0915C180.114 48.4521 181.17 47.507 181.942 46.3457C182.715 45.1845 183.178 43.8453 183.289 42.4549C183.4 41.0645 183.154 39.6689 182.575 38.4C178.458 28.4167 154.167 3.84999 150 25.0417C149.317 33.375 152.5 45.875 145.667 49C144.358 49.7229 142.879 50.0775 141.385 50.0261C139.891 49.9748 138.439 49.5193 137.183 48.7083C115.658 35 84.2833 40.7583 62.5 62.5C40.7166 84.2417 35 115.675 48.7083 137.15C49.5017 138.415 49.9432 139.869 49.9871 141.362C50.0311 142.854 49.6759 144.332 48.9583 145.641C48.2406 146.951 47.1865 148.045 45.9047 148.811C44.623 149.578 43.1599 149.988 41.6666 150L25.0417 149.933ZM122.025 129.017C123.615 127.565 124.581 125.554 124.722 123.406C124.862 121.257 124.165 119.138 122.778 117.492C121.39 115.846 119.419 114.8 117.278 114.575C115.137 114.35 112.991 114.962 111.292 116.283C100.925 125.008 87.2333 127.558 80.0416 122.117C78.2735 120.785 76.0489 120.21 73.857 120.519C71.6652 120.828 69.6858 121.994 68.3542 123.762C67.0225 125.531 66.4479 127.755 66.7565 129.947C67.0652 132.139 68.2319 134.118 70 135.45C85.8333 146.733 106.667 141.742 122.025 129.058V129.017Z" fill="black"/>
</g>
<defs>
<clipPath id="clip0_367_1869">
<rect width="200" height="200" fill="white"/>
</clipPath>
</defs>
</svg>
