<svg width="200" height="200" viewBox="0 0 200 200" fill="none" xmlns="http://www.w3.org/2000/svg">
<g clip-path="url(#clip0_364_1878)">
<path d="M191.667 41.6667H170.117L189.225 22.5583C190.743 20.9866 191.583 18.8816 191.564 16.6967C191.545 14.5117 190.669 12.4216 189.124 10.8765C187.578 9.33144 185.488 8.45504 183.303 8.43605C181.118 8.41706 179.013 9.25702 177.442 10.775L158.333 29.8833V8.33333C158.333 6.1232 157.455 4.00358 155.893 2.44078C154.33 0.877974 152.21 0 150 0C147.79 0 145.67 0.877974 144.107 2.44078C142.545 4.00358 141.667 6.1232 141.667 8.33333V45.4667C134.845 38.2051 126.794 32.2071 117.883 27.75C111.627 24.9905 104.641 24.3503 97.9875 25.9268C91.3341 27.5033 85.3778 31.2102 81.025 36.4833C66.375 51.1333 25.5417 126.008 2.50002 169.325C0.474931 173.266 -0.246734 177.749 0.438997 182.126C1.12473 186.504 3.18245 190.551 6.3157 193.684C9.44895 196.818 13.496 198.875 17.8737 199.561C22.2514 200.247 26.7338 199.525 30.675 197.5C74.0083 174.467 148.867 133.625 163.517 118.975C168.788 114.623 172.495 108.669 174.073 102.017C175.65 95.3659 175.013 88.3812 172.258 82.125C167.795 73.2136 161.795 65.1596 154.533 58.3333H191.667C193.877 58.3333 195.996 57.4554 197.559 55.8926C199.122 54.3298 200 52.2101 200 50C200 47.7899 199.122 45.6702 197.559 44.1074C195.996 42.5446 193.877 41.6667 191.667 41.6667ZM151.733 107.192C145.776 112.289 139.382 116.854 132.625 120.833L114.225 102.442C112.653 100.924 110.548 100.084 108.363 100.103C106.178 100.122 104.088 100.998 102.543 102.543C100.998 104.088 100.122 106.178 100.103 108.363C100.084 110.548 100.924 112.653 102.442 114.225L118.025 129.8C95.1417 143.492 62.2833 161.817 22.85 182.783C22.0623 183.201 21.1614 183.355 20.2797 183.223C19.3979 183.091 18.5818 182.679 17.9513 182.049C17.3209 181.418 16.9093 180.602 16.777 179.72C16.6448 178.839 16.7989 177.938 17.2167 177.15C29.9 153.308 41.575 131.95 51.8833 113.667L69.1084 130.892C70.68 132.41 72.785 133.25 74.97 133.231C77.155 133.212 79.2451 132.335 80.7902 130.79C82.3352 129.245 83.2116 127.155 83.2306 124.97C83.2496 122.785 82.4097 120.68 80.8917 119.108L60.425 98.6417C69.5083 82.9 77.1417 70.3083 83 61.45L102.442 80.8917C104.013 82.4096 106.118 83.2496 108.303 83.2306C110.488 83.2116 112.578 82.3352 114.123 80.7902C115.669 79.2451 116.545 77.155 116.564 74.97C116.583 72.785 115.743 70.68 114.225 69.1083L93.1167 48C100.175 41.425 104.5 40.3167 111.308 43.0667C120.759 48.46 129.233 55.4073 136.375 63.6167C144.588 70.761 151.538 79.238 156.933 88.6917C159.008 93.525 159.817 99.1167 151.733 107.192Z" fill="black"/>
</g>
<defs>
<clipPath id="clip0_364_1878">
<rect width="200" height="200" fill="white"/>
</clipPath>
</defs>
</svg>
