<svg width="200" height="200" viewBox="0 0 200 200" fill="none" xmlns="http://www.w3.org/2000/svg">
<g clip-path="url(#clip0_444_1463)">
<path d="M89.0749 200C85.5196 199.999 82.0158 199.151 78.853 197.527C75.6902 195.903 72.9594 193.55 70.8862 190.662C68.8131 187.774 67.4572 184.433 66.9306 180.917C66.4041 177.401 66.7221 173.81 67.8582 170.442L84.0249 125H51.3166L42.3166 138.717C40.0448 142.188 36.943 145.038 33.2922 147.008C29.6414 148.978 25.5567 150.006 21.4082 150C17.9815 149.999 14.6055 149.172 11.5668 147.588C8.52812 146.004 5.91642 143.711 3.95341 140.902C1.9904 138.093 0.734031 134.852 0.290939 131.454C-0.152153 128.056 0.231116 124.602 1.40821 121.383L9.16655 100L1.32488 78.6667C0.144966 75.454 -0.243113 72.0043 0.193529 68.6098C0.63017 65.2153 1.87866 61.9761 3.83321 59.1667C6.15527 56.1999 9.15867 53.8369 12.5886 52.2782C16.0186 50.7196 19.7738 50.0112 23.5359 50.2132C27.298 50.4152 30.9558 51.5216 34.1991 53.4386C37.4424 55.3556 40.1755 58.0266 42.1666 61.225L51.2916 75H84.0249L67.8916 29.6917C66.7366 26.3061 66.4056 22.6939 66.9259 19.1548C67.4462 15.6157 68.8028 12.2516 70.8832 9.34167C73.3615 6.19418 76.5874 3.71636 80.2676 2.13367C83.9478 0.550976 87.9653 -0.0863391 91.9546 0.279712C95.9438 0.645763 99.7783 2.00356 103.109 4.22955C106.44 6.45554 109.161 9.47907 111.025 13.025L146.5 75H174.108C180.135 74.9243 185.997 76.9693 190.669 80.7775C195.341 84.5857 198.526 89.9149 199.667 95.8333C200.273 99.4195 200.089 103.095 199.129 106.603C198.168 110.111 196.454 113.367 194.105 116.144C191.756 118.921 188.83 121.152 185.53 122.682C182.231 124.211 178.637 125.002 175 125H146.5L110.942 187.117C108.786 191.027 105.619 194.286 101.772 196.552C97.9252 198.819 93.5398 200.01 89.0749 200ZM46.8166 108.333H95.8332C97.1635 108.345 98.472 108.673 99.6505 109.29C100.829 109.907 101.844 110.796 102.611 111.883C103.378 112.97 103.875 114.224 104.062 115.541C104.248 116.858 104.118 118.201 103.683 119.458L83.5999 175.9C83.3316 176.747 83.2672 177.645 83.412 178.521C83.5568 179.397 83.9067 180.226 84.4332 180.942C85.2737 181.774 86.2994 182.397 87.4263 182.757C88.5532 183.118 89.7495 183.207 90.9173 183.016C92.0852 182.826 93.1914 182.362 94.1457 181.663C95.1001 180.963 95.8753 180.048 96.4082 178.992L134.433 112.5C135.166 111.231 136.221 110.177 137.491 109.446C138.761 108.714 140.201 108.33 141.667 108.333H175C176.218 108.334 177.421 108.067 178.525 107.552C179.629 107.038 180.607 106.287 181.39 105.354C182.172 104.42 182.741 103.326 183.055 102.149C183.369 100.972 183.421 99.741 183.208 98.5417C182.715 96.5233 181.54 94.7371 179.882 93.4845C178.224 92.232 176.185 91.5899 174.108 91.6667H141.667C140.201 91.6696 138.761 91.2859 137.491 90.5543C136.221 89.8228 135.166 88.7692 134.433 87.5L96.4749 21.1583C95.9687 20.0673 95.2059 19.115 94.2516 18.3829C93.2973 17.6508 92.1799 17.1606 90.995 16.9542C89.8101 16.7479 88.5928 16.8315 87.4472 17.1979C86.3016 17.5643 85.2618 18.2026 84.4166 19.0583C83.8835 19.7963 83.535 20.6513 83.4001 21.5516C83.2653 22.452 83.3481 23.3715 83.6415 24.2333L103.642 80.5417C104.076 81.7956 104.206 83.1346 104.022 84.4486C103.837 85.7627 103.344 87.0142 102.581 88.1003C101.819 89.1863 100.81 90.076 99.6367 90.696C98.4635 91.316 97.16 91.6487 95.8332 91.6667H46.8166C45.4399 91.6669 44.0846 91.326 42.8718 90.6745C41.659 90.0231 40.6265 89.0813 39.8666 87.9333L28.2582 70.4333C26.3582 66.925 19.6415 65.125 17.5082 68.6833C17.0725 69.2912 16.7948 69.998 16.7003 70.7399C16.6057 71.4818 16.6972 72.2356 16.9665 72.9333L25.8999 97.15C26.5821 99.006 26.5821 101.044 25.8999 102.9L17.0165 127.15C16.7689 127.848 16.692 128.595 16.7924 129.328C16.8927 130.062 17.1674 130.76 17.5934 131.366C18.0194 131.972 18.5843 132.466 19.2408 132.808C19.8972 133.151 20.6262 133.331 21.3665 133.333C22.7505 133.334 24.1129 132.99 25.3306 132.332C26.5483 131.675 27.5831 130.724 28.3415 129.567L39.8082 112.067C40.5736 110.91 41.6153 109.963 42.8391 109.312C44.0629 108.66 45.43 108.323 46.8166 108.333Z" fill="black"/>
</g>
<defs>
<clipPath id="clip0_444_1463">
<rect width="200" height="200" fill="white"/>
</clipPath>
</defs>
</svg>
