<svg width="200" height="200" viewBox="0 0 200 200" fill="none" xmlns="http://www.w3.org/2000/svg">
<g clip-path="url(#clip0_364_1884)">
<path d="M41.6667 108.333C33.4258 108.333 25.37 110.777 18.5179 115.355C11.6659 119.934 6.32536 126.441 3.17171 134.055C0.0180535 141.668 -0.807086 150.046 0.800632 158.129C2.40835 166.211 6.37672 173.636 12.2039 179.463C18.0311 185.29 25.4554 189.258 33.5379 190.866C41.6205 192.474 49.9982 191.649 57.6118 188.495C65.2254 185.341 71.7329 180.001 76.3112 173.149C80.8896 166.297 83.3334 158.241 83.3334 150C83.3201 138.953 78.926 128.363 71.1149 120.552C63.3037 112.741 52.7133 108.347 41.6667 108.333ZM41.6667 175C36.7222 175 31.8887 173.534 27.7774 170.787C23.6662 168.04 20.4619 164.135 18.5697 159.567C16.6775 154.999 16.1824 149.972 17.1471 145.123C18.1117 140.273 20.4927 135.819 23.989 132.322C27.4853 128.826 31.9399 126.445 36.7894 125.48C41.639 124.516 46.6656 125.011 51.2338 126.903C55.8019 128.795 59.7064 132 62.4534 136.111C65.2005 140.222 66.6667 145.055 66.6667 150C66.6667 156.63 64.0328 162.989 59.3444 167.678C54.6559 172.366 48.2971 175 41.6667 175ZM158.333 108.333C150.092 108.333 142.037 110.777 135.185 115.355C128.333 119.934 122.992 126.441 119.838 134.055C116.685 141.668 115.86 150.046 117.467 158.129C119.075 166.211 123.043 173.636 128.871 179.463C134.698 185.29 142.122 189.258 150.205 190.866C158.287 192.474 166.665 191.649 174.279 188.495C181.892 185.341 188.4 180.001 192.978 173.149C197.556 166.297 200 158.241 200 150C199.987 138.953 195.593 128.363 187.782 120.552C179.97 112.741 169.38 108.347 158.333 108.333ZM158.333 175C153.389 175 148.555 173.534 144.444 170.787C140.333 168.04 137.129 164.135 135.236 159.567C133.344 154.999 132.849 149.972 133.814 145.123C134.778 140.273 137.159 135.819 140.656 132.322C144.152 128.826 148.607 126.445 153.456 125.48C158.306 124.516 163.332 125.011 167.9 126.903C172.469 128.795 176.373 132 179.12 136.111C181.867 140.222 183.333 145.055 183.333 150C183.333 156.63 180.699 162.989 176.011 167.678C171.323 172.366 164.964 175 158.333 175ZM86.3667 93.975C85.4971 93.2336 84.7913 92.3192 84.2944 91.2902C83.7974 90.2611 83.5201 89.1399 83.4802 87.9978C83.4402 86.8557 83.6384 85.7178 84.0622 84.6565C84.486 83.5952 85.126 82.6338 85.9417 81.8333C87.35 80.5 108.05 61.5 108.05 61.5L135.775 89.225C137.347 90.743 139.452 91.5829 141.637 91.564C143.822 91.545 145.912 90.6686 147.457 89.1235C149.002 87.5784 149.878 85.4883 149.897 83.3034C149.916 81.1184 149.076 79.0134 147.558 77.4417L114.225 44.1083C113.907 43.7823 113.561 43.484 113.192 43.2167C104.266 36.8981 93.6267 33.4504 82.6917 33.3333C71.0084 33.3333 41.6667 43.25 41.6667 66.6667C41.6667 73.2971 44.3006 79.6559 48.989 84.3444C53.6774 89.0328 60.0363 91.6667 66.6667 91.6667C66.8667 91.6667 67.05 91.625 67.2417 91.6167C68.1405 97.4376 71.0722 102.752 75.5167 106.617L91.6667 120.492V150C91.6667 152.21 92.5447 154.33 94.1075 155.893C95.6703 157.455 97.7899 158.333 100 158.333C102.21 158.333 104.33 157.455 105.893 155.893C107.455 154.33 108.333 152.21 108.333 150V116.667C108.333 115.465 108.073 114.278 107.571 113.186C107.069 112.094 106.337 111.124 105.425 110.342L86.3667 93.975ZM58.3334 66.6667C58.3334 56.55 76.4334 50 82.6917 50C86.4892 50.0202 90.258 50.6591 93.85 51.8917C93.85 51.8917 74.55 69.675 74.325 69.8917C71.15 72.9083 68.5417 75 66.6667 75C64.4566 75 62.3369 74.122 60.7741 72.5592C59.2113 70.9964 58.3334 68.8768 58.3334 66.6667ZM116.667 20.8333C116.667 16.7129 117.889 12.685 120.178 9.25896C122.467 5.83294 125.721 3.16268 129.527 1.58585C133.334 0.00902675 137.523 -0.403543 141.564 0.400316C145.606 1.20417 149.318 3.18836 152.231 6.10195C155.145 9.01555 157.129 12.7277 157.933 16.769C158.737 20.8102 158.324 24.9991 156.748 28.8059C155.171 32.6127 152.5 35.8664 149.074 38.1556C145.648 40.4448 141.62 41.6667 137.5 41.6667C131.975 41.6667 126.676 39.4717 122.769 35.5647C118.862 31.6577 116.667 26.3587 116.667 20.8333Z" fill="black"/>
</g>
<defs>
<clipPath id="clip0_364_1884">
<rect width="200" height="200" fill="white"/>
</clipPath>
</defs>
</svg>
