<svg width="200" height="200" viewBox="0 0 200 200" fill="none" xmlns="http://www.w3.org/2000/svg">
<path d="M158.333 16.6667H150V8.33333C150 3.73333 146.275 0 141.667 0C137.058 0 133.333 3.73333 133.333 8.33333V16.6667H66.6667V8.33333C66.6667 3.73333 62.9417 0 58.3333 0C53.725 0 50 3.73333 50 8.33333V16.6667H41.6667C18.6917 16.6667 0 35.3583 0 58.3333V158.333C0 181.308 18.6917 200 41.6667 200H158.333C181.308 200 200 181.308 200 158.333V58.3333C200 35.3583 181.308 16.6667 158.333 16.6667ZM41.6667 33.3333H158.333C172.117 33.3333 183.333 44.55 183.333 58.3333V66.6667H16.6667V58.3333C16.6667 44.55 27.8833 33.3333 41.6667 33.3333ZM158.333 183.333H41.6667C27.8833 183.333 16.6667 172.117 16.6667 158.333V83.3333H183.333V158.333C183.333 172.117 172.117 183.333 158.333 183.333ZM148.6 109.6C151.8 112.908 151.7 118.192 148.392 121.383L108.892 159.45C104.283 164.058 98 166.667 91.325 166.667C84.65 166.667 78.3667 164.067 73.65 159.342L54.8833 141.908C51.5167 138.775 51.3167 133.5 54.45 130.133C57.6 126.758 62.8667 126.575 66.225 129.7L85.2083 147.342C88.8167 150.925 94.0667 150.692 97.2 147.558L136.817 109.375C140.133 106.183 145.4 106.283 148.6 109.592V109.6Z" fill="black"/>
</svg>
