<svg width="200" height="200" viewBox="0 0 200 200" fill="none" xmlns="http://www.w3.org/2000/svg">
<path fill-rule="evenodd" clip-rule="evenodd" d="M28.1381 28.1381C32.3223 23.954 39.1062 23.954 43.2904 28.1381L171.862 156.71C176.046 160.894 176.046 167.678 171.862 171.862C167.678 176.046 160.894 176.046 156.71 171.862L28.1381 43.2904C23.954 39.1062 23.954 32.3223 28.1381 28.1381Z" fill="black"/>
<path fill-rule="evenodd" clip-rule="evenodd" d="M28.1381 171.862C23.954 167.678 23.954 160.894 28.1381 156.71L156.71 28.1382C160.894 23.954 167.678 23.954 171.862 28.1382C176.046 32.3223 176.046 39.1062 171.862 43.2904L43.2904 171.862C39.1062 176.046 32.3223 176.046 28.1381 171.862Z" fill="black"/>
</svg>
