<svg width="200" height="200" viewBox="0 0 200 200" fill="none" xmlns="http://www.w3.org/2000/svg">
<g clip-path="url(#clip0_376_1416)">
<path d="M193.925 78.4917C181 57.4417 151.6 22.125 99.9999 22.125C48.3999 22.125 18.9999 57.4417 6.07494 78.4917C2.07934 84.9542 -0.0371094 92.402 -0.0371094 100C-0.0371094 107.598 2.07934 115.046 6.07494 121.508C18.9999 142.558 48.3999 177.875 99.9999 177.875C151.6 177.875 181 142.558 193.925 121.508C197.921 115.046 200.037 107.598 200.037 100C200.037 92.402 197.921 84.9542 193.925 78.4917ZM179.717 112.783C168.617 130.833 143.492 161.208 99.9999 161.208C56.5083 161.208 31.3833 130.833 20.2833 112.783C17.9094 108.942 16.652 104.516 16.652 100C16.652 95.4844 17.9094 91.058 20.2833 87.2167C31.3833 69.1667 56.5083 38.7917 99.9999 38.7917C143.492 38.7917 168.617 69.1333 179.717 87.2167C182.09 91.058 183.348 95.4844 183.348 100C183.348 104.516 182.09 108.942 179.717 112.783Z" fill="black"/>
<path d="M99.9999 58.3334C91.7591 58.3334 83.7032 60.7771 76.8512 65.3555C69.9991 69.9339 64.6586 76.4413 61.505 84.0549C58.3513 91.6685 57.5262 100.046 59.1339 108.129C60.7416 116.211 64.71 123.636 70.5372 129.463C76.3643 135.29 83.7886 139.258 91.8712 140.866C99.9537 142.474 108.331 141.649 115.945 138.495C123.559 135.341 130.066 130.001 134.645 123.149C139.223 116.297 141.667 108.241 141.667 100C141.653 88.9534 137.259 78.363 129.448 70.5519C121.637 62.7407 111.047 58.3466 99.9999 58.3334ZM99.9999 125C95.0554 125 90.2219 123.534 86.1107 120.787C81.9995 118.04 78.7951 114.135 76.9029 109.567C75.0108 104.999 74.5157 99.9723 75.4803 95.1228C76.4449 90.2733 78.826 85.8187 82.3223 82.3224C85.8186 78.8261 90.2732 76.445 95.1227 75.4804C99.9722 74.5158 104.999 75.0109 109.567 76.903C114.135 78.7952 118.04 81.9996 120.787 86.1108C123.534 90.222 125 95.0555 125 100C125 106.63 122.366 112.989 117.678 117.678C112.989 122.366 106.63 125 99.9999 125Z" fill="black"/>
</g>
<defs>
<clipPath id="clip0_376_1416">
<rect width="200" height="200" fill="white"/>
</clipPath>
</defs>
</svg>
