<svg width="200" height="200" viewBox="0 0 200 200" fill="none" xmlns="http://www.w3.org/2000/svg">
<g clip-path="url(#clip0_367_4469)">
<path d="M100 0C73.4872 0.0286757 48.0684 10.5736 29.321 29.321C10.5736 48.0684 0.0286757 73.4872 0 100C5 232.5 195 232.442 200 100C199.971 73.4872 189.426 48.0684 170.679 29.321C151.932 10.5736 126.513 0.0286757 100 0ZM100 183.333C77.9061 183.309 56.724 174.522 41.1012 158.899C25.4785 143.276 16.6909 122.094 16.6667 100C20.8333 -10.4 179.167 -10.375 183.333 100C183.309 122.094 174.522 143.276 158.899 158.899C143.276 174.522 122.094 183.309 100 183.333ZM125 141.667C125 148.297 122.366 154.656 117.678 159.344C112.989 164.033 106.63 166.667 100 166.667C93.3696 166.667 87.0107 164.033 82.3223 159.344C77.6339 154.656 75 148.297 75 141.667C75 135.036 77.6339 128.677 82.3223 123.989C87.0107 119.301 93.3696 116.667 100 116.667C106.63 116.667 112.989 119.301 117.678 123.989C122.366 128.677 125 135.036 125 141.667ZM155.892 64.225L145.117 75L155.892 85.775C157.41 87.3467 158.25 89.4517 158.231 91.6367C158.212 93.8216 157.335 95.9118 155.79 97.4568C154.245 99.0019 152.155 99.8783 149.97 99.8973C147.785 99.9163 145.68 99.0763 144.108 97.5583L133.333 86.7833L122.558 97.5583C120.987 99.0763 118.882 99.9163 116.697 99.8973C114.512 99.8783 112.422 99.0019 110.877 97.4568C109.331 95.9118 108.455 93.8216 108.436 91.6367C108.417 89.4517 109.257 87.3467 110.775 85.775L121.55 75L110.775 64.225C109.257 62.6533 108.417 60.5483 108.436 58.3633C108.455 56.1783 109.331 54.0882 110.877 52.5432C112.422 50.9981 114.512 50.1217 116.697 50.1027C118.882 50.0837 120.987 50.9237 122.558 52.4417L133.333 63.2167L144.108 52.4417C145.68 50.9237 147.785 50.0837 149.97 50.1027C152.155 50.1217 154.245 50.9981 155.79 52.5432C157.335 54.0882 158.212 56.1783 158.231 58.3633C158.25 60.5483 157.41 62.6533 155.892 64.225ZM66.6667 86.7833L55.8917 97.5583C54.32 99.0763 52.215 99.9163 50.03 99.8973C47.845 99.8783 45.7549 99.0019 44.2098 97.4568C42.6648 95.9118 41.7884 93.8216 41.7694 91.6367C41.7504 89.4517 42.5904 87.3467 44.1083 85.775L54.8833 75L44.1083 64.225C42.5904 62.6533 41.7504 60.5483 41.7694 58.3633C41.7884 56.1783 42.6648 54.0882 44.2098 52.5432C45.7549 50.9981 47.845 50.1217 50.03 50.1027C52.215 50.0837 54.32 50.9237 55.8917 52.4417L66.6667 63.2167L77.4417 52.4417C79.0134 50.9237 81.1184 50.0837 83.3033 50.1027C85.4883 50.1217 87.5784 50.9981 89.1235 52.5432C90.6685 54.0882 91.545 56.1783 91.5639 58.3633C91.5829 60.5483 90.743 62.6533 89.225 64.225L78.45 75L89.225 85.775C90.743 87.3467 91.5829 89.4517 91.5639 91.6367C91.545 93.8216 90.6685 95.9118 89.1235 97.4568C87.5784 99.0019 85.4883 99.8783 83.3033 99.8973C81.1184 99.9163 79.0134 99.0763 77.4417 97.5583L66.6667 86.7833Z" fill="black"/>
</g>
<defs>
<clipPath id="clip0_367_4469">
<rect width="200" height="200" fill="white"/>
</clipPath>
</defs>
</svg>
