<svg width="200" height="200" viewBox="0 0 200 200" fill="none" xmlns="http://www.w3.org/2000/svg">
<g clip-path="url(#clip0_364_4428)">
<path d="M191.667 183.333H41.6667C35.0363 183.333 28.6774 180.699 23.989 176.011C19.3006 171.323 16.6667 164.964 16.6667 158.333V8.33333C16.6667 6.1232 15.7887 4.00358 14.2259 2.44078C12.6631 0.877974 10.5435 0 8.33333 0C6.1232 0 4.00358 0.877974 2.44078 2.44078C0.877974 4.00358 0 6.1232 0 8.33333L0 158.333C0.0132321 169.38 4.40735 179.97 12.2185 187.781C20.0296 195.593 30.62 199.987 41.6667 200H191.667C193.877 200 195.996 199.122 197.559 197.559C199.122 195.996 200 193.877 200 191.667C200 189.457 199.122 187.337 197.559 185.774C195.996 184.211 193.877 183.333 191.667 183.333Z" fill="black"/>
<path d="M50 166.667C52.2101 166.667 54.3297 165.789 55.8925 164.226C57.4553 162.663 58.3333 160.543 58.3333 158.333V100C58.3333 97.7898 57.4553 95.6702 55.8925 94.1074C54.3297 92.5446 52.2101 91.6666 50 91.6666C47.7899 91.6666 45.6702 92.5446 44.1074 94.1074C42.5446 95.6702 41.6667 97.7898 41.6667 100V158.333C41.6667 160.543 42.5446 162.663 44.1074 164.226C45.6702 165.789 47.7899 166.667 50 166.667Z" fill="black"/>
<path d="M83.3333 83.3333V158.333C83.3333 160.543 84.2113 162.663 85.7741 164.226C87.3369 165.789 89.4565 166.667 91.6666 166.667C93.8768 166.667 95.9964 165.789 97.5592 164.226C99.122 162.663 100 160.543 100 158.333V83.3333C100 81.1232 99.122 79.0036 97.5592 77.4408C95.9964 75.878 93.8768 75 91.6666 75C89.4565 75 87.3369 75.878 85.7741 77.4408C84.2113 79.0036 83.3333 81.1232 83.3333 83.3333Z" fill="black"/>
<path d="M125 108.333V158.333C125 160.543 125.878 162.663 127.441 164.226C129.004 165.789 131.123 166.667 133.333 166.667C135.543 166.667 137.663 165.789 139.226 164.226C140.789 162.663 141.667 160.543 141.667 158.333V108.333C141.667 106.123 140.789 104.004 139.226 102.441C137.663 100.878 135.543 100 133.333 100C131.123 100 129.004 100.878 127.441 102.441C125.878 104.004 125 106.123 125 108.333Z" fill="black"/>
<path d="M166.667 75V158.333C166.667 160.543 167.545 162.663 169.107 164.226C170.67 165.789 172.79 166.667 175 166.667C177.21 166.667 179.33 165.789 180.893 164.226C182.455 162.663 183.333 160.543 183.333 158.333V75C183.333 72.7898 182.455 70.6702 180.893 69.1074C179.33 67.5446 177.21 66.6666 175 66.6666C172.79 66.6666 170.67 67.5446 169.107 69.1074C167.545 70.6702 166.667 72.7898 166.667 75Z" fill="black"/>
<path d="M50 75C52.21 74.9995 54.3292 74.1213 55.8917 72.5583L85.775 42.675C87.3634 41.1619 89.473 40.3179 91.6667 40.3179C93.8604 40.3179 95.97 41.1619 97.5583 42.675L115.658 60.775C120.347 65.4618 126.704 68.0947 133.333 68.0947C139.962 68.0947 146.32 65.4618 151.008 60.775L197.558 14.225C199.076 12.6533 199.916 10.5483 199.897 8.36334C199.878 6.17837 199.002 4.08826 197.457 2.54319C195.912 0.998127 193.822 0.121719 191.637 0.102732C189.452 0.0837452 187.347 0.923699 185.775 2.44168L139.225 48.9833C137.662 50.5456 135.543 51.4232 133.333 51.4232C131.124 51.4232 129.004 50.5456 127.442 48.9833L109.342 30.8917C104.653 26.2049 98.2958 23.572 91.6667 23.572C85.0376 23.572 78.6799 26.2049 73.9917 30.8917L44.1084 60.775C42.9433 61.9404 42.1499 63.4251 41.8285 65.0414C41.5071 66.6577 41.6721 68.333 42.3027 69.8555C42.9333 71.378 44.0011 72.6793 45.3712 73.595C46.7413 74.5107 48.3521 74.9997 50 75Z" fill="black"/>
</g>
<defs>
<clipPath id="clip0_364_4428">
<rect width="200" height="200" fill="white"/>
</clipPath>
</defs>
</svg>
