<svg width="200" height="200" viewBox="0 0 200 200" fill="none" xmlns="http://www.w3.org/2000/svg">
<g clip-path="url(#clip0_362_1839)">
<path d="M100 0C80.2219 0 60.8879 5.8649 44.443 16.853C27.9981 27.8412 15.1809 43.459 7.61209 61.7317C0.0433286 80.0043 -1.93701 100.111 1.92152 119.509C5.78004 138.907 15.3041 156.725 29.2894 170.711C43.2746 184.696 61.0929 194.22 80.491 198.079C99.8891 201.937 119.996 199.957 138.268 192.388C156.541 184.819 172.159 172.002 183.147 155.557C194.135 139.112 200 119.778 200 100C199.971 73.4872 189.426 48.0684 170.679 29.321C151.932 10.5736 126.513 0.0286757 100 0ZM100 183.333C83.5183 183.333 67.4066 178.446 53.7025 169.289C39.9984 160.132 29.3174 147.117 23.0101 131.89C16.7028 116.663 15.0525 99.9076 18.2679 83.7425C21.4834 67.5774 29.4201 52.7288 41.0745 41.0744C52.7289 29.4201 67.5774 21.4833 83.7425 18.2679C99.9076 15.0525 116.663 16.7027 131.89 23.01C147.118 29.3173 160.132 39.9984 169.289 53.7025C178.446 67.4066 183.333 83.5182 183.333 100C183.309 122.094 174.522 143.276 158.899 158.899C143.276 174.522 122.094 183.309 100 183.333ZM141.667 100C141.667 102.21 140.789 104.33 139.226 105.893C137.663 107.455 135.544 108.333 133.333 108.333H108.333V133.333C108.333 135.543 107.455 137.663 105.893 139.226C104.33 140.789 102.21 141.667 100 141.667C97.7899 141.667 95.6703 140.789 94.1075 139.226C92.5447 137.663 91.6667 135.543 91.6667 133.333V108.333H66.6667C64.4566 108.333 62.337 107.455 60.7742 105.893C59.2113 104.33 58.3334 102.21 58.3334 100C58.3334 97.7899 59.2113 95.6703 60.7742 94.1075C62.337 92.5446 64.4566 91.6667 66.6667 91.6667H91.6667V66.6667C91.6667 64.4565 92.5447 62.3369 94.1075 60.7741C95.6703 59.2113 97.7899 58.3333 100 58.3333C102.21 58.3333 104.33 59.2113 105.893 60.7741C107.455 62.3369 108.333 64.4565 108.333 66.6667V91.6667H133.333C135.544 91.6667 137.663 92.5446 139.226 94.1075C140.789 95.6703 141.667 97.7899 141.667 100Z" fill="black"/>
</g>
<defs>
<clipPath id="clip0_362_1839">
<rect width="200" height="200" fill="white"/>
</clipPath>
</defs>
</svg>
