<svg width="200" height="200" viewBox="0 0 200 200" fill="none" xmlns="http://www.w3.org/2000/svg">
<g clip-path="url(#clip0_364_1896)">
<path d="M199.592 102.5L193.717 60.8333C192.273 50.9161 187.319 41.8459 179.756 35.2706C172.193 28.6952 162.522 25.051 152.5 25H41.6667C30.62 25.0132 20.0296 29.4074 12.2185 37.2185C4.40735 45.0296 0.0132321 55.62 0 66.6667L0 108.333C0.0132321 119.38 4.40735 129.97 12.2185 137.782C20.0296 145.593 30.62 149.987 41.6667 150H64.2667L80.2167 182.317C82.8981 187.763 87.4479 192.065 93.0365 194.436C98.625 196.808 104.88 197.091 110.66 195.235C116.44 193.379 121.361 189.507 124.524 184.326C127.687 179.144 128.882 172.998 127.892 167.008L125.092 150H158.333C164.298 150 170.193 148.72 175.621 146.245C181.048 143.771 185.881 140.16 189.792 135.657C193.704 131.154 196.603 125.863 198.293 120.143C199.984 114.423 200.427 108.406 199.592 102.5ZM41.6667 41.6667H58.3333V133.333H41.6667C35.0363 133.333 28.6774 130.699 23.989 126.011C19.3006 121.323 16.6667 114.964 16.6667 108.333V66.6667C16.6667 60.0363 19.3006 53.6774 23.989 48.989C28.6774 44.3006 35.0363 41.6667 41.6667 41.6667ZM177.2 124.733C174.854 127.433 171.955 129.598 168.7 131.081C165.446 132.565 161.91 133.333 158.333 133.333H115.275C114.066 133.333 112.872 133.596 111.775 134.103C110.678 134.611 109.704 135.351 108.922 136.272C108.139 137.193 107.567 138.273 107.243 139.438C106.92 140.603 106.854 141.824 107.05 143.017L111.45 169.683C111.661 170.921 111.597 172.19 111.261 173.4C110.926 174.61 110.327 175.731 109.508 176.683C108.548 177.718 107.356 178.51 106.03 178.995C104.705 179.479 103.283 179.642 101.882 179.469C100.481 179.297 99.1406 178.794 97.9717 178.003C96.8029 177.211 95.8386 176.154 95.1583 174.917L76.9167 137.983C76.4355 137.06 75.7854 136.234 75 135.55V41.6667H152.5C158.519 41.6887 164.329 43.8727 168.873 47.8208C173.416 51.7689 176.389 57.218 177.25 63.175L183.133 104.842C183.627 108.389 183.352 112.001 182.329 115.432C181.305 118.864 179.556 122.036 177.2 124.733Z" fill="black"/>
</g>
<defs>
<clipPath id="clip0_364_1896">
<rect width="200" height="200" fill="white"/>
</clipPath>
</defs>
</svg>
