<svg width="200" height="200" viewBox="0 0 200 200" fill="none" xmlns="http://www.w3.org/2000/svg">
<g clip-path="url(#clip0_364_1904)">
<path d="M49.7667 185.709C47.9451 185.708 46.1739 185.111 44.7241 184.008C43.2744 182.905 42.2259 181.358 41.7391 179.602C41.2523 177.847 41.354 175.981 42.0287 174.289C42.7034 172.597 43.9139 171.172 45.475 170.234C75 152.5 75 114.417 75 91.6671C75 85.0367 77.6339 78.6778 82.3223 73.9894C87.0107 69.301 93.3696 66.6671 100 66.6671C106.63 66.6671 112.989 69.301 117.678 73.9894C122.366 78.6778 125 85.0367 125 91.6671C125 93.8772 124.122 95.9969 122.559 97.5597C120.996 99.1225 118.877 100 116.667 100C114.457 100 112.337 99.1225 110.774 97.5597C109.211 95.9969 108.333 93.8772 108.333 91.6671C108.333 89.457 107.455 87.3373 105.893 85.7745C104.33 84.2117 102.21 83.3338 100 83.3338C97.7899 83.3338 95.6702 84.2117 94.1074 85.7745C92.5446 87.3373 91.6667 89.457 91.6667 91.6671C91.6667 116.225 91.6667 161.95 54.05 184.525C52.7556 185.3 51.2752 185.709 49.7667 185.709ZM91.125 197.55C110.142 178.384 121.25 151.434 124.133 117.375C124.231 116.283 124.111 115.182 123.782 114.136C123.453 113.089 122.92 112.118 122.215 111.278C121.51 110.438 120.645 109.746 119.672 109.241C118.698 108.735 117.635 108.427 116.542 108.334C115.448 108.222 114.343 108.331 113.293 108.655C112.242 108.978 111.268 109.51 110.427 110.219C109.587 110.927 108.897 111.797 108.4 112.778C107.903 113.758 107.608 114.829 107.533 115.925C104.942 146.4 95.7083 169.259 79.3 185.767C77.7419 187.335 76.8704 189.458 76.8775 191.669C76.8845 193.879 77.7694 195.996 79.3375 197.555C80.9056 199.113 83.0284 199.984 85.239 199.977C87.4496 199.97 89.5669 199.085 91.125 197.517V197.55ZM134.458 196C139.513 187.601 143.723 178.722 147.025 169.492C147.715 167.428 147.571 165.175 146.622 163.216C145.673 161.258 143.995 159.748 141.948 159.009C139.9 158.271 137.645 158.364 135.664 159.267C133.684 160.17 132.135 161.812 131.35 163.842C128.416 172.026 124.681 179.9 120.2 187.35C119.632 188.287 119.254 189.326 119.088 190.408C118.921 191.49 118.969 192.595 119.23 193.658C119.49 194.722 119.958 195.724 120.605 196.607C121.253 197.49 122.068 198.237 123.004 198.805C124.895 199.952 127.164 200.301 129.312 199.775C130.376 199.514 131.378 199.047 132.261 198.399C133.144 197.752 133.89 196.937 134.458 196ZM154.167 143.259C157.254 126.241 158.65 108.96 158.333 91.6671C158.325 79.8613 154.736 68.3356 148.038 58.6134C141.341 48.8912 131.851 41.43 120.823 37.2158C109.795 33.0016 97.7473 32.2327 86.273 35.0109C74.7987 37.7891 64.4374 43.9834 56.5583 52.7754C55.791 53.5838 55.1936 54.5379 54.8015 55.5812C54.4094 56.6245 54.2306 57.7359 54.2757 58.8495C54.3208 59.9632 54.5888 61.0565 55.0638 62.0647C55.5389 63.073 56.2114 63.9757 57.0416 64.7194C57.8717 65.4631 58.8426 66.0328 59.8968 66.3946C60.951 66.7565 62.0671 66.9032 63.179 66.826C64.2909 66.7489 65.376 66.4495 66.3701 65.9455C67.3642 65.4416 68.2472 64.7433 68.9667 63.8921C74.594 57.6111 81.9948 53.1855 90.1909 51.2002C98.387 49.2148 106.993 49.7633 114.87 52.773C122.748 55.7827 129.527 61.112 134.312 68.0565C139.096 75.0011 141.661 83.234 141.667 91.6671C141.974 107.89 140.684 124.105 137.817 140.075C137.396 142.243 137.853 144.49 139.087 146.321C140.322 148.152 142.232 149.419 144.4 149.842C144.93 149.948 145.468 150.001 146.008 150C147.939 149.995 149.807 149.321 151.295 148.091C152.783 146.861 153.798 145.153 154.167 143.259ZM58.3333 91.6671C58.3309 89.3412 58.5233 87.0192 58.9083 84.7254C59.1572 83.6212 59.1784 82.4778 58.9708 81.3651C58.7632 80.2523 58.331 79.1935 57.7007 78.2533C57.0704 77.3131 56.2552 76.5111 55.3047 75.8964C54.3543 75.2816 53.2885 74.8669 52.1725 74.6776C51.0565 74.4883 49.9136 74.5283 48.8136 74.7953C47.7136 75.0622 46.6795 75.5505 45.7744 76.2302C44.8693 76.91 44.1121 77.7671 43.5492 78.7491C42.9862 79.7311 42.6292 80.8176 42.5 81.9421C41.9499 85.1547 41.6711 88.4078 41.6667 91.6671C41.6667 130.375 30.45 150 8.33333 150C6.1232 150 4.00358 150.878 2.44078 152.441C0.877974 154.004 0 156.124 0 158.334C0 160.544 0.877974 162.664 2.44078 164.226C4.00358 165.789 6.1232 166.667 8.33333 166.667C40.575 166.667 58.3333 140 58.3333 91.6671ZM172.5 195.117C186.214 162.401 192.75 127.124 191.667 91.6671C191.705 77.8248 188.569 64.158 182.5 51.7171C182.021 50.7322 181.353 49.8512 180.534 49.1245C179.715 48.3978 178.76 47.8395 177.725 47.4816C176.69 47.1237 175.595 46.9732 174.502 47.0386C173.409 47.1041 172.339 47.3841 171.354 47.8629C170.369 48.3417 169.488 49.0098 168.762 49.829C168.035 50.6483 167.477 51.6026 167.119 52.6376C166.761 53.6726 166.61 54.768 166.676 55.8611C166.741 56.9543 167.021 58.0238 167.5 59.0088C172.459 69.1802 175.024 80.3514 175 91.6671C176.049 124.74 170.029 157.656 157.342 188.217C156.89 189.215 156.639 190.292 156.604 191.387C156.569 192.482 156.751 193.573 157.138 194.598C157.525 195.622 158.11 196.561 158.86 197.359C159.61 198.158 160.51 198.8 161.508 199.25C162.588 199.747 163.762 200.003 164.95 200C166.544 199.994 168.102 199.53 169.44 198.664C170.778 197.799 171.84 196.568 172.5 195.117ZM25 116.667V91.6671C25.0221 71.7826 32.9309 52.7189 46.9914 38.6584C61.0518 24.598 80.1155 16.6891 100 16.6671C116.236 16.613 132.043 21.8819 145 31.6671C146.768 32.9932 148.991 33.5626 151.179 33.25C153.366 32.9374 155.341 31.7685 156.667 30.0004C157.993 28.2323 158.562 26.0098 158.25 23.8219C157.937 21.634 156.768 19.6598 155 18.3338C139.161 6.37894 119.844 -0.06029 100 0.000425454C75.6973 0.029096 52.3982 9.69601 35.2135 26.8806C18.0289 44.0653 8.362 67.3644 8.33333 91.6671V116.667C8.33333 118.877 9.21131 120.997 10.7741 122.56C12.3369 124.122 14.4565 125 16.6667 125C18.8768 125 20.9964 124.122 22.5592 122.56C24.122 120.997 25 118.877 25 116.667Z" fill="black"/>
</g>
<defs>
<clipPath id="clip0_364_1904">
<rect width="200" height="200" fill="white"/>
</clipPath>
</defs>
</svg>
