<svg width="200" height="200" viewBox="0 0 200 200" fill="none" xmlns="http://www.w3.org/2000/svg">
<g clip-path="url(#clip0_362_1841)">
<path d="M100 66.6666C93.4073 66.6666 86.9626 68.6216 81.481 72.2843C75.9993 75.947 71.7269 81.153 69.204 87.2438C66.6811 93.3347 66.021 100.037 67.3071 106.503C68.5933 112.969 71.768 118.908 76.4298 123.57C81.0915 128.232 87.0309 131.407 93.497 132.693C99.963 133.979 106.665 133.319 112.756 130.796C118.847 128.273 124.053 124.001 127.716 118.519C131.378 113.037 133.333 106.593 133.333 100C133.333 91.1594 129.821 82.6809 123.57 76.4297C117.319 70.1785 108.841 66.6666 100 66.6666ZM100 116.667C96.7036 116.667 93.4813 115.689 90.7405 113.858C87.9997 112.026 85.8634 109.423 84.602 106.378C83.3405 103.333 83.0105 99.9815 83.6536 96.7485C84.2966 93.5154 85.884 90.5457 88.2149 88.2149C90.5457 85.884 93.5155 84.2966 96.7485 83.6535C99.9815 83.0105 103.333 83.3405 106.378 84.602C109.423 85.8634 112.026 87.9996 113.858 90.7405C115.689 93.4813 116.667 96.7036 116.667 100C116.667 104.42 114.911 108.659 111.785 111.785C108.659 114.911 104.42 116.667 100 116.667Z" fill="black"/>
<path d="M177.45 115.833L173.75 113.7C175.416 104.637 175.416 95.3463 173.75 86.2833L177.45 84.15C180.295 82.5085 182.789 80.3226 184.79 77.7172C186.791 75.1118 188.258 72.1378 189.109 68.9651C189.961 65.7925 190.179 62.4832 189.751 59.2263C189.323 55.9694 188.258 52.8286 186.617 49.9833C184.975 47.138 182.789 44.6439 180.184 42.6434C177.578 40.6428 174.604 39.1751 171.432 38.3238C168.259 37.4726 164.95 37.2547 161.693 37.6824C158.436 38.1101 155.295 39.1751 152.45 40.8167L148.742 42.9583C141.738 36.9743 133.689 32.3354 125 29.275V25C125 18.3696 122.366 12.0107 117.678 7.32233C112.989 2.63392 106.63 0 100 0C93.3696 0 87.0107 2.63392 82.3223 7.32233C77.6339 12.0107 75 18.3696 75 25V29.275C66.3116 32.3464 58.2654 36.9967 51.2667 42.9917L47.5417 40.8333C41.7953 37.5181 34.9673 36.6214 28.5598 38.3405C22.1524 40.0596 16.6902 44.2536 13.375 50C10.0598 55.7464 9.16309 62.5743 10.8822 68.9818C12.6013 75.3893 16.7953 80.8515 22.5417 84.1667L26.2417 86.3C24.5759 95.363 24.5759 104.654 26.2417 113.717L22.5417 115.85C16.7953 119.165 12.6013 124.627 10.8822 131.035C9.16309 137.442 10.0598 144.27 13.375 150.017C16.6902 155.763 22.1524 159.957 28.5598 161.676C34.9673 163.395 41.7953 162.499 47.5417 159.183L51.25 157.042C58.2564 163.027 66.3082 167.666 75 170.725V175C75 181.63 77.6339 187.989 82.3223 192.678C87.0107 197.366 93.3696 200 100 200C106.63 200 112.989 197.366 117.678 192.678C122.366 187.989 125 181.63 125 175V170.725C133.688 167.654 141.735 163.003 148.733 157.008L152.458 159.158C158.205 162.474 165.033 163.37 171.44 161.651C177.848 159.932 183.31 155.738 186.625 149.992C189.94 144.245 190.837 137.417 189.118 131.01C187.399 124.602 183.205 119.14 177.458 115.825L177.45 115.833ZM156.217 84.3667C159.039 94.5922 159.039 105.391 156.217 115.617C155.724 117.396 155.836 119.289 156.536 120.998C157.236 122.707 158.484 124.135 160.083 125.058L169.117 130.275C171.032 131.38 172.429 133.201 173.002 135.336C173.575 137.472 173.276 139.747 172.171 141.662C171.066 143.578 169.245 144.975 167.11 145.548C164.974 146.121 162.698 145.822 160.783 144.717L151.733 139.483C150.132 138.556 148.269 138.188 146.435 138.437C144.602 138.686 142.904 139.538 141.608 140.858C134.191 148.43 124.846 153.833 114.583 156.483C112.792 156.944 111.205 157.987 110.072 159.449C108.939 160.911 108.324 162.709 108.325 164.558V175C108.325 177.21 107.447 179.33 105.884 180.893C104.321 182.455 102.202 183.333 99.9917 183.333C97.7815 183.333 95.6619 182.455 94.0991 180.893C92.5363 179.33 91.6583 177.21 91.6583 175V164.567C91.6592 162.717 91.0448 160.92 89.9117 159.458C88.7786 157.996 87.1914 156.952 85.4 156.492C75.1362 153.831 65.7944 148.416 58.3833 140.833C57.0877 139.513 55.3895 138.661 53.5563 138.412C51.7231 138.163 49.8592 138.531 48.2583 139.458L39.225 144.683C38.2769 145.239 37.2282 145.602 36.1394 145.751C35.0505 145.9 33.9429 145.832 32.8804 145.551C31.8179 145.27 30.8215 144.782 29.9485 144.114C29.0755 143.446 28.3431 142.613 27.7936 141.661C27.2441 140.709 26.8883 139.658 26.7466 138.568C26.605 137.479 26.6803 136.372 26.9682 135.311C27.2562 134.25 27.7511 133.257 28.4244 132.389C29.0978 131.52 29.9363 130.793 30.8917 130.25L39.925 125.033C41.5246 124.11 42.7723 122.682 43.4722 120.973C44.172 119.264 44.2844 117.371 43.7917 115.592C40.9696 105.366 40.9696 94.5672 43.7917 84.3417C44.2755 82.5657 44.1578 80.6795 43.4568 78.9774C42.7558 77.2754 41.511 75.8534 39.9167 74.9333L30.8833 69.7167C28.9682 68.6116 27.5706 66.791 26.9978 64.6554C26.425 62.5199 26.7241 60.2442 27.8292 58.3292C28.9342 56.4141 30.7548 55.0164 32.8904 54.4437C35.0259 53.8709 37.3016 54.1699 39.2167 55.275L48.2667 60.5083C49.8632 61.4376 51.7232 61.8101 53.5544 61.5672C55.3856 61.3244 57.0842 60.48 58.3833 59.1667C65.8007 51.5945 75.1452 46.1918 85.4083 43.5417C87.2053 43.0797 88.7966 42.0313 89.9303 40.5625C91.0639 39.0938 91.675 37.2887 91.6667 35.4333V25C91.6667 22.7899 92.5446 20.6702 94.1074 19.1074C95.6702 17.5446 97.7898 16.6667 100 16.6667C102.21 16.6667 104.33 17.5446 105.893 19.1074C107.455 20.6702 108.333 22.7899 108.333 25V35.4333C108.332 37.283 108.947 39.0804 110.08 40.5423C111.213 42.0043 112.8 43.0478 114.592 43.5083C124.858 46.1679 134.203 51.5824 141.617 59.1667C142.912 60.4872 144.611 61.3391 146.444 61.5881C148.277 61.837 150.141 61.4689 151.742 60.5417L160.775 55.3167C161.723 54.7609 162.772 54.3981 163.861 54.2492C164.949 54.1003 166.057 54.1683 167.12 54.4492C168.182 54.7301 169.178 55.2184 170.051 55.8859C170.924 56.5535 171.657 57.3872 172.206 58.3389C172.756 59.2907 173.112 60.3417 173.253 61.4316C173.395 62.5214 173.32 63.6285 173.032 64.6891C172.744 65.7497 172.249 66.7429 171.576 67.6114C170.902 68.48 170.064 69.2068 169.108 69.75L160.075 74.9667C158.484 75.8892 157.242 77.3123 156.544 79.0141C155.847 80.7159 155.731 82.6008 156.217 84.375V84.3667Z" fill="black"/>
</g>
<defs>
<clipPath id="clip0_362_1841">
<rect width="200" height="200" fill="white"/>
</clipPath>
</defs>
</svg>
