<svg width="200" height="200" viewBox="0 0 200 200" fill="none" xmlns="http://www.w3.org/2000/svg">
<g clip-path="url(#clip0_367_1863)">
<path d="M58.3333 0H33.3333C14.95 0 0 14.95 0 33.3333V58.3333C0 76.7167 14.95 91.6667 33.3333 91.6667H58.3333C76.7167 91.6667 91.6667 76.7167 91.6667 58.3333V33.3333C91.6667 14.95 76.7167 0 58.3333 0ZM75 58.3333C75 67.525 67.525 75 58.3333 75H33.3333C24.1417 75 16.6667 67.525 16.6667 58.3333V33.3333C16.6667 24.1417 24.1417 16.6667 33.3333 16.6667H58.3333C67.525 16.6667 75 24.1417 75 33.3333V58.3333ZM58.3333 41.6667V50C58.3333 54.6 54.6 58.3333 50 58.3333H41.6667C37.0667 58.3333 33.3333 54.6 33.3333 50V41.6667C33.3333 37.0667 37.0667 33.3333 41.6667 33.3333H50C54.6 33.3333 58.3333 37.0667 58.3333 41.6667ZM141.667 91.6667H166.667C185.05 91.6667 200 76.7167 200 58.3333V33.3333C200 14.95 185.05 0 166.667 0H141.667C123.283 0 108.333 14.95 108.333 33.3333V58.3333C108.333 76.7167 123.283 91.6667 141.667 91.6667ZM125 33.3333C125 24.1417 132.475 16.6667 141.667 16.6667H166.667C175.858 16.6667 183.333 24.1417 183.333 33.3333V58.3333C183.333 67.525 175.858 75 166.667 75H141.667C132.475 75 125 67.525 125 58.3333V33.3333ZM141.667 50V41.6667C141.667 37.0667 145.4 33.3333 150 33.3333H158.333C162.933 33.3333 166.667 37.0667 166.667 41.6667V50C166.667 54.6 162.933 58.3333 158.333 58.3333H150C145.4 58.3333 141.667 54.6 141.667 50ZM58.3333 108.333H33.3333C14.95 108.333 0 123.283 0 141.667V166.667C0 185.05 14.95 200 33.3333 200H58.3333C76.7167 200 91.6667 185.05 91.6667 166.667V141.667C91.6667 123.283 76.7167 108.333 58.3333 108.333ZM75 166.667C75 175.858 67.525 183.333 58.3333 183.333H33.3333C24.1417 183.333 16.6667 175.858 16.6667 166.667V141.667C16.6667 132.475 24.1417 125 33.3333 125H58.3333C67.525 125 75 132.475 75 141.667V166.667ZM58.3333 150V158.333C58.3333 162.933 54.6 166.667 50 166.667H41.6667C37.0667 166.667 33.3333 162.933 33.3333 158.333V150C33.3333 145.4 37.0667 141.667 41.6667 141.667H50C54.6 141.667 58.3333 145.4 58.3333 150ZM141.667 120.833V129.167C141.667 136.067 136.067 141.667 129.167 141.667H120.833C113.933 141.667 108.333 136.067 108.333 129.167V120.833C108.333 113.933 113.933 108.333 120.833 108.333H129.167C136.067 108.333 141.667 113.933 141.667 120.833ZM166.667 154.167C166.667 161.067 161.067 166.667 154.167 166.667C147.267 166.667 141.667 161.067 141.667 154.167C141.667 147.267 147.267 141.667 154.167 141.667C161.067 141.667 166.667 147.267 166.667 154.167ZM141.667 179.167V187.5C141.667 194.4 136.067 200 129.167 200H120.833C113.933 200 108.333 194.4 108.333 187.5V179.167C108.333 172.267 113.933 166.667 120.833 166.667H129.167C136.067 166.667 141.667 172.267 141.667 179.167ZM200 120.833V129.167C200 136.067 194.4 141.667 187.5 141.667H179.167C172.267 141.667 166.667 136.067 166.667 129.167V120.833C166.667 113.933 172.267 108.333 179.167 108.333H187.5C194.4 108.333 200 113.933 200 120.833Z" fill="black"/>
</g>
<defs>
<clipPath id="clip0_367_1863">
<rect width="200" height="200" fill="white"/>
</clipPath>
</defs>
</svg>
