<svg width="200" height="200" viewBox="0 0 200 200" fill="none" xmlns="http://www.w3.org/2000/svg">
<g clip-path="url(#clip0_367_1856)">
<path d="M150 158.333C151.648 158.333 153.259 157.844 154.629 156.928C155.999 156.013 157.067 154.711 157.697 153.189C158.328 151.666 158.493 149.991 158.172 148.375C157.85 146.758 157.057 145.274 155.892 144.108L104.458 92.6833C96.6447 84.872 86.0485 80.4839 75 80.4839C63.9515 80.4839 53.3553 84.872 45.5417 92.6833L27.4417 110.775C25.9237 112.347 25.0837 114.452 25.1027 116.637C25.1217 118.822 25.9981 120.912 27.5432 122.457C29.0883 124.002 31.1784 124.878 33.3633 124.897C35.5483 124.916 37.6533 124.076 39.225 122.558L57.325 104.467C62.0852 99.9178 68.4159 97.3793 75 97.3793C81.5842 97.3793 87.9149 99.9178 92.675 104.467L144.108 155.892C145.671 157.455 147.79 158.333 150 158.333Z" fill="black"/>
<path d="M133.333 87.5C139.102 87.5 144.741 85.7894 149.537 82.5845C154.334 79.3796 158.072 74.8244 160.28 69.4949C162.487 64.1654 163.065 58.301 161.94 52.6432C160.814 46.9854 158.036 41.7884 153.957 37.7094C149.878 33.6303 144.681 30.8525 139.023 29.7271C133.366 28.6017 127.501 29.1793 122.172 31.3868C116.842 33.5944 112.287 37.3327 109.082 42.1292C105.877 46.9256 104.167 52.5647 104.167 58.3333C104.167 66.0688 107.24 73.4874 112.709 78.9573C118.179 84.4271 125.598 87.5 133.333 87.5ZM133.333 45.8333C135.806 45.8333 138.222 46.5664 140.278 47.9399C142.334 49.3135 143.936 51.2657 144.882 53.5498C145.828 55.8338 146.075 58.3472 145.593 60.7719C145.111 63.1967 143.92 65.424 142.172 67.1721C140.424 68.9203 138.197 70.1108 135.772 70.5931C133.347 71.0754 130.834 70.8279 128.55 69.8818C126.266 68.9357 124.313 67.3335 122.94 65.2779C121.566 63.2223 120.833 60.8056 120.833 58.3333C120.833 55.0181 122.15 51.8387 124.494 49.4945C126.839 47.1503 130.018 45.8333 133.333 45.8333Z" fill="black"/>
<path d="M191.667 133.333C189.457 133.333 187.337 134.211 185.774 135.774C184.211 137.337 183.333 139.456 183.333 141.667V158.333C183.333 164.964 180.699 171.323 176.011 176.011C171.323 180.699 164.964 183.333 158.333 183.333H141.667C139.457 183.333 137.337 184.211 135.774 185.774C134.211 187.337 133.333 189.456 133.333 191.667C133.333 193.877 134.211 195.996 135.774 197.559C137.337 199.122 139.457 200 141.667 200H158.333C169.38 199.987 179.97 195.593 187.782 187.781C195.593 179.97 199.987 169.38 200 158.333V141.667C200 139.456 199.122 137.337 197.559 135.774C195.996 134.211 193.877 133.333 191.667 133.333Z" fill="black"/>
<path d="M8.33333 66.6667C10.5435 66.6667 12.6631 65.7887 14.2259 64.2259C15.7887 62.6631 16.6667 60.5435 16.6667 58.3333V41.6667C16.6667 35.0363 19.3006 28.6774 23.989 23.989C28.6774 19.3006 35.0363 16.6667 41.6667 16.6667H58.3333C60.5435 16.6667 62.6631 15.7887 64.2259 14.2259C65.7887 12.6631 66.6667 10.5435 66.6667 8.33333C66.6667 6.1232 65.7887 4.00358 64.2259 2.44078C62.6631 0.877974 60.5435 0 58.3333 0L41.6667 0C30.62 0.0132321 20.0296 4.40735 12.2185 12.2185C4.40735 20.0296 0.0132321 30.62 0 41.6667L0 58.3333C0 60.5435 0.877974 62.6631 2.44078 64.2259C4.00358 65.7887 6.1232 66.6667 8.33333 66.6667Z" fill="black"/>
<path d="M58.3333 183.333H41.6667C35.0363 183.333 28.6774 180.699 23.989 176.011C19.3006 171.323 16.6667 164.964 16.6667 158.333V141.667C16.6667 139.456 15.7887 137.337 14.2259 135.774C12.6631 134.211 10.5435 133.333 8.33333 133.333C6.1232 133.333 4.00358 134.211 2.44078 135.774C0.877974 137.337 0 139.456 0 141.667L0 158.333C0.0132321 169.38 4.40735 179.97 12.2185 187.781C20.0296 195.593 30.62 199.987 41.6667 200H58.3333C60.5435 200 62.6631 199.122 64.2259 197.559C65.7887 195.996 66.6667 193.877 66.6667 191.667C66.6667 189.456 65.7887 187.337 64.2259 185.774C62.6631 184.211 60.5435 183.333 58.3333 183.333Z" fill="black"/>
<path d="M158.333 0H141.667C139.457 0 137.337 0.877974 135.774 2.44078C134.211 4.00358 133.333 6.1232 133.333 8.33333C133.333 10.5435 134.211 12.6631 135.774 14.2259C137.337 15.7887 139.457 16.6667 141.667 16.6667H158.333C164.964 16.6667 171.323 19.3006 176.011 23.989C180.699 28.6774 183.333 35.0363 183.333 41.6667V58.3333C183.333 60.5435 184.211 62.6631 185.774 64.2259C187.337 65.7887 189.457 66.6667 191.667 66.6667C193.877 66.6667 195.996 65.7887 197.559 64.2259C199.122 62.6631 200 60.5435 200 58.3333V41.6667C199.987 30.62 195.593 20.0296 187.782 12.2185C179.97 4.40735 169.38 0.0132321 158.333 0Z" fill="black"/>
</g>
<defs>
<clipPath id="clip0_367_1856">
<rect width="200" height="200" fill="white"/>
</clipPath>
</defs>
</svg>
