<svg width="200" height="200" viewBox="0 0 200 200" fill="none" xmlns="http://www.w3.org/2000/svg">
<g clip-path="url(#clip0_376_1418)">
<path d="M198.508 93.175C191.192 77.175 162.5 25 100 25C37.5 25 8.80836 77.175 1.49169 93.175C0.509511 95.3192 0.00109863 97.6499 0.00109863 100.008C0.00109863 102.367 0.509511 104.697 1.49169 106.842C8.80836 122.825 37.5 175 100 175C162.5 175 191.192 122.825 198.508 106.825C199.489 104.683 199.996 102.355 199.996 100C199.996 97.6446 199.489 95.3168 198.508 93.175ZM100 150C90.111 150 80.444 147.068 72.2215 141.573C63.9991 136.079 57.5904 128.27 53.8061 119.134C50.0217 109.998 49.0315 99.9445 50.9608 90.2455C52.89 80.5464 57.6521 71.6373 64.6447 64.6447C71.6373 57.652 80.5465 52.89 90.2455 50.9607C99.9446 49.0315 109.998 50.0216 119.134 53.806C128.271 57.5904 136.079 63.999 141.574 72.2215C147.068 80.4439 150 90.1109 150 100C149.987 113.257 144.715 125.967 135.341 135.341C125.967 144.715 113.257 149.987 100 150Z" fill="black"/>
<path d="M100 133.333C118.409 133.333 133.333 118.409 133.333 100C133.333 81.5905 118.409 66.6666 100 66.6666C81.5905 66.6666 66.6666 81.5905 66.6666 100C66.6666 118.409 81.5905 133.333 100 133.333Z" fill="black"/>
</g>
<defs>
<clipPath id="clip0_376_1418">
<rect width="200" height="200" fill="white"/>
</clipPath>
</defs>
</svg>
