<svg width="200" height="200" viewBox="0 0 200 200" fill="none" xmlns="http://www.w3.org/2000/svg">
<g clip-path="url(#clip0_367_1867)">
<path d="M158.333 200H150C147.79 200 145.67 199.122 144.107 197.559C142.545 195.996 141.667 193.877 141.667 191.667C141.667 189.457 142.545 187.337 144.107 185.774C145.67 184.211 147.79 183.333 150 183.333H158.333C164.964 183.333 171.323 180.699 176.011 176.011C180.699 171.323 183.333 164.964 183.333 158.333V150C183.333 147.79 184.211 145.67 185.774 144.107C187.337 142.545 189.457 141.667 191.667 141.667C193.877 141.667 195.996 142.545 197.559 144.107C199.122 145.67 200 147.79 200 150V158.333C199.987 169.38 195.593 179.97 187.781 187.781C179.97 195.593 169.38 199.987 158.333 200ZM200 50V41.6667C199.987 30.62 195.593 20.0296 187.781 12.2185C179.97 4.40735 169.38 0.0132321 158.333 0L150 0C147.79 0 145.67 0.877974 144.107 2.44078C142.545 4.00358 141.667 6.1232 141.667 8.33333C141.667 10.5435 142.545 12.6631 144.107 14.2259C145.67 15.7887 147.79 16.6667 150 16.6667H158.333C164.964 16.6667 171.323 19.3006 176.011 23.989C180.699 28.6774 183.333 35.0363 183.333 41.6667V50C183.333 52.2101 184.211 54.3298 185.774 55.8926C187.337 57.4554 189.457 58.3333 191.667 58.3333C193.877 58.3333 195.996 57.4554 197.559 55.8926C199.122 54.3298 200 52.2101 200 50ZM58.3333 191.667C58.3333 189.457 57.4554 187.337 55.8926 185.774C54.3298 184.211 52.2101 183.333 50 183.333H41.6667C35.0363 183.333 28.6774 180.699 23.989 176.011C19.3006 171.323 16.6667 164.964 16.6667 158.333V150C16.6667 147.79 15.7887 145.67 14.2259 144.107C12.6631 142.545 10.5435 141.667 8.33333 141.667C6.1232 141.667 4.00358 142.545 2.44078 144.107C0.877974 145.67 0 147.79 0 150L0 158.333C0.0132321 169.38 4.40735 179.97 12.2185 187.781C20.0296 195.593 30.62 199.987 41.6667 200H50C52.2101 200 54.3298 199.122 55.8926 197.559C57.4554 195.996 58.3333 193.877 58.3333 191.667ZM16.6667 50V41.6667C16.6667 35.0363 19.3006 28.6774 23.989 23.989C28.6774 19.3006 35.0363 16.6667 41.6667 16.6667H50C52.2101 16.6667 54.3298 15.7887 55.8926 14.2259C57.4554 12.6631 58.3333 10.5435 58.3333 8.33333C58.3333 6.1232 57.4554 4.00358 55.8926 2.44078C54.3298 0.877974 52.2101 0 50 0L41.6667 0C30.62 0.0132321 20.0296 4.40735 12.2185 12.2185C4.40735 20.0296 0.0132321 30.62 0 41.6667L0 50C0 52.2101 0.877974 54.3298 2.44078 55.8926C4.00358 57.4554 6.1232 58.3333 8.33333 58.3333C10.5435 58.3333 12.6631 57.4554 14.2259 55.8926C15.7887 54.3298 16.6667 52.2101 16.6667 50ZM133.333 100C133.333 93.4073 131.378 86.9626 127.716 81.481C124.053 75.9994 118.847 71.7269 112.756 69.204C106.665 66.6811 99.963 66.021 93.497 67.3072C87.031 68.5933 81.0915 71.768 76.4298 76.4298C71.768 81.0915 68.5933 87.031 67.3072 93.497C66.021 99.963 66.6811 106.665 69.204 112.756C71.7269 118.847 75.9994 124.053 81.481 127.716C86.9626 131.378 93.4073 133.333 100 133.333C108.841 133.333 117.319 129.821 123.57 123.57C129.821 117.319 133.333 108.841 133.333 100ZM116.667 100C116.667 103.296 115.689 106.519 113.858 109.259C112.026 112 109.423 114.137 106.378 115.398C103.333 116.659 99.9815 116.99 96.7485 116.346C93.5155 115.703 90.5458 114.116 88.2149 111.785C85.884 109.454 84.2967 106.485 83.6536 103.252C83.0105 100.018 83.3405 96.6674 84.602 93.6219C85.8635 90.5765 87.9997 87.9735 90.7405 86.1422C93.4813 84.3108 96.7036 83.3333 100 83.3333C104.42 83.3333 108.66 85.0893 111.785 88.2149C114.911 91.3405 116.667 95.5797 116.667 100Z" fill="black"/>
</g>
<defs>
<clipPath id="clip0_367_1867">
<rect width="200" height="200" fill="white"/>
</clipPath>
</defs>
</svg>
