<svg width="200" height="200" viewBox="0 0 200 200" fill="none" xmlns="http://www.w3.org/2000/svg">
<g clip-path="url(#clip0_360_1807)">
<path d="M191.667 183.333H25C22.7899 183.333 20.6702 182.455 19.1074 180.893C17.5446 179.33 16.6667 177.21 16.6667 175V8.33333C16.6667 6.1232 15.7887 4.00358 14.2259 2.44078C12.6631 0.877974 10.5435 0 8.33333 0C6.1232 0 4.00358 0.877974 2.44078 2.44078C0.877974 4.00358 0 6.1232 0 8.33333L0 175C0 181.63 2.63392 187.989 7.32233 192.678C12.0107 197.366 18.3696 200 25 200H191.667C193.877 200 195.996 199.122 197.559 197.559C199.122 195.996 200 193.877 200 191.667C200 189.457 199.122 187.337 197.559 185.774C195.996 184.211 193.877 183.333 191.667 183.333Z" fill="black"/>
<path d="M125 166.667C127.21 166.667 129.33 165.789 130.893 164.226C132.455 162.663 133.333 160.543 133.333 158.333V100C133.333 97.7898 132.455 95.6702 130.893 94.1074C129.33 92.5446 127.21 91.6666 125 91.6666C122.79 91.6666 120.67 92.5446 119.107 94.1074C117.545 95.6702 116.667 97.7898 116.667 100V158.333C116.667 160.543 117.545 162.663 119.107 164.226C120.67 165.789 122.79 166.667 125 166.667Z" fill="black"/>
<path d="M58.3333 166.667C60.5435 166.667 62.6631 165.789 64.2259 164.226C65.7887 162.663 66.6667 160.543 66.6667 158.333V100C66.6667 97.7898 65.7887 95.6702 64.2259 94.1074C62.6631 92.5446 60.5435 91.6666 58.3333 91.6666C56.1232 91.6666 54.0036 92.5446 52.4408 94.1074C50.878 95.6702 50 97.7898 50 100V158.333C50 160.543 50.878 162.663 52.4408 164.226C54.0036 165.789 56.1232 166.667 58.3333 166.667Z" fill="black"/>
<path d="M158.333 166.667C160.543 166.667 162.663 165.789 164.226 164.226C165.789 162.663 166.667 160.543 166.667 158.333V58.3333C166.667 56.1232 165.789 54.0036 164.226 52.4408C162.663 50.878 160.543 50 158.333 50C156.123 50 154.004 50.878 152.441 52.4408C150.878 54.0036 150 56.1232 150 58.3333V158.333C150 160.543 150.878 162.663 152.441 164.226C154.004 165.789 156.123 166.667 158.333 166.667Z" fill="black"/>
<path d="M91.6667 166.667C93.8768 166.667 95.9964 165.789 97.5592 164.226C99.122 162.663 100 160.543 100 158.333V58.3333C100 56.1232 99.122 54.0036 97.5592 52.4408C95.9964 50.878 93.8768 50 91.6667 50C89.4565 50 87.3369 50.878 85.7741 52.4408C84.2113 54.0036 83.3333 56.1232 83.3333 58.3333V158.333C83.3333 160.543 84.2113 162.663 85.7741 164.226C87.3369 165.789 89.4565 166.667 91.6667 166.667Z" fill="black"/>
</g>
<defs>
<clipPath id="clip0_360_1807">
<rect width="200" height="200" fill="white"/>
</clipPath>
</defs>
</svg>
