<svg width="200" height="200" viewBox="0 0 200 200" fill="none" xmlns="http://www.w3.org/2000/svg">
<path d="M141.667 91.6667H108.333V58.3333C108.333 56.1232 107.455 54.0036 105.893 52.4408C104.33 50.878 102.21 50 100 50C97.7899 50 95.6702 50.878 94.1074 52.4408C92.5446 54.0036 91.6667 56.1232 91.6667 58.3333V91.6667H58.3333C56.1232 91.6667 54.0036 92.5446 52.4408 94.1074C50.878 95.6702 50 97.7899 50 100C50 102.21 50.878 104.33 52.4408 105.893C54.0036 107.455 56.1232 108.333 58.3333 108.333H91.6667V141.667C91.6667 143.877 92.5446 145.996 94.1074 147.559C95.6702 149.122 97.7899 150 100 150C102.21 150 104.33 149.122 105.893 147.559C107.455 145.996 108.333 143.877 108.333 141.667V108.333H141.667C143.877 108.333 145.996 107.455 147.559 105.893C149.122 104.33 150 102.21 150 100C150 97.7899 149.122 95.6702 147.559 94.1074C145.996 92.5446 143.877 91.6667 141.667 91.6667Z" fill="black"/>
</svg>
