<svg width="200" height="200" viewBox="0 0 200 200" fill="none" xmlns="http://www.w3.org/2000/svg">
<g clip-path="url(#clip0_364_2700)">
<path d="M191.667 91.6666H8.33333C3.73096 91.6666 0 95.3976 0 100C0 104.602 3.73096 108.333 8.33333 108.333H191.667C196.269 108.333 200 104.602 200 100C200 95.3976 196.269 91.6666 191.667 91.6666Z" fill="black"/>
<path d="M191.667 33.3334H8.33333C3.73096 33.3334 0 37.0643 0 41.6667C0 46.2691 3.73096 50 8.33333 50H191.667C196.269 50 200 46.2691 200 41.6667C200 37.0643 196.269 33.3334 191.667 33.3334Z" fill="black"/>
<path d="M191.667 150H8.33333C3.73096 150 0 153.731 0 158.333C0 162.936 3.73096 166.667 8.33333 166.667H191.667C196.269 166.667 200 162.936 200 158.333C200 153.731 196.269 150 191.667 150Z" fill="black"/>
</g>
<defs>
<clipPath id="clip0_364_2700">
<rect width="200" height="200" fill="white"/>
</clipPath>
</defs>
</svg>
