<svg width="200" height="200" viewBox="0 0 200 200" fill="none" xmlns="http://www.w3.org/2000/svg">
<g clip-path="url(#clip0_360_1704)">
<path d="M58.3333 200C57.2366 200.006 56.1494 199.796 55.1341 199.381C54.1188 198.967 53.1953 198.356 52.4166 197.583C51.6356 196.809 51.0156 195.887 50.5926 194.872C50.1695 193.856 49.9517 192.767 49.9517 191.667C49.9517 190.567 50.1695 189.477 50.5926 188.462C51.0156 187.446 51.6356 186.525 52.4166 185.75L120.5 117.667C125.182 112.979 127.811 106.625 127.811 100C127.811 93.375 125.182 87.0209 120.5 82.3334L52.4166 14.25C50.8474 12.6808 49.9659 10.5526 49.9659 8.33337C49.9659 6.11419 50.8474 3.9859 52.4166 2.41671C53.9858 0.847508 56.1141 -0.0340576 58.3333 -0.0340576C60.5525 -0.0340576 62.6808 0.847508 64.25 2.41671L132.333 70.5C136.214 74.3705 139.292 78.9685 141.393 84.0306C143.493 89.0927 144.574 94.5194 144.574 100C144.574 105.481 143.493 110.907 141.393 115.969C139.292 121.032 136.214 125.63 132.333 129.5L64.25 197.583C63.4713 198.356 62.5478 198.967 61.5325 199.381C60.5172 199.796 59.43 200.006 58.3333 200Z" fill="black"/>
</g>
<defs>
<clipPath id="clip0_360_1704">
<rect width="200" height="200" fill="white"/>
</clipPath>
</defs>
</svg>
