<svg width="200" height="200" viewBox="0 0 200 200" fill="none" xmlns="http://www.w3.org/2000/svg">
<path d="M155.917 68.4166C155.142 67.6356 154.22 67.0156 153.205 66.5925C152.189 66.1695 151.1 65.9517 150 65.9517C148.9 65.9517 147.811 66.1695 146.795 66.5925C145.78 67.0156 144.858 67.6356 144.083 68.4166L105.917 106.583C105.142 107.364 104.22 107.984 103.205 108.407C102.189 108.83 101.1 109.048 100 109.048C98.8999 109.048 97.8107 108.83 96.7952 108.407C95.7797 107.984 94.858 107.364 94.0833 106.583L55.9167 68.4166C55.142 67.6356 54.2203 67.0156 53.2048 66.5925C52.1893 66.1695 51.1001 65.9517 50 65.9517C48.8999 65.9517 47.8107 66.1695 46.7952 66.5925C45.7797 67.0156 44.858 67.6356 44.0833 68.4166C42.5312 69.978 41.6601 72.0901 41.6601 74.2916C41.6601 76.4932 42.5312 78.6053 44.0833 80.1666L82.3333 118.417C87.0208 123.098 93.375 125.728 100 125.728C106.625 125.728 112.979 123.098 117.667 118.417L155.917 80.1666C157.469 78.6053 158.34 76.4932 158.34 74.2916C158.34 72.0901 157.469 69.978 155.917 68.4166Z" fill="black"/>
</svg>
