<svg width="200" height="200" viewBox="0 0 200 200" fill="none" xmlns="http://www.w3.org/2000/svg">
<g clip-path="url(#clip0_376_1424)">
<g clip-path="url(#clip1_376_1424)">
<path d="M123.567 158.925C128.367 163.725 125.783 171.917 119.117 173.15C119.05 173.158 118.983 173.175 118.917 173.183C116.233 173.675 113.45 172.742 111.517 170.808L18.4667 77.7667C15.4583 74.7583 15.1583 70 17.775 66.65C17.8083 66.6083 17.8417 66.5583 17.8833 66.5167C20.975 62.5667 26.8833 62.2333 30.425 65.7833L123.567 158.925ZM4.40001 87.275C3.20834 89.5417 2.22501 91.5583 1.48334 93.175C-0.491659 97.5167 -0.491659 102.492 1.48334 106.842C1.82501 107.6 2.26667 108.5 2.70834 109.408L52 158.7C58.5167 165.217 66.65 169.917 75.6083 172.058C76.325 172.233 77.05 172.392 77.7833 172.55C82.2583 173.517 85.3 168.183 82.0667 164.95L4.40001 87.275ZM197.558 185.775C200.817 189.033 200.817 194.3 197.558 197.558C195.933 199.183 193.8 200 191.667 200C189.533 200 187.4 199.183 185.775 197.558L2.44167 14.225C-0.816659 10.9667 -0.816659 5.70001 2.44167 2.44167C5.70001 -0.816659 10.9667 -0.816659 14.225 2.44167L49.7917 38.0083C65.1083 29.375 81.975 25 100 25C151.6 25 181 60.3167 193.925 81.3667C202.075 94.6333 202.075 111.117 193.925 124.383C188.658 132.958 179.942 144.992 167.442 155.658L197.558 185.775ZM62.125 50.3417L77.025 65.2417C93.1917 54.55 115.242 56.3167 129.467 70.5417C143.692 84.775 145.458 106.817 134.767 122.983L155.617 143.833C167.017 134.375 174.967 123.417 179.733 115.658C184.575 107.775 184.575 97.975 179.733 90.0917C168.625 72.0083 143.492 41.6667 100.008 41.6667C86.5167 41.6667 73.8083 44.5833 62.125 50.3417ZM122.558 110.775C126.983 101.483 125.358 90.0083 117.683 82.325C110 74.6417 98.5167 73.025 89.2333 77.45L122.567 110.783L122.558 110.775Z" fill="black"/>
</g>
</g>
<defs>
<clipPath id="clip0_376_1424">
<rect width="200" height="200" fill="white"/>
</clipPath>
<clipPath id="clip1_376_1424">
<rect width="200" height="200" fill="white"/>
</clipPath>
</defs>
</svg>
