<svg width="200" height="200" viewBox="0 0 200 200" fill="none" xmlns="http://www.w3.org/2000/svg">
<g clip-path="url(#clip0_367_2317)">
<path d="M66.6667 100H50C40.8083 100 33.3333 107.475 33.3333 116.667V133.333C33.3333 142.525 40.8083 150 50 150H66.6667C75.8583 150 83.3333 142.525 83.3333 133.333V116.667C83.3333 107.475 75.8583 100 66.6667 100ZM50 133.333V116.667H66.6667V133.333H50ZM158.333 16.6667H150V8.33333C150 3.73333 146.275 0 141.667 0C137.058 0 133.333 3.73333 133.333 8.33333V16.6667H66.6667V8.33333C66.6667 3.73333 62.9417 0 58.3333 0C53.725 0 50 3.73333 50 8.33333V16.6667H41.6667C18.6917 16.6667 0 35.3583 0 58.3333V158.333C0 181.308 18.6917 200 41.6667 200H158.333C181.308 200 200 181.308 200 158.333V58.3333C200 35.3583 181.308 16.6667 158.333 16.6667ZM41.6667 33.3333H158.333C172.117 33.3333 183.333 44.55 183.333 58.3333V66.6667H16.6667V58.3333C16.6667 44.55 27.8833 33.3333 41.6667 33.3333ZM158.333 183.333H41.6667C27.8833 183.333 16.6667 172.117 16.6667 158.333V83.3333H183.333V158.333C183.333 172.117 172.117 183.333 158.333 183.333Z" fill="black"/>
</g>
<defs>
<clipPath id="clip0_367_2317">
<rect width="200" height="200" fill="white"/>
</clipPath>
</defs>
</svg>
