<svg width="200" height="200" viewBox="0 0 200 200" fill="none" xmlns="http://www.w3.org/2000/svg">
<g clip-path="url(#clip0_364_3980)">
<path d="M150 100C150 104.6 146.267 108.333 141.667 108.333C137.067 108.333 133.333 104.6 133.333 100C133.333 95.4 137.067 91.6667 141.667 91.6667C146.267 91.6667 150 95.4 150 100ZM58.3333 41.6667C62.9333 41.6667 66.6667 37.9417 66.6667 33.3333C66.6667 24.1417 74.1417 16.6667 83.3333 16.6667C92.525 16.6667 100 24.1417 100 33.3333C100 37.9417 103.733 41.6667 108.333 41.6667C112.933 41.6667 116.667 37.9417 116.667 33.3333C116.667 14.95 101.717 0 83.3333 0C64.95 0 50 14.95 50 33.3333C50 37.9417 53.7333 41.6667 58.3333 41.6667ZM200 108.333V125C200 134.217 193.767 139.825 186.933 141.283C181.425 155.067 171.333 166.708 158.333 174.233V175C158.333 188.783 147.117 200 133.333 200C122.467 200 113.2 193.033 109.758 183.333H90.2333C86.7917 193.033 77.525 200 66.6583 200C52.875 200 41.6583 188.783 41.6583 175V174.342C19.7 161.683 6.80834 137.867 8.46667 112.25C8.99167 104.1 11.05 96.3583 14.3417 89.2833C5.86667 85.275 -0.0166626 76.65 -0.0166626 66.6667C-0.0166626 52.8833 11.2 41.6667 24.9833 41.6667C29.5833 41.6667 33.3167 45.3917 33.3167 50C33.3167 54.6083 29.5833 58.3333 24.9833 58.3333C20.3833 58.3333 16.65 62.0667 16.65 66.6667C16.65 70.7583 19.6167 74.1667 23.5083 74.8667C36.1833 59.675 55.6167 50 77.2 50H121.892C128 37.6833 139.408 29.0667 154.617 25.45C159.542 24.2917 164.642 25.425 168.625 28.5667C172.667 31.7667 174.992 36.55 174.992 41.7V72.6583C180.058 78.4167 184.108 85 186.925 92.05C193.767 93.5083 200 99.1167 200 108.333ZM183.333 108.333H180.883C177.2 108.333 173.95 105.908 172.9 102.375C170.617 94.7083 166.4 87.575 160.708 81.7333C159.183 80.175 158.333 78.0833 158.333 75.9167V41.7C150.208 43.6333 139.458 48.6167 135.3 61.1583C134.125 64.6833 130.692 67.1083 127.05 66.8583C126.483 66.8333 77.2167 66.675 77.2167 66.675C49.6917 66.675 26.8 87.1667 25.1083 113.333C23.775 133.908 34.95 152.933 53.5833 161.792C56.4917 163.175 58.3333 166.108 58.3333 169.317V175.008C58.3333 179.608 62.075 183.342 66.6667 183.342C71.2583 183.342 75 179.608 75 175.008C75 170.408 78.7333 166.675 83.3333 166.675H116.667C121.267 166.675 125 170.4 125 175.008C125 179.617 128.742 183.342 133.333 183.342C137.925 183.342 141.667 179.608 141.667 175.008V169.225C141.667 166.017 143.508 163.092 146.408 161.708C159.258 155.575 168.908 144.367 172.9 130.975C173.95 127.442 177.2 125.017 180.883 125.017H183.333V108.35V108.333Z" fill="black"/>
</g>
<defs>
<clipPath id="clip0_364_3980">
<rect width="200" height="200" fill="white"/>
</clipPath>
</defs>
</svg>
