<svg width="200" height="200" viewBox="0 0 200 200" fill="none" xmlns="http://www.w3.org/2000/svg">
<g clip-path="url(#clip0_1086_2534)">
<path d="M199.617 46.1833L129.467 116.333C121.645 124.135 111.048 128.517 100 128.517C88.9521 128.517 78.3552 124.135 70.5333 116.333L0.383333 46.1833C0.266667 47.5 0 48.6917 0 50V150C0.0132321 161.047 4.40735 171.637 12.2185 179.448C20.0296 187.259 30.62 191.653 41.6667 191.667H158.333C169.38 191.653 179.97 187.259 187.782 179.448C195.593 171.637 199.987 161.047 200 150V50C200 48.6917 199.733 47.5 199.617 46.1833Z" fill="black"/>
<path d="M117.683 104.55L193.8 28.425C190.113 22.311 184.912 17.2504 178.7 13.7311C172.487 10.2119 165.473 8.35288 158.333 8.33337H41.6666C34.5268 8.35288 27.5125 10.2119 21.3002 13.7311C15.0879 17.2504 9.88727 22.311 6.19995 28.425L82.3166 104.55C87.013 109.228 93.3715 111.854 100 111.854C106.628 111.854 112.987 109.228 117.683 104.55Z" fill="black"/>
</g>
<defs>
<clipPath id="clip0_1086_2534">
<rect width="200" height="200" fill="white"/>
</clipPath>
</defs>
</svg>
