<svg width="200" height="200" viewBox="0 0 200 200" fill="none" xmlns="http://www.w3.org/2000/svg">
<g clip-path="url(#clip0_364_1900)">
<path d="M172.333 9.72503L172.158 9.66669L149.533 2.16669C141.718 -0.427844 133.311 -0.656865 125.367 1.50836L78.9 15C73.2104 16.5078 67.1726 15.9772 61.8333 13.5L57.6667 11.5667C51.3383 8.93481 44.4583 7.90467 37.6366 8.56758C30.8149 9.23049 24.262 11.566 18.5588 15.3671C12.8555 19.1681 8.17797 24.3174 4.94069 30.3586C1.70342 36.3997 0.00639405 43.1462 0 50L0 150.625C0.0175133 159.636 2.94827 168.4 8.35492 175.609C13.7616 182.818 21.3543 188.085 30 190.625L53.9083 198.125C57.9418 199.379 62.1428 200.011 66.3667 200C70.1318 200.048 73.8833 199.539 77.5 198.492L125.833 185.158C130.25 183.96 134.911 183.998 139.308 185.267L158.833 190.9C163.735 192.085 168.842 192.143 173.769 191.068C178.696 189.993 183.316 187.815 187.279 184.696C191.242 181.578 194.446 177.601 196.65 173.065C198.853 168.528 199.999 163.551 200 158.508V48.9667C199.987 40.3737 197.324 31.9939 192.372 24.9708C187.421 17.9478 180.423 12.6237 172.333 9.72503ZM34.8 174.658C29.5859 173.151 25.0008 169.994 21.7316 165.661C18.4625 161.328 16.6854 156.053 16.6667 150.625V50C16.6262 45.8723 17.6246 41.8008 19.5702 38.1602C21.5157 34.5196 24.3459 31.4268 27.8 29.1667C31.91 26.4404 36.7346 24.9907 41.6667 25C44.8472 25.0009 47.9963 25.6296 50.9333 26.85C50.9333 26.85 57.1417 29.5084 58.325 29.9334V182.017L34.8 174.658ZM75 181.892V32.325C77.8305 32.1748 80.6389 31.7421 83.3833 31.0334L125 18.9417V168.333L75 181.892ZM183.333 158.508C183.335 161.005 182.776 163.469 181.698 165.72C180.619 167.972 179.049 169.952 177.103 171.515C175.157 173.078 172.884 174.184 170.453 174.751C168.023 175.318 165.495 175.332 163.058 174.792L141.667 168.767V17.2917L166.817 25.45C171.65 27.2013 175.828 30.3973 178.783 34.6044C181.737 38.8114 183.326 43.8257 183.333 48.9667V158.508Z" fill="black"/>
</g>
<defs>
<clipPath id="clip0_364_1900">
<rect width="200" height="200" fill="white"/>
</clipPath>
</defs>
</svg>
