<svg width="200" height="200" viewBox="0 0 200 200" fill="none" xmlns="http://www.w3.org/2000/svg">
<g clip-path="url(#clip0_364_2189)">
<path d="M192.675 75.575L129.467 12.3583C121.644 4.55823 111.047 0.178101 100 0.178101C88.9528 0.178101 78.3563 4.55823 70.5333 12.3583L7.32499 75.575C4.99521 77.8899 3.14808 80.6441 1.89068 83.6782C0.633287 86.7122 -0.00936015 89.9657 -6.14917e-06 93.25V175.058C-6.14917e-06 181.689 2.63391 188.048 7.32232 192.736C12.0107 197.424 18.3696 200.058 25 200.058H175C181.63 200.058 187.989 197.424 192.678 192.736C197.366 188.048 200 181.689 200 175.058V93.25C200.009 89.9657 199.367 86.7122 198.109 83.6782C196.852 80.6441 195.005 77.8899 192.675 75.575ZM125 183.392H75V150.608C75 143.978 77.6339 137.619 82.3223 132.931C87.0107 128.242 93.3696 125.608 100 125.608C106.63 125.608 112.989 128.242 117.678 132.931C122.366 137.619 125 143.978 125 150.608V183.392ZM183.333 175.058C183.333 177.268 182.455 179.388 180.893 180.951C179.33 182.514 177.21 183.392 175 183.392H141.667V150.608C141.667 139.558 137.277 128.96 129.463 121.146C121.649 113.332 111.051 108.942 100 108.942C88.9493 108.942 78.3512 113.332 70.5372 121.146C62.7232 128.96 58.3333 139.558 58.3333 150.608V183.392H25C22.7899 183.392 20.6702 182.514 19.1074 180.951C17.5446 179.388 16.6667 177.268 16.6667 175.058V93.25C16.6744 91.0415 17.5516 88.9249 19.1083 87.3583L82.3167 24.1667C87.0142 19.4911 93.3722 16.8662 100 16.8662C106.628 16.8662 112.986 19.4911 117.683 24.1667L180.892 87.3833C182.442 88.9437 183.319 91.0501 183.333 93.25V175.058Z" fill="black"/>
</g>
<defs>
<clipPath id="clip0_364_2189">
<rect width="200" height="200" fill="white"/>
</clipPath>
</defs>
</svg>
