<svg width="200" height="200" viewBox="0 0 200 200" fill="none" xmlns="http://www.w3.org/2000/svg">
<g clip-path="url(#clip0_360_1823)">
<path d="M187.958 113.85L172.125 56.8834C167.484 40.1945 157.398 25.5358 143.469 15.2373C129.541 4.93884 112.57 -0.408381 95.2538 0.0456195C77.9376 0.49962 61.2701 6.72879 47.9005 17.743C34.531 28.7571 25.2267 43.9243 21.4666 60.8334L9.2083 115.958C7.85427 122.05 7.88557 128.367 9.29991 134.444C10.7143 140.522 13.4755 146.204 17.3798 151.071C21.2841 155.939 26.2318 159.867 31.8576 162.566C37.4833 165.266 43.6435 166.667 49.8833 166.667H59.1666C61.0793 176.086 66.1894 184.554 73.6312 190.637C81.0729 196.719 90.3887 200.042 100 200.042C109.611 200.042 118.927 196.719 126.369 190.637C133.811 184.554 138.921 176.086 140.833 166.667H147.817C154.24 166.667 160.577 165.183 166.331 162.329C172.086 159.475 177.103 155.329 180.99 150.216C184.877 145.102 187.53 139.159 188.74 132.85C189.95 126.542 189.677 120.039 187.958 113.85ZM100 183.333C94.8478 183.312 89.8281 181.699 85.6275 178.716C81.4269 175.733 78.2507 171.524 76.5333 166.667H123.467C121.749 171.524 118.573 175.733 114.372 178.716C110.172 181.699 105.152 183.312 100 183.333ZM167.717 140.125C165.395 143.206 162.386 145.702 158.93 147.416C155.474 149.131 151.666 150.015 147.808 150H49.8833C46.1398 149.999 42.4443 149.158 39.0695 147.538C35.6947 145.918 32.7267 143.561 30.3847 140.641C28.0426 137.721 26.3863 134.312 25.538 130.665C24.6897 127.019 24.671 123.229 25.4833 119.575L37.7333 64.4417C40.6862 51.1601 47.9942 39.2468 58.4954 30.5955C68.9967 21.9442 82.0885 17.0515 95.6898 16.6952C109.291 16.3389 122.621 20.5394 133.561 28.629C144.501 36.7186 152.422 48.233 156.067 61.3417L171.9 118.308C172.946 122.02 173.113 125.924 172.387 129.711C171.66 133.498 170.061 137.064 167.717 140.125Z" fill="black"/>
</g>
<defs>
<clipPath id="clip0_360_1823">
<rect width="200" height="200" fill="white"/>
</clipPath>
</defs>
</svg>
