<svg width="200" height="200" viewBox="0 0 200 200" fill="none" xmlns="http://www.w3.org/2000/svg">
<g clip-path="url(#clip0_367_1880)">
<path d="M100 0C80.2219 0 60.8879 5.8649 44.443 16.853C27.9981 27.8412 15.1809 43.459 7.61209 61.7317C0.0433286 80.0043 -1.93701 100.111 1.92152 119.509C5.78004 138.907 15.3041 156.725 29.2894 170.711C43.2746 184.696 61.0929 194.22 80.491 198.079C99.8891 201.937 119.996 199.957 138.268 192.388C156.541 184.819 172.159 172.002 183.147 155.557C194.135 139.112 200 119.778 200 100C199.971 73.4872 189.426 48.0684 170.679 29.321C151.932 10.5736 126.513 0.0286757 100 0ZM179.775 76L105.542 90.4333C104.373 88.6301 103.348 86.7382 102.475 84.775L74.6417 20.6083C85.1787 17.231 96.2833 15.9888 107.306 16.9543C118.329 17.9198 129.049 21.0736 138.838 26.2314C148.627 31.3891 157.29 38.4471 164.319 46.9927C171.348 55.5382 176.603 65.3996 179.775 76ZM100 183.333C81.5594 183.34 63.6378 177.227 49.0452 165.952C34.4526 154.678 24.0142 138.879 19.3665 121.034C14.7188 103.189 16.1247 84.3055 23.3637 67.345C30.6027 50.3846 43.2655 36.3061 59.3667 27.3167L87.1834 91.4083C91.1414 100.518 97.3566 108.469 105.242 114.508L160.683 156.942C152.917 165.265 143.523 171.902 133.084 176.443C122.645 180.983 111.384 183.328 100 183.333ZM170.833 143.708L119.792 104.642L182.967 92.3667C183.192 94.8667 183.35 97.425 183.35 100C183.343 115.453 179.007 130.594 170.833 143.708Z" fill="black"/>
</g>
<defs>
<clipPath id="clip0_367_1880">
<rect width="200" height="200" fill="white"/>
</clipPath>
</defs>
</svg>
