<svg width="200" height="200" viewBox="0 0 200 200" fill="none" xmlns="http://www.w3.org/2000/svg">
<g clip-path="url(#clip0_364_1888)">
<path d="M175.097 0H133.593C129.009 0 125.293 3.72266 125.293 8.31445C125.293 12.9062 129.009 16.6289 133.593 16.6289H171.661L114.95 73.434C84.2574 49.184 39.75 54.4477 15.5402 85.1906C-8.66958 115.934 -3.41489 160.514 27.2773 184.764C57.9695 209.014 102.477 203.75 126.687 173.007C146.964 147.259 146.964 110.94 126.687 85.191L183.398 28.3859V66.5164C183.398 71.1086 187.115 74.8309 191.699 74.8309C196.284 74.8309 200 71.1082 200 66.5164V24.9438C200 11.1676 188.851 0 175.097 0ZM71.3367 182.92C41.5378 182.92 17.3812 158.723 17.3812 128.875C17.3812 99.0273 41.5378 74.8309 71.3367 74.8309C101.136 74.8309 125.292 99.0273 125.292 128.875C125.256 158.708 101.12 182.883 71.3367 182.92Z" fill="black"/>
</g>
<defs>
<clipPath id="clip0_364_1888">
<rect width="200" height="200" fill="white"/>
</clipPath>
</defs>
</svg>
