<svg width="200" height="200" viewBox="0 0 200 200" fill="none" xmlns="http://www.w3.org/2000/svg">
<g clip-path="url(#clip0_367_1871)">
<path d="M133.333 0H66.6667C55.62 0.0132321 45.0296 4.40735 37.2185 12.2185C29.4073 20.0296 25.0132 30.62 25 41.6667V191.667C25.0012 193.182 25.4157 194.669 26.199 195.967C26.9823 197.264 28.1047 198.324 29.4453 199.031C30.7859 199.738 32.2941 200.066 33.8073 199.98C35.3206 199.894 36.7817 199.397 38.0333 198.542L55.5833 186.55L73.1333 198.542C74.5199 199.491 76.1612 199.999 77.8417 199.999C79.5222 199.999 81.1634 199.491 82.55 198.542L100.05 186.55L117.55 198.542C118.937 199.493 120.58 200.002 122.262 200.002C123.945 200.002 125.588 199.493 126.975 198.542L144.475 186.558L161.975 198.533C163.226 199.386 164.685 199.881 166.197 199.966C167.708 200.052 169.214 199.724 170.553 199.018C171.892 198.312 173.013 197.255 173.797 195.96C174.58 194.664 174.996 193.18 175 191.667V41.6667C174.987 30.62 170.593 20.0296 162.782 12.2185C154.97 4.40735 144.38 0.0132321 133.333 0ZM158.333 175.833L149.167 169.567C147.778 168.614 146.134 168.103 144.45 168.103C142.766 168.103 141.122 168.614 139.733 169.567L122.233 181.558L104.733 169.567C103.346 168.615 101.703 168.106 100.021 168.106C98.3386 168.106 96.6958 168.615 95.3083 169.567L77.8083 181.558L60.3083 169.567C58.9226 168.619 57.283 168.112 55.6042 168.112C53.9254 168.112 52.2857 168.619 50.9 169.567L41.6667 175.833V41.6667C41.6667 35.0363 44.3006 28.6774 48.989 23.989C53.6774 19.3006 60.0363 16.6667 66.6667 16.6667H133.333C139.964 16.6667 146.323 19.3006 151.011 23.989C155.699 28.6774 158.333 35.0363 158.333 41.6667V175.833Z" fill="black"/>
<path d="M133.333 66.6666H66.6667C62.0643 66.6666 58.3334 70.3976 58.3334 75C58.3334 79.6023 62.0643 83.3333 66.6667 83.3333H133.333C137.936 83.3333 141.667 79.6023 141.667 75C141.667 70.3976 137.936 66.6666 133.333 66.6666Z" fill="black"/>
<path d="M116.667 100H66.6667C62.0643 100 58.3334 103.731 58.3334 108.333C58.3334 112.936 62.0643 116.667 66.6667 116.667H116.667C121.269 116.667 125 112.936 125 108.333C125 103.731 121.269 100 116.667 100Z" fill="black"/>
</g>
<defs>
<clipPath id="clip0_367_1871">
<rect width="200" height="200" fill="white"/>
</clipPath>
</defs>
</svg>
