<svg width="200" height="192" viewBox="0 0 200 192" fill="none" xmlns="http://www.w3.org/2000/svg">
<path d="M189.583 80.7625C196.3 88.3792 200 98.1625 200 108.321V149.988C200 172.962 181.308 191.654 158.333 191.654H41.6667C18.6917 191.654 0 172.962 0 149.988V108.321C0 85.3458 18.6917 66.6542 41.6667 66.6542H75C79.6083 66.6542 83.3333 70.3875 83.3333 74.9875C83.3333 79.5875 79.6083 83.3208 75 83.3208H41.6667C27.8833 83.3208 16.6667 94.5375 16.6667 108.321V149.988C16.6667 163.771 27.8833 174.988 41.6667 174.988H158.333C172.117 174.988 183.333 163.771 183.333 149.988V108.321C183.333 102.229 181.108 96.3542 177.083 91.7875C174.042 88.3375 174.367 83.0708 177.825 80.0208C181.267 76.9875 186.533 77.3125 189.583 80.7625ZM41.6667 129.154C41.6667 136.054 47.2667 141.654 54.1667 141.654C61.0667 141.654 66.6667 136.054 66.6667 129.154C66.6667 122.254 61.0667 116.654 54.1667 116.654C47.2667 116.654 41.6667 122.254 41.6667 129.154ZM95.8333 141.654C102.733 141.654 108.333 136.054 108.333 129.154C108.333 122.254 102.733 116.654 95.8333 116.654C88.9333 116.654 83.3333 122.254 83.3333 129.154C83.3333 136.054 88.9333 141.654 95.8333 141.654ZM100 91.6542V78.4375C100 69.5375 103.467 61.1625 109.767 54.8708L157.325 7.3125C167.075 -2.4375 182.925 -2.4375 192.675 7.3125C197.392 12.0292 200 18.3125 200 24.9875C200 31.6625 197.392 37.9458 192.675 42.6708L145.117 90.2292C138.825 96.5208 130.45 99.9958 121.55 99.9958H108.333C103.725 99.9958 100 96.2625 100 91.6625V91.6542ZM116.667 83.3208H121.55C126 83.3208 130.183 81.5875 133.333 78.4375L180.892 30.8792C182.467 29.3042 183.333 27.2125 183.333 24.9875C183.333 22.7625 182.467 20.6708 180.892 19.0958C177.633 15.8375 172.367 15.8458 169.108 19.0958L121.55 66.6542C118.45 69.7625 116.667 74.0542 116.667 78.4375V83.3208Z" fill="black"/>
</svg>
