<svg width="200" height="200" viewBox="0 0 200 200" fill="none" xmlns="http://www.w3.org/2000/svg">
<path d="M158.333 91.6667H75L102.417 64.25C103.198 63.4753 103.818 62.5536 104.241 61.5382C104.664 60.5227 104.882 59.4334 104.882 58.3333C104.882 57.2332 104.664 56.144 104.241 55.1285C103.818 54.113 103.198 53.1914 102.417 52.4167C100.855 50.8646 98.7432 49.9934 96.5417 49.9934C94.3401 49.9934 92.228 50.8646 90.6667 52.4167L54.9167 88.25C51.7868 91.3613 50.0186 95.5869 50 100C50.0406 104.384 51.807 108.576 54.9167 111.667L90.6667 147.5C91.4437 148.272 92.365 148.882 93.3781 149.298C94.3912 149.713 95.4762 149.925 96.5711 149.921C97.6661 149.917 98.7496 149.698 99.7597 149.275C100.77 148.853 101.687 148.235 102.458 147.458C103.23 146.681 103.841 145.76 104.256 144.747C104.672 143.734 104.884 142.649 104.88 141.554C104.876 140.459 104.656 139.375 104.234 138.365C103.811 137.355 103.194 136.438 102.417 135.667L75 108.333H158.333C160.543 108.333 162.663 107.455 164.226 105.893C165.789 104.33 166.667 102.21 166.667 100C166.667 97.7899 165.789 95.6703 164.226 94.1075C162.663 92.5447 160.543 91.6667 158.333 91.6667Z" fill="black"/>
</svg>
