<svg width="200" height="200" viewBox="0 0 200 200" fill="none" xmlns="http://www.w3.org/2000/svg">
<g clip-path="url(#clip0_367_1879)">
<path d="M165.938 71.4446C165.938 71.2469 165.938 71.0492 165.938 70.843C165.938 34.441 136.428 4.93127 100.027 4.93127C63.6246 4.93127 34.1148 34.441 34.1148 70.843C34.1148 71.0489 34.1148 71.2465 34.1148 71.4446C2.24802 89.0403 -9.32112 129.138 8.27458 161.004C25.8703 192.871 65.9676 204.44 97.8344 186.845C98.573 186.437 99.3043 186.015 100.027 185.579C131.195 204.385 171.707 194.364 190.513 163.197C209.319 132.029 199.298 91.5172 168.131 72.711C167.408 72.2746 166.677 71.8524 165.938 71.4446ZM100.027 165.369C91.1629 157.45 85.4527 146.6 83.9441 134.811C94.4918 137.452 105.528 137.452 116.076 134.811C114.567 146.581 108.869 157.414 100.027 165.328V165.369ZM100.027 120.277C94.825 120.28 89.6554 119.459 84.7101 117.847C86.9582 107.746 92.3144 98.6035 100.027 91.7043C107.739 98.6035 113.095 107.746 115.343 117.847C110.398 119.459 105.228 120.28 100.027 120.277ZM69.7566 109.896C60.6379 102.834 54.2707 92.8094 51.7547 81.5539C62.8379 77.9446 74.8398 78.3676 85.6414 82.7485C78.2355 90.3848 72.7855 99.6985 69.7566 109.896ZM114.412 82.7071C125.213 78.3262 137.215 77.9032 148.298 81.5125C145.791 92.7832 139.423 102.823 130.296 109.896C127.273 99.6836 121.823 90.3551 114.412 82.7071ZM100.027 21.4094C124.898 21.4414 145.886 39.9215 149.065 64.5899C132.448 60.4172 114.859 62.8789 100.027 71.4528C85.1937 62.8785 67.6051 60.4172 50.9883 64.5899C54.1672 39.9219 75.1547 21.4414 100.027 21.4094ZM17.6371 128.516C17.6386 113.234 24.7148 98.8145 36.8008 89.4629C41.6093 105.676 52.4398 119.434 67.0707 127.914C67.0707 128.112 67.0707 128.309 67.0707 128.516C67.0617 145.62 73.7238 162.054 85.6414 174.324C60.3394 184.58 31.514 172.384 21.2578 147.082C18.8672 141.184 17.6375 134.88 17.6371 128.516ZM132.982 177.95C126.616 177.954 120.309 176.723 114.412 174.325C126.329 162.055 132.991 145.621 132.982 128.516C132.982 128.31 132.982 128.113 132.982 127.914C147.616 119.436 158.45 105.677 163.261 89.4633C184.829 106.202 188.744 137.256 172.005 158.824C162.647 170.881 148.245 177.94 132.982 177.95Z" fill="black"/>
</g>
<defs>
<clipPath id="clip0_367_1879">
<rect width="200" height="200" fill="white"/>
</clipPath>
</defs>
</svg>
