<svg width="200" height="200" viewBox="0 0 200 200" fill="none" xmlns="http://www.w3.org/2000/svg">
<g clip-path="url(#clip0_364_1886)">
<path d="M166.667 66.6667C166.677 53.8347 162.983 41.2724 156.029 30.4878C149.076 19.7032 139.157 11.1546 127.465 5.86815C115.772 0.581707 102.803 -1.21794 90.1125 0.685225C77.4223 2.58839 65.5511 8.11351 55.9237 16.5973C46.2964 25.0812 39.322 36.1632 35.8379 48.5132C32.3537 60.8632 32.5078 73.9563 36.2816 86.2209C40.0554 98.4854 47.2886 109.4 57.113 117.655C66.9373 125.91 78.9353 131.154 91.6667 132.758V158.333H75C72.7899 158.333 70.6703 159.211 69.1075 160.774C67.5447 162.337 66.6667 164.457 66.6667 166.667C66.6667 168.877 67.5447 170.996 69.1075 172.559C70.6703 174.122 72.7899 175 75 175H91.6667V191.667C91.6667 193.877 92.5447 195.996 94.1075 197.559C95.6703 199.122 97.7899 200 100 200C102.21 200 104.33 199.122 105.893 197.559C107.455 195.996 108.333 193.877 108.333 191.667V175H125C127.21 175 129.33 174.122 130.893 172.559C132.455 170.996 133.333 168.877 133.333 166.667C133.333 164.457 132.455 162.337 130.893 160.774C129.33 159.211 127.21 158.333 125 158.333H108.333V132.758C124.429 130.716 139.23 122.88 149.966 110.715C160.703 98.5509 166.64 82.8916 166.667 66.6667ZM50 66.6667C50 56.7776 52.9325 47.1106 58.4265 38.8882C63.9206 30.6657 71.7295 24.2571 80.8659 20.4727C90.0022 16.6883 100.055 15.6982 109.755 17.6274C119.454 19.5567 128.363 24.3187 135.355 31.3114C142.348 38.304 147.11 47.2131 149.039 56.9122C150.969 66.6112 149.978 76.6646 146.194 85.8009C142.41 94.9372 136.001 102.746 127.779 108.24C119.556 113.734 109.889 116.667 100 116.667C86.7433 116.653 74.0333 111.381 64.6593 102.007C55.2854 92.6335 50.0133 79.9235 50 66.6667Z" fill="black"/>
</g>
<defs>
<clipPath id="clip0_364_1886">
<rect width="200" height="200" fill="white"/>
</clipPath>
</defs>
</svg>
