<svg width="200" height="200" viewBox="0 0 200 200" fill="none" xmlns="http://www.w3.org/2000/svg">
<g clip-path="url(#clip0_360_1832)">
<path d="M190.242 76.4333L157.917 44.1083C156.345 42.5903 154.24 41.7504 152.055 41.7694C149.87 41.7883 147.78 42.6648 146.235 44.2098C144.69 45.7549 143.813 47.845 143.794 50.03C143.775 52.2149 144.615 54.32 146.133 55.8916L178.458 88.2166C179.419 89.196 180.258 90.2872 180.958 91.4666C180.833 91.4666 180.733 91.4 180.608 91.4L49.9083 91.6666C47.6982 91.6666 45.5786 92.5446 44.0158 94.1074C42.453 95.6702 41.575 97.7898 41.575 100C41.575 102.21 42.453 104.33 44.0158 105.893C45.5786 107.455 47.6982 108.333 49.9083 108.333L180.558 108.067C180.792 108.067 180.983 107.95 181.208 107.933C180.469 109.343 179.532 110.639 178.425 111.783L146.1 144.108C145.304 144.877 144.669 145.797 144.232 146.813C143.796 147.83 143.566 148.923 143.556 150.03C143.547 151.136 143.757 152.234 144.176 153.258C144.595 154.282 145.214 155.212 145.997 155.995C146.779 156.777 147.71 157.396 148.734 157.815C149.758 158.234 150.855 158.445 151.962 158.435C153.068 158.426 154.162 158.196 155.178 157.759C156.195 157.322 157.115 156.688 157.883 155.892L190.208 123.567C196.457 117.316 199.968 108.839 199.968 100C199.968 91.1612 196.457 82.6842 190.208 76.4333H190.242Z" fill="black"/>
<path d="M58.3333 183.333H41.6667C35.0363 183.333 28.6774 180.699 23.989 176.011C19.3006 171.323 16.6667 164.964 16.6667 158.333V41.6667C16.6667 35.0363 19.3006 28.6774 23.989 23.989C28.6774 19.3006 35.0363 16.6667 41.6667 16.6667H58.3333C60.5435 16.6667 62.6631 15.7887 64.2259 14.2259C65.7887 12.6631 66.6667 10.5435 66.6667 8.33333C66.6667 6.1232 65.7887 4.00358 64.2259 2.44078C62.6631 0.877974 60.5435 0 58.3333 0L41.6667 0C30.62 0.0132321 20.0296 4.40735 12.2185 12.2185C4.40735 20.0296 0.0132321 30.62 0 41.6667L0 158.333C0.0132321 169.38 4.40735 179.97 12.2185 187.781C20.0296 195.593 30.62 199.987 41.6667 200H58.3333C60.5435 200 62.6631 199.122 64.2259 197.559C65.7887 195.996 66.6667 193.877 66.6667 191.667C66.6667 189.457 65.7887 187.337 64.2259 185.774C62.6631 184.211 60.5435 183.333 58.3333 183.333Z" fill="black"/>
</g>
<defs>
<clipPath id="clip0_360_1832">
<rect width="200" height="200" fill="white"/>
</clipPath>
</defs>
</svg>
