<svg width="200" height="200" viewBox="0 0 200 200" fill="none" xmlns="http://www.w3.org/2000/svg">
<g clip-path="url(#clip0_364_1894)">
<path d="M75 141.667V158.333C75 162.933 71.2667 166.667 66.6667 166.667C62.0667 166.667 58.3333 162.933 58.3333 158.333V141.667C58.3333 137.067 62.0667 133.333 66.6667 133.333C71.2667 133.333 75 137.067 75 141.667ZM133.333 116.667C128.725 116.667 125 120.4 125 125V158.333C125 162.933 128.725 166.667 133.333 166.667C137.942 166.667 141.667 162.933 141.667 158.333V125C141.667 120.4 137.942 116.667 133.333 116.667ZM100 91.6667C95.4 91.6667 91.6667 95.4 91.6667 100V158.333C91.6667 162.933 95.4 166.667 100 166.667C104.6 166.667 108.333 162.933 108.333 158.333V100C108.333 95.4 104.6 91.6667 100 91.6667ZM183.333 87.375V158.333C183.333 181.308 164.642 200 141.667 200H58.3333C35.3583 200 16.6667 181.308 16.6667 158.333V41.6667C16.6667 18.6917 35.3583 0 58.3333 0H95.9583C111.533 0 126.183 6.06667 137.208 17.0833L166.242 46.1333C177.258 57.1417 183.333 71.7917 183.333 87.3833V87.375ZM125.425 28.8667C122.775 26.2167 119.833 23.975 116.667 22.1583V58.3333C116.667 62.925 120.4 66.6667 125 66.6667H161.175C159.358 63.5083 157.108 60.5667 154.467 57.9167L125.433 28.8667H125.425ZM166.667 87.375C166.667 86.0167 166.6 84.6667 166.475 83.3333H125C111.217 83.3333 100 72.1167 100 58.3333V16.8583C98.6667 16.7333 97.3167 16.6667 95.9583 16.6667H58.3333C44.55 16.6667 33.3333 27.8833 33.3333 41.6667V158.333C33.3333 172.117 44.55 183.333 58.3333 183.333H141.667C155.45 183.333 166.667 172.117 166.667 158.333V87.375Z" fill="black"/>
</g>
<defs>
<clipPath id="clip0_364_1894">
<rect width="200" height="200" fill="white"/>
</clipPath>
</defs>
</svg>
