<svg width="200" height="200" viewBox="0 0 200 200" fill="none" xmlns="http://www.w3.org/2000/svg">
<g clip-path="url(#clip0_1071_1834)">
<g clip-path="url(#clip1_1071_1834)">
<path fill-rule="evenodd" clip-rule="evenodd" d="M196 102.273C196 95.1819 195.364 88.3638 194.182 81.8183H100V120.5H153.818C151.5 133 144.455 143.591 133.864 150.682V175.773H166.182C185.091 158.364 196 132.727 196 102.273Z" fill="#4285F4"/>
<path fill-rule="evenodd" clip-rule="evenodd" d="M100 200C127 200 149.636 191.046 166.182 175.773L133.864 150.682C124.909 156.682 113.455 160.228 100 160.228C73.9545 160.228 51.9091 142.637 44.0454 119H10.6364V144.909C27.0909 177.591 60.9091 200 100 200Z" fill="#34A853"/>
<path fill-rule="evenodd" clip-rule="evenodd" d="M44.0455 119C42.0455 113 40.9091 106.591 40.9091 100C40.9091 93.4092 42.0455 87.0001 44.0455 81.0001V55.091H10.6364C3.86364 68.591 0 83.8637 0 100C0 116.136 3.86364 131.409 10.6364 144.909L44.0455 119Z" fill="#FBBC05"/>
<path fill-rule="evenodd" clip-rule="evenodd" d="M100 39.7727C114.682 39.7727 127.864 44.8182 138.227 54.7273L166.909 26.0455C149.591 9.90909 126.955 0 100 0C60.9091 0 27.0909 22.4091 10.6364 55.0909L44.0454 81C51.9091 57.3636 73.9545 39.7727 100 39.7727Z" fill="#EA4335"/>
</g>
</g>
<defs>
<clipPath id="clip0_1071_1834">
<rect width="200" height="200" fill="white"/>
</clipPath>
<clipPath id="clip1_1071_1834">
<rect width="200" height="200" fill="white"/>
</clipPath>
</defs>
</svg>
